<?xml version="1.0" encoding="UTF-8"?>
<svg version="1.1" xmlns="http://www.w3.org/2000/svg" width="2000" height="600">
<path d="M0 0 C1.77020508 0.00108765 1.77020508 0.00108765 3.57617188 0.00219727 C5.50396484 -0.00070313 5.50396484 -0.00070313 7.47070312 -0.00366211 C8.13924316 0.00882568 8.8077832 0.02131348 9.49658203 0.03417969 C11.53883733 0.06850126 13.57676678 0.05484454 15.61914062 0.03540039 C25.49313487 0.10967818 25.49313487 0.10967818 27.80639648 2.2956543 C29.24103919 5.00091591 30.34744408 7.68445351 31.39257812 10.56469727 C31.82699219 11.75393799 32.26140625 12.94317871 32.70898438 14.16845703 C33.17542774 15.46839914 33.64156423 16.76845139 34.10742188 18.06860352 C34.60319316 19.43712858 35.09929282 20.80553473 35.59570312 22.17382812 C39.07259628 31.7886309 42.41372992 41.44803327 45.71557617 51.12426758 C50.55624182 65.24295298 55.63108039 79.27795105 60.6796875 93.32330322 C65.67632059 107.22407442 70.65239855 121.13083797 75.54492188 135.06860352 C79.2129278 145.51631072 82.96413315 155.92947794 86.79492188 166.31860352 C90.1497881 175.42192933 93.46634248 184.53580035 96.66992188 193.69360352 C97.00088867 194.63357178 97.33185547 195.57354004 97.67285156 196.54199219 C98.1238623 197.84100464 98.1238623 197.84100464 98.58398438 199.16625977 C98.8438916 199.91270752 99.10379883 200.65915527 99.37158203 201.42822266 C100.09930735 203.80902961 100.5946091 206.18397368 101.04492188 208.63110352 C119.12403949 202.70633473 136.65132197 196.03967386 152.04492188 184.63110352 C152.93695313 183.9955957 153.82898438 183.36008789 154.74804688 182.70532227 C161.43698541 177.70864513 167.35277849 171.70753368 170.04492188 163.63110352 C170.62317398 159.44426548 170.91188174 155.44726449 169.05664062 151.56079102 C165.12304295 146.44157376 160.04009188 144.56158706 154.04492188 142.63110352 C152.84867187 142.21860352 151.65242188 141.80610352 150.41992188 141.38110352 C149.24429688 141.00985352 149.24429688 141.00985352 148.04492188 140.63110352 C148.37492187 139.97110352 148.70492188 139.31110352 149.04492188 138.63110352 C150.14827881 138.60922974 150.14827881 138.60922974 151.27392578 138.58691406 C175.21813646 138.07750107 199.12689509 136.95873085 223.04345703 135.73535156 C241.04018525 134.82318627 259.0332775 134.1505312 277.04492188 133.63110352 C277.52455687 132.22749665 278.00106958 130.82282267 278.47631836 129.41772461 C278.74202133 128.63561615 279.0077243 127.85350769 279.28147888 127.04769897 C280.50559912 123.17287999 281.3273588 119.24056682 282.10742188 115.25610352 C282.27661133 114.39251221 282.44580078 113.5289209 282.62011719 112.63916016 C288.06001058 83.83340482 289.86479794 52.64920509 272.85742188 27.38110352 C266.36351952 21.0315101 258.77313231 16.95644288 250.04492188 14.63110352 C248.69066191 14.23558951 247.33648732 13.83978298 245.98242188 13.44360352 C245.01304687 13.17547852 244.04367187 12.90735352 243.04492188 12.63110352 C243.01804037 10.98535786 242.99858064 9.33948938 242.98242188 7.69360352 C242.97082031 6.77708008 242.95921875 5.86055664 242.94726562 4.91625977 C243.04492188 2.63110352 243.04492188 2.63110352 244.04492188 1.63110352 C250.99539339 0.19428309 258.06856648 0.49043526 265.13427734 0.50170898 C266.56224105 0.50035253 267.99020441 0.49857123 269.41816711 0.49639893 C273.27927563 0.49185611 277.14035731 0.4936005 281.00146627 0.49677801 C285.04355026 0.49931497 289.08563199 0.49696063 293.12771606 0.49539185 C299.9080649 0.49357531 306.68840282 0.49596425 313.46875 0.50073242 C321.31631937 0.50618723 329.16386282 0.5044015 337.01143157 0.49890602 C343.74953906 0.49437589 350.48763872 0.49372344 357.22574723 0.49634469 C361.25041576 0.49790632 365.27507208 0.49810404 369.29973984 0.4948082 C373.07705852 0.4919305 376.85434353 0.49390325 380.63165855 0.49970245 C382.02126827 0.50103004 383.41088081 0.50063596 384.80048943 0.49843979 C386.68932879 0.4957286 388.57817431 0.49972283 390.4670105 0.50411987 C392.05591001 0.50468541 392.05591001 0.50468541 393.67690849 0.50526237 C396.04492188 0.63110352 396.04492188 0.63110352 397.04492188 1.63110352 C397.11718689 3.48397853 397.12873407 5.33944229 397.10742188 7.19360352 C397.09839844 8.20551758 397.089375 9.21743164 397.08007812 10.26000977 C397.06267578 11.43370117 397.06267578 11.43370117 397.04492188 12.63110352 C393.19656676 13.9914523 389.37187484 15.04291229 385.38720703 15.9230957 C372.97037026 18.72487412 363.59688072 24.20290454 354.04492188 32.63110352 C353.24441406 33.3362207 352.44390625 34.04133789 351.61914062 34.76782227 C326.98994896 57.90433565 311.77429595 93.41268218 298.04492188 123.63110352 C297.59375 124.59532227 297.14257812 125.55954102 296.67773438 126.55297852 C294.62739039 130.909404 294.62739039 130.909404 294.04492188 135.63110352 C294.85896484 135.9772168 294.85896484 135.9772168 295.68945312 136.33032227 C299.00805457 137.84312617 301.58648317 139.14488065 304.10742188 141.81860352 C305.79235584 146.8734054 305.11309943 151.15358142 303.01757812 156.01391602 C289.89870959 179.66590508 263.78094389 194.59540876 240.04492188 205.63110352 C238.89902588 206.17395996 238.89902588 206.17395996 237.72998047 206.7277832 C226.19783756 212.17900369 214.55237118 216.85441975 202.43603516 220.84008789 C200.20321003 221.57873945 197.98138014 222.34390598 195.75976562 223.11547852 C172.32364875 231.07244831 147.51589127 236.16439738 123.04492188 239.63110352 C121.92704788 239.79443176 121.92704788 239.79443176 120.78659058 239.96105957 C106.42494627 242.05429987 92.06893159 243.55626641 77.60742188 244.75610352 C75.61844889 244.92620128 73.62951641 245.09677337 71.640625 245.26782227 C69.69339607 245.43361837 67.74613161 245.59899781 65.79882812 245.76391602 C64.93906876 245.83683868 64.07930939 245.90976135 63.1934967 245.9848938 C60.4779813 246.20987519 57.76169552 246.42187135 55.04492188 246.63110352 C53.9450293 246.72024521 52.84513672 246.8093869 51.71191406 246.90122986 C42.28952252 247.60824897 32.92278448 247.77940423 23.47784042 247.79976845 C20.76120756 247.80712413 18.04473663 247.82293012 15.32815552 247.84111023 C7.6130018 247.89264632 -0.10206149 247.9412161 -7.81738281 247.95703125 C-47.81291157 245.73371476 -47.81291157 245.73371476 -85.95507812 253.63110352 C-87.08311516 256.2635075 -88.10316222 258.87602452 -89.08007812 261.56469727 C-89.38307327 262.38048752 -89.68606842 263.19627777 -89.99824524 264.03678894 C-90.9903586 266.71170429 -91.97271985 269.39009198 -92.95507812 272.06860352 C-93.98008822 274.84147627 -95.00747289 277.61346027 -96.03523254 280.38531494 C-96.71909277 282.22971738 -97.40218748 284.07440383 -98.08451843 285.91937256 C-100.35318233 292.0446302 -102.68756343 298.13867391 -105.07543945 304.21850586 C-113.24835746 325.04329509 -121.04420344 346.32855607 -125.48339844 368.29858398 C-125.78921536 369.8108898 -126.10810272 371.32063417 -126.44238281 372.8269043 C-128.89463624 383.96822478 -129.26212875 395.07689185 -129.33007812 406.44360352 C-129.34199692 407.49022156 -129.34199692 407.49022156 -129.35415649 408.5579834 C-129.4976094 424.94392216 -127.34774783 443.28083409 -115.43945312 455.59204102 C-107.46143191 462.14003956 -98.56996949 465.28745978 -88.40429688 466.34204102 C-85.95507812 466.63110352 -85.95507812 466.63110352 -84.95507812 467.63110352 C-84.95507812 471.59110352 -84.95507812 475.55110352 -84.95507812 479.63110352 C-137.75507813 479.63110352 -190.55507813 479.63110352 -244.95507812 479.63110352 C-244.95507812 475.67110352 -244.95507812 471.71110352 -244.95507812 467.63110352 C-243.39273438 467.33719727 -243.39273438 467.33719727 -241.79882812 467.03735352 C-225.90121457 463.8155718 -212.9386696 457.75030479 -200.95507812 446.63110352 C-200.25125 445.98399414 -199.54742187 445.33688477 -198.82226562 444.67016602 C-183.70134984 430.14222732 -172.11230515 411.83614624 -161.95507812 393.63110352 C-161.58366699 392.96804199 -161.21225586 392.30498047 -160.82958984 391.62182617 C-156.31463705 383.51018202 -152.31286326 375.30000071 -148.95507812 366.63110352 C-150.03208984 366.64850586 -150.03208984 366.64850586 -151.13085938 366.66625977 C-184.74561821 366.95929004 -217.91037133 361.79899236 -246.28710938 342.74731445 C-247.65119213 341.83446516 -249.03494092 340.95106334 -250.42382812 340.07641602 C-260.1151895 333.57705065 -268.14163156 321.46821435 -270.63867188 310.01782227 C-272.70163312 294.45647262 -268.94463363 280.7608941 -260.06835938 267.89672852 C-239.21203469 240.85316409 -203.08234211 230.42536799 -170.70629883 225.65087891 C-152.4757831 223.40383821 -134.29173491 223.5072498 -115.95507812 223.56860352 C-113.33007898 223.57362914 -110.7050789 223.57819017 -108.08007812 223.58227539 C-101.70505748 223.59319539 -95.33007226 223.60984904 -88.95507812 223.63110352 C-88.63047607 222.76686768 -88.30587402 221.90263184 -87.97143555 221.01220703 C-80.55456209 201.27988343 -73.02695457 181.59282353 -65.39257812 161.94360352 C-52.73076856 129.3403606 -40.31088887 96.65477484 -28.05177021 63.89809608 C-27.0245382 61.15333668 -25.9969541 58.40870912 -24.96940041 55.66407013 C-24.26206351 53.77408647 -23.555419 51.88384373 -22.84880066 49.99359131 C-19.92743519 42.18902001 -16.9599566 34.40388878 -13.95507812 26.63110352 C-13.29507812 26.63110352 -12.63507813 26.63110352 -11.95507812 26.63110352 C-11.58447266 27.67298828 -11.21386719 28.71487305 -10.83203125 29.78833008 C-3.30284748 50.94708065 4.2830651 72.08351014 11.98138428 93.18133545 C17.4605315 108.2037941 22.8355057 123.26129526 28.1713562 138.33517456 C32.8674921 151.59479317 37.65820557 164.81556609 42.54492188 178.00610352 C46.40917339 188.43968981 50.25180237 198.87648423 53.91992188 209.38110352 C54.24798828 210.31615723 54.57605469 211.25121094 54.9140625 212.21459961 C55.20216797 213.04813965 55.49027344 213.88167969 55.78710938 214.74047852 C56.03315918 215.45171875 56.27920898 216.16295898 56.53271484 216.89575195 C57.04492188 218.63110352 57.04492188 218.63110352 57.04492188 220.63110352 C58.11742187 220.30110352 59.18992187 219.97110352 60.29492188 219.63110352 C64.04492188 218.63110352 64.04492188 218.63110352 68.04492188 218.63110352 C67.75883057 217.88876465 67.47273926 217.14642578 67.17797852 216.3815918 C61.25092426 200.9681742 55.54639168 185.51430495 50.19726562 169.88891602 C44.77028573 154.04787035 38.94188224 138.3449147 33.21533203 122.61035156 C32.69534637 121.18159195 32.69534637 121.18159195 32.16485596 119.72396851 C31.4598024 117.78679062 30.75468357 115.84963649 30.04949951 113.9125061 C24.70064316 99.21732325 19.40723889 84.50398579 14.1640625 69.77075195 C9.29858441 56.12109048 4.40458982 42.48120822 -0.66088867 28.90429688 C-2.02261947 25.23848883 -3.3502428 21.56181569 -4.62695312 17.86547852 C-4.8728418 17.15617187 -5.11873047 16.44686523 -5.37207031 15.71606445 C-6.61722553 11.26312244 -6.63297166 7.26929676 -4.83984375 2.93603516 C-2.95507812 0.63110352 -2.95507812 0.63110352 0 0 Z M-26.95507812 103.63110352 C-27.2213501 104.35475098 -27.48762207 105.07839844 -27.76196289 105.82397461 C-29.01216059 109.21863667 -30.26486894 112.61236749 -31.51757812 116.00610352 C-31.93587891 117.14305664 -32.35417969 118.28000977 -32.78515625 119.45141602 C-35.82083784 127.6682985 -38.96409688 135.8381435 -42.1496582 143.99780273 C-43.92389883 148.54436528 -45.67876118 153.09820747 -47.42773438 157.65454102 C-47.71755188 158.40926193 -48.00736938 159.16398285 -48.30596924 159.9415741 C-49.5284562 163.12566714 -50.75042067 166.30996064 -51.97244263 169.49423218 C-55.63632167 179.03825237 -59.31597713 188.57561054 -63.04101562 198.09594727 C-63.36744553 198.93111877 -63.69387543 199.76629028 -64.03019714 200.62677002 C-65.59547271 204.63100793 -67.16412586 208.63386217 -68.73852539 212.63452148 C-69.29913162 214.06692084 -69.85960473 215.4993723 -70.41992188 216.93188477 C-70.67852997 217.58519272 -70.93713806 218.23850067 -71.20358276 218.91160583 C-72.527726 222.17418462 -72.527726 222.17418462 -72.95507812 225.63110352 C-58.31614464 228.31125388 -43.07140758 227.8175121 -28.24414062 227.81640625 C-24.96015589 227.81860012 -21.6765042 227.83685383 -18.39257812 227.85571289 C-8.87253341 227.88160985 0.5757121 227.81203051 10.04492188 226.74438477 C10.75132812 226.66665329 11.45773437 226.58892181 12.18554688 226.50883484 C13.8176336 226.29524803 15.43509272 225.97428933 17.04492188 225.63110352 C18.33775063 223.60403348 18.33775063 223.60403348 17.3515625 221.13525391 C16.97193359 220.09361084 16.59230469 219.05196777 16.20117188 217.97875977 C15.78270996 216.81940918 15.36424805 215.66005859 14.93310547 214.46557617 C14.47056202 213.2081841 14.00782996 211.95086139 13.54492188 210.69360352 C13.07765781 209.40786223 12.61102714 208.12189058 12.14501953 206.83569336 C10.7879531 203.09725927 9.41745859 199.36388544 8.04492188 195.63110352 C7.70299805 194.6979834 7.36107422 193.76486328 7.00878906 192.8034668 C5.594966 188.94544586 4.17445613 185.08995656 2.74804688 181.23657227 C-2.10482424 168.12307381 -6.85382431 154.98192395 -11.39257812 141.75610352 C-14.46691295 132.82573339 -17.61672405 123.92719489 -20.89257812 115.06860352 C-21.27019287 114.03300293 -21.64780762 112.99740234 -22.03686523 111.93041992 C-22.39014893 110.98473145 -22.74343262 110.03904297 -23.10742188 109.06469727 C-23.57136353 107.81257446 -23.57136353 107.81257446 -24.04467773 106.53515625 C-24.80122252 104.4521899 -24.80122252 104.4521899 -26.95507812 103.63110352 Z M-174.95507812 285.63110352 C-185.05378631 297.92596571 -188.81153712 307.80308256 -187.95507812 323.63110352 C-186.22250503 335.15271458 -176.96167467 344.90361524 -167.95507812 351.63110352 C-157.65402296 359.22805857 -157.65402296 359.22805857 -145.95507812 362.63110352 C-144.78281975 360.19617322 -143.61743825 357.75825862 -142.45507812 355.31860352 C-142.14054687 354.66698242 -141.82601562 354.01536133 -141.50195312 353.34399414 C-134.47260921 338.54181802 -128.52891023 323.21892077 -122.52783203 307.97973633 C-121.45800419 305.26353256 -120.38453118 302.54879113 -119.31054688 299.83422852 C-115.68020247 290.64520369 -112.08893983 281.44121994 -108.54882812 272.21704102 C-108.21685425 271.35768951 -107.88488037 270.49833801 -107.54284668 269.61294556 C-105.77946801 264.99553932 -104.23158335 260.4067443 -102.95507812 255.63110352 C-127.56276941 254.70075602 -158.18238305 268.04632264 -174.95507812 285.63110352 Z " fill="#BA4356" transform="translate(297.955078125,55.368896484375)"/>
<path d="M0 0 C1.22324285 3.49139131 0.7763897 5.42781045 -0.51171875 8.8515625 C-0.85783203 9.78613281 -1.20394531 10.72070312 -1.56054688 11.68359375 C-2.11838867 13.13958984 -2.11838867 13.13958984 -2.6875 14.625 C-3.04005859 15.57246094 -3.39261719 16.51992188 -3.75585938 17.49609375 C-5.38928541 21.86185036 -7.07370859 26.20338835 -8.82421875 30.5234375 C-11.73256184 37.74823872 -14.41530192 45.05996561 -17.13806152 52.35614014 C-21.98743462 65.34688189 -26.86333156 78.32564779 -31.86523438 91.25854492 C-37.31984957 105.38241785 -42.67555611 119.54413869 -48.04980469 133.69873047 C-48.4418811 134.73128967 -48.83395752 135.76384888 -49.23791504 136.82769775 C-50.02067419 138.8895593 -50.8031459 140.95152999 -51.58532715 143.01361084 C-53.43383522 147.88511658 -55.28738469 152.75454159 -57.15527344 157.61865234 C-60.1903213 165.52981972 -63.19309051 173.44170126 -65.9765625 181.4453125 C-69.20506713 190.72140359 -72.72824641 199.87978102 -76.27636719 209.03759766 C-77.37050621 211.86339405 -78.45892361 214.6913477 -79.546875 217.51953125 C-84.14808863 229.44166962 -88.96934029 241.25273893 -94 253 C-105.08908571 254.38253162 -116.11019218 253.90009908 -127.25 253.5625 C-129.1705562 253.50916022 -131.09112918 253.45642109 -133.01171875 253.40429688 C-137.67470145 253.27645349 -142.3373819 253.1404902 -147 253 C-147.3417627 251.96166016 -147.3417627 251.96166016 -147.69042969 250.90234375 C-150.44933602 242.56797596 -153.32663726 234.27776179 -156.25 226 C-156.62750397 224.92934799 -156.62750397 224.92934799 -157.01263428 223.83706665 C-161.62857056 210.75488444 -166.36688584 197.71851968 -171.125 184.6875 C-176.91512511 168.82970063 -182.55057084 152.93317402 -187.99316406 136.95263672 C-191.85460256 125.62862189 -195.85487494 114.36261811 -200.00097656 103.13964844 C-204.02720224 92.24068224 -207.99232053 81.32962481 -211.6875 70.3125 C-212.02644287 69.30928711 -212.36538574 68.30607422 -212.71459961 67.27246094 C-213.17104858 65.89429199 -213.17104858 65.89429199 -213.63671875 64.48828125 C-213.90186279 63.68946533 -214.16700684 62.89064941 -214.44018555 62.06762695 C-215 60 -215 60 -215 57 C-205.40322461 53.63898328 -195.69096215 51.07740362 -185.75 48.9375 C-184.65502197 48.68524658 -183.56004395 48.43299316 -182.43188477 48.1730957 C-181.39733154 47.95999756 -180.36277832 47.74689941 -179.296875 47.52734375 C-178.37229492 47.32874756 -177.44771484 47.13015137 -176.49511719 46.92553711 C-174 47 -174 47 -171.75073242 48.77758789 C-169.56377284 51.55375482 -168.65539369 54.1419045 -167.5625 57.5 C-166.15883686 61.76478837 -164.64523449 65.8932643 -162.8828125 70.0234375 C-158.70703444 79.93153944 -155.06484038 90.05111967 -151.3125 100.125 C-149.70861763 104.42246871 -148.10288417 108.71924279 -146.49609375 113.015625 C-145.91036591 114.58212296 -145.91036591 114.58212296 -145.31280518 116.18026733 C-141.82783337 125.48702168 -138.27349172 134.76551782 -134.6418457 144.01611328 C-134.10370239 145.39645752 -134.10370239 145.39645752 -133.5546875 146.8046875 C-133.25030762 147.57796387 -132.94592773 148.35124023 -132.63232422 149.14794922 C-132 151 -132 151 -132 153 C-127.92299075 154.12437693 -127.92299075 154.12437693 -124.0625 152.9375 C-122.48747943 150.06540366 -123.32492057 148.15733843 -124 145 C-124.63072897 143.03051953 -125.31342109 141.07714686 -126.0390625 139.140625 C-126.45075684 138.03501221 -126.86245117 136.92939941 -127.28662109 135.7902832 C-127.72828613 134.62198975 -128.16995117 133.45369629 -128.625 132.25 C-129.08084473 131.03207764 -129.53668945 129.81415527 -130.00634766 128.55932617 C-132.67715646 121.4432929 -135.39566616 114.34735131 -138.17651367 107.27368164 C-141.72138347 98.22383758 -145.10112324 89.1107006 -148.49829102 80.00463867 C-150.82618277 73.76904867 -153.1656239 67.5403574 -155.5859375 61.33984375 C-156.15646851 59.87285034 -156.15646851 59.87285034 -156.73852539 58.3762207 C-157.43695038 56.58705242 -158.14154112 54.8002746 -158.85327148 53.01635742 C-159.62610885 51.03226789 -160.32214104 49.01851334 -161 47 C-160.505 46.01 -160.505 46.01 -160 45 C-158.08569336 44.58935547 -158.08569336 44.58935547 -155.58984375 44.3671875 C-154.68169922 44.28339844 -153.77355469 44.19960938 -152.83789062 44.11328125 C-151.88076172 44.03464844 -150.92363281 43.95601563 -149.9375 43.875 C-149.00744141 43.78863281 -148.07738281 43.70226562 -147.11914062 43.61328125 C-141.71946817 43.13516549 -136.41918605 42.96607821 -131 43 C-126.66225673 53.50237228 -122.78203758 64.11396551 -119.07870483 74.85418701 C-114.5923218 87.85875241 -110.02350082 100.81527459 -105.12182617 113.66967773 C-102.03458102 121.80328446 -99.2010695 130.01554046 -96.39135742 138.24853516 C-93.3915851 146.99253833 -90.17734645 155.64487776 -86.83007812 164.26171875 C-85.07574103 168.83631928 -83.52737994 173.08877432 -83 178 C-79.50396505 175.28949706 -78.58328226 171.52425513 -77.26171875 167.484375 C-76.73578962 165.93739165 -76.20754845 164.3911928 -75.67724609 162.84570312 C-75.40313904 162.04495361 -75.12903198 161.2442041 -74.84661865 160.41918945 C-73.48373584 156.5247894 -72.00718316 152.67626852 -70.51953125 148.828125 C-70.22121902 148.05509537 -69.9229068 147.28206573 -69.61555481 146.48561096 C-68.99942822 144.89186179 -68.38243872 143.29844596 -67.76461792 141.70535278 C-66.11656541 137.45530115 -64.47687613 133.2020209 -62.8359375 128.94921875 C-62.50897385 128.10246078 -62.18201019 127.25570282 -61.84513855 126.38328552 C-57.172917 114.27721649 -52.58370014 102.13982248 -48 90 C-47.45966457 88.57290563 -46.91930433 87.14582065 -46.37890625 85.71875 C-44.09761527 79.66977448 -41.85531855 73.60913878 -39.65234375 67.53125 C-34.85380633 54.31230413 -29.97106594 41.12979445 -24.86233521 28.02706909 C-24.29022575 26.55783079 -23.72076009 25.08756011 -23.15402222 23.61624146 C-22.36070396 21.55993217 -21.55694673 19.50802419 -20.75 17.45703125 C-20.29109375 16.28116455 -19.8321875 15.10529785 -19.359375 13.89379883 C-17.44252978 9.81327326 -15.35940511 8.00789497 -11.42578125 5.95703125 C-10.42514648 5.43012695 -10.42514648 5.43012695 -9.40429688 4.89257812 C-8.71400391 4.53615234 -8.02371094 4.17972656 -7.3125 3.8125 C-6.61060547 3.44447266 -5.90871094 3.07644531 -5.18554688 2.69726562 C-3.45962365 1.7932106 -1.73015281 0.89593399 0 0 Z " fill="#153045" transform="translate(552,282)"/>
<path d="M0 0 C9.57 0 19.14 0 29 0 C29.0154612 3.08404427 29.0154612 3.08404427 29.03123474 6.23039246 C29.12870539 25.58059943 29.23154166 44.93077255 29.33933926 64.2809248 C29.39463321 74.22967038 29.44810894 84.17841955 29.49731445 94.12719727 C29.54020316 102.79786022 29.58649299 111.46849717 29.63687855 120.13911992 C29.66344171 124.73074574 29.68829384 129.32236652 29.70907402 133.91402245 C29.72868498 138.23545393 29.75284205 142.55683611 29.78049088 146.87822342 C29.78983771 148.46448304 29.79752145 150.05075346 29.80341911 151.63702965 C29.81172064 153.80297013 29.82600841 155.96879223 29.84178162 158.13468933 C29.84823417 159.34684711 29.85468672 160.55900488 29.8613348 161.80789471 C29.98524412 164.66031614 30.34390816 167.22774742 31 170 C33.97 170.99 33.97 170.99 37 172 C37 179.59 37 187.18 37 195 C31.43152699 197.7842365 21.2117741 196.83587897 15.23828125 195.28125 C10.05328793 192.83195792 7.04948389 189.43038374 4.8125 184.25 C3.79694703 180.18778813 3.35180021 176.16605508 3 172 C2.46632813 172.71285156 1.93265625 173.42570313 1.3828125 174.16015625 C-10.00468411 188.79840881 -23.77086801 195.41870689 -42 198 C-57.67994193 199.68576695 -74.17933193 194.14447938 -86.4296875 184.3828125 C-101.9376143 171.15553276 -111.00720388 152.53001496 -112.72875977 132.29467773 C-114.19703023 109.25582284 -107.79371487 88.26540658 -92.640625 70.73046875 C-82.10896155 59.84047947 -67.48079186 53.09317621 -52.36767578 52.64624023 C-44.52548744 52.57588858 -37.36124989 53.06446351 -30 56 C-29.03964844 56.37898438 -28.07929687 56.75796875 -27.08984375 57.1484375 C-15.81829988 62.18063644 -8.13235536 70.0147025 -1 80 C-0.67 53.6 -0.34 27.2 0 0 Z M-70.44140625 92.09765625 C-77.23215047 100.38610847 -81.32467336 111.36360542 -82 122 C-82.09474609 123.0828125 -82.09474609 123.0828125 -82.19140625 124.1875 C-82.81681861 136.45365209 -78.69028012 148.51278313 -71 158 C-63.49114195 166.27535774 -54.07099535 171.38535491 -42.87109375 172.23828125 C-30.0768134 172.51483566 -19.72968179 169.55032642 -10 161 C-7.70184095 158.48805871 -5.75089766 155.91816276 -4 153 C-3.23429688 151.73506714 -3.23429688 151.73506714 -2.453125 150.44458008 C-0.61640507 146.09070214 -0.51479978 142.47264882 -0.49609375 137.796875 C-0.48610855 136.91904358 -0.47612335 136.04121216 -0.46583557 135.13677979 C-0.45069636 133.28443082 -0.44360848 131.43200061 -0.4440918 129.57958984 C-0.43755058 126.77170992 -0.38308562 123.96740823 -0.32617188 121.16015625 C-0.23354208 111.40418426 -0.24841599 103.69900909 -7 96 C-7.70382812 95.10925781 -8.40765625 94.21851563 -9.1328125 93.30078125 C-18.10207509 84.34910545 -28.04497396 78.20548242 -40.875 77.6875 C-52.79100518 77.99771759 -62.35975753 83.56806395 -70.44140625 92.09765625 Z " fill="#253D51" transform="translate(986,60)"/>
<path d="M0 0 C1.16781006 0.00523682 2.33562012 0.01047363 3.53881836 0.01586914 C4.79887695 0.0190918 6.05893555 0.02231445 7.35717773 0.02563477 C8.6976732 0.03399136 10.03816799 0.04245632 11.37866211 0.05102539 C12.72306153 0.05603879 14.06746271 0.06060197 15.41186523 0.06469727 C18.71334151 0.07653051 22.01473014 0.09301568 25.31616211 0.11352539 C28.27552854 5.81743259 30.75233046 11.54698569 33.01147461 17.55883789 C33.52838615 18.91788239 33.52838615 18.91788239 34.05574036 20.30438232 C34.79878447 22.25864989 35.54006753 24.21358777 36.27975464 26.16912842 C38.28624757 31.47193857 40.30740193 36.7691567 42.32788086 42.06665039 C42.74334671 43.15666351 43.15881256 44.24667664 43.58686829 45.36972046 C47.74594298 56.26752419 51.99095588 67.13092428 56.25366211 77.98852539 C57.74886815 81.79956086 59.24360962 85.61077831 60.73803711 89.42211914 C61.11098404 90.37322067 61.48393097 91.3243222 61.86817932 92.304245 C69.41042272 111.55076154 76.86222389 130.83267718 84.31616211 150.11352539 C84.69546875 151.09444153 85.07477539 152.07535767 85.46557617 153.08599854 C87.64708343 158.72827332 89.82634155 164.37140762 92.00210571 170.01589966 C92.66546336 171.7363768 93.32933593 173.45665549 93.9937439 175.17672729 C94.89845069 177.51960742 95.80100198 179.8633055 96.70288086 182.20727539 C96.97060303 182.89946671 97.2383252 183.59165802 97.51416016 184.30482483 C99.31616211 188.99901418 99.31616211 188.99901418 99.31616211 190.11352539 C88.75616211 190.11352539 78.19616211 190.11352539 67.31616211 190.11352539 C65.95620117 186.59954102 64.59624023 183.08555664 63.19506836 179.46508789 C61.88141919 176.07274448 60.56743505 172.68053099 59.25341797 169.28833008 C58.33835343 166.92551025 57.42363876 164.5625549 56.50927734 162.19946289 C55.19712178 158.8084831 53.88372058 155.41798812 52.57006836 152.02758789 C52.15962784 150.96609528 51.74918732 149.90460266 51.3263092 148.8109436 C50.94599045 147.83007782 50.56567169 146.84921204 50.17382812 145.83862305 C49.83851578 144.97258453 49.50320343 144.10654602 49.1577301 143.21426392 C48.34624919 141.10492859 48.34624919 141.10492859 47.31616211 139.11352539 C23.22616211 138.78352539 -0.86383789 138.45352539 -25.68383789 138.11352539 C-26.67383789 141.41352539 -27.66383789 144.71352539 -28.68383789 148.11352539 C-29.83276402 151.26507757 -31.00262216 154.39286459 -32.22290039 157.51586914 C-32.54922455 158.3602504 -32.87554871 159.20463165 -33.21176147 160.07460022 C-34.24059846 162.7347889 -35.27451668 165.39296489 -36.30883789 168.05102539 C-37.34921269 170.73448981 -38.3885355 173.41835867 -39.42733765 176.10243225 C-40.07057814 177.76338971 -40.71492314 179.42391996 -41.36050415 181.08396912 C-41.65105682 181.83227493 -41.9416095 182.58058075 -42.2409668 183.3515625 C-42.49617096 184.00756943 -42.75137512 184.66357635 -43.01431274 185.33946228 C-43.60956885 186.91673223 -44.15072343 188.514182 -44.68383789 190.11352539 C-55.24383789 190.11352539 -65.80383789 190.11352539 -76.68383789 190.11352539 C-74.69026541 183.46828379 -72.63412419 177.10748314 -70.08618164 170.69165039 C-69.74011368 169.81055603 -69.39404572 168.92946167 -69.03749084 168.02166748 C-67.90244377 165.13416029 -66.76186347 162.24887249 -65.62133789 159.36352539 C-64.81427222 157.31291138 -64.00763965 155.26212686 -63.20141602 153.21118164 C-61.52779687 148.95466103 -59.85232525 144.69887669 -58.17553711 140.44360352 C-54.69966984 131.61860271 -51.24651588 122.78473393 -47.79318237 113.95089722 C-45.92704552 109.17787657 -44.05927977 104.40549343 -42.19165039 99.63305664 C-41.82073776 98.68515762 -41.44982513 97.73725861 -41.06767273 96.76063538 C-38.79809614 90.96056528 -36.52808805 85.16066424 -34.25776672 79.36088562 C-33.11447333 76.44016579 -31.97129013 73.51940285 -30.828125 70.59863281 C-29.32931984 66.76921918 -27.83007496 62.93997809 -26.33056641 59.11083984 C-22.55223932 49.46010977 -18.78418655 39.80550431 -15.03149414 30.14477539 C-13.91842445 27.28207194 -12.80520085 24.41942838 -11.69195557 21.55679321 C-10.64092244 18.85143598 -9.592765 16.14497613 -8.54467773 13.43847656 C-7.91281861 11.81317815 -7.2808277 10.18793097 -6.64868164 8.56274414 C-6.36106461 7.81726318 -6.07344757 7.07178223 -5.77711487 6.30371094 C-3.374676 0.1427476 -3.374676 0.1427476 0 0 Z M10.31616211 35.11352539 C9.90479004 36.22236084 9.49341797 37.33119629 9.06958008 38.47363281 C7.1115695 43.74997374 5.15166455 49.0256099 3.19116211 54.30102539 C2.83489746 55.25982605 2.47863281 56.21862671 2.11157227 57.20648193 C-3.70119229 72.84442238 -9.57531907 88.45819299 -15.51635742 104.04785156 C-15.79899445 104.79128311 -16.08163147 105.53471466 -16.37283325 106.30067444 C-16.8998003 107.68674153 -17.42810673 109.07230041 -17.95797729 110.45726013 C-19.17120355 113.20918462 -19.17120355 113.20918462 -19.68383789 116.11352539 C0.44616211 116.11352539 20.57616211 116.11352539 41.31616211 116.11352539 C38.98069619 108.23887552 38.98069619 108.23887552 36.3425293 100.50634766 C35.98495544 99.52735001 35.62738159 98.54835236 35.25897217 97.53968811 C34.8808136 96.51346848 34.50265503 95.48724884 34.11303711 94.42993164 C33.51171967 92.78745705 33.51171967 92.78745705 32.89825439 91.11180115 C31.62361279 87.63220399 30.34494828 84.15410122 29.06616211 80.67602539 C28.22345061 78.37729388 27.3810006 76.07846649 26.53881836 73.77954102 C21.81302501 60.88532112 17.06819538 47.99809547 12.31616211 35.11352539 C11.65616211 35.11352539 10.99616211 35.11352539 10.31616211 35.11352539 Z " fill="#253D50" transform="translate(765.683837890625,64.886474609375)"/>
<path d="M0 0 C7.51298329 6.73194216 12.9094677 14.02872494 17.31640625 23.09106445 C14.55756956 25.12869485 11.78259606 27.14311386 9.00390625 29.15356445 C8.21822266 29.73428711 7.43253906 30.31500977 6.62304688 30.91333008 C5.86572266 31.45795898 5.10839844 32.00258789 4.328125 32.5637207 C3.63162842 33.07169189 2.93513184 33.57966309 2.2175293 34.10302734 C1.59015869 34.42907959 0.96278809 34.75513184 0.31640625 35.09106445 C-3.53615853 33.80687619 -3.91839457 32.42203688 -5.93359375 28.96606445 C-13.31996358 17.1142288 -24.22762655 9.64116737 -37.62109375 5.5637207 C-51.15393109 2.46244548 -65.82821462 2.69105781 -78.68359375 8.09106445 C-79.42609375 8.39141602 -80.16859375 8.69176758 -80.93359375 9.0012207 C-94.49326388 15.1189625 -104.44384739 26.88390451 -110.68359375 40.09106445 C-111.13605469 41.02692383 -111.58851563 41.9627832 -112.0546875 42.92700195 C-121.51492698 63.86865968 -121.02961438 87.39438755 -113.43359375 108.77856445 C-106.63234479 125.45781785 -94.59787745 139.19020854 -78.1015625 146.7277832 C-62.22525197 152.94645029 -44.50588222 153.47446801 -28.61328125 146.80200195 C-21.94092028 143.67485533 -16.25918525 139.88305931 -10.68359375 135.09106445 C-9.87535156 134.40399414 -9.06710937 133.71692383 -8.234375 133.0090332 C-1.52123832 127.67627614 -1.52123832 127.67627614 1.7487793 120.15844727 C1.77496338 119.04824219 1.80114746 117.93803711 1.828125 116.79418945 C1.87779419 115.16465332 1.87779419 115.16465332 1.9284668 113.50219727 C1.95336182 112.12902344 1.97825684 110.75584961 2.00390625 109.34106445 C2.15859375 102.78231445 2.15859375 102.78231445 2.31640625 96.09106445 C-11.21359375 96.09106445 -24.74359375 96.09106445 -38.68359375 96.09106445 C-38.68359375 90.15106445 -38.68359375 84.21106445 -38.68359375 78.09106445 C-18.55359375 78.09106445 1.57640625 78.09106445 22.31640625 78.09106445 C22.31640625 109.44106445 22.31640625 140.79106445 22.31640625 173.09106445 C16.04640625 173.09106445 9.77640625 173.09106445 3.31640625 173.09106445 C1.60197406 171.37663227 2.08587658 169.08661204 2 166.7434082 C1.9371582 165.12402344 1.9371582 165.12402344 1.87304688 163.47192383 C1.83373047 162.33561523 1.79441406 161.19930664 1.75390625 160.02856445 C1.68913086 158.31830078 1.68913086 158.31830078 1.62304688 156.57348633 C1.51657786 153.7461425 1.41456418 150.91870707 1.31640625 148.09106445 C0.56230469 148.84774414 -0.19179688 149.60442383 -0.96875 150.3840332 C-16.09243821 165.4642 -33.92471521 173.72681451 -55.43359375 174.40356445 C-77.59015361 173.87880382 -98.6589622 165.24436235 -114.38671875 149.37231445 C-116.1839546 147.30277014 -117.9445999 145.20991868 -119.68359375 143.09106445 C-120.39902344 142.22481445 -121.11445312 141.35856445 -121.8515625 140.46606445 C-139.29093336 118.37419362 -146.18881608 91.64971982 -143.45654297 63.7746582 C-140.2076336 38.51682308 -127.16048559 14.30233622 -107.12109375 -1.53393555 C-75.47383155 -24.22518319 -30.32533004 -26.24848725 0 0 Z " fill="#B74355" transform="translate(835.68359375,345.908935546875)"/>
<path d="M0 0 C10.56 0 21.12 0 32 0 C44.95764642 34.50407764 57.86307433 69.02745534 70.73513794 103.5635376 C73.3069408 110.46317646 75.88194398 117.36159998 78.46369934 124.25752258 C79.72209673 127.61947595 80.97822281 130.98227433 82.23373413 134.3453064 C82.77980467 135.80620646 83.32699843 137.26668723 83.87539673 138.72671509 C84.59821712 140.65135864 85.31684792 142.57757418 86.03515625 144.50390625 C86.4206665 145.53330322 86.80617676 146.5627002 87.20336914 147.62329102 C88 150 88 150 88 152 C88.66 152 89.32 152 90 152 C90.35707031 150.73027344 90.71414063 149.46054688 91.08203125 148.15234375 C93.58331263 139.82979249 96.68331573 131.7131788 99.6875 123.5625 C100.35569043 121.74337835 101.02373757 119.92420406 101.69165039 118.10498047 C108.05217159 100.79743979 114.48359011 83.51620965 120.92921448 66.24021912 C123.41241689 59.58229456 125.88548105 52.92064933 128.35546875 46.2578125 C129.43200593 43.3561314 130.50871085 40.45451261 131.58547974 37.55291748 C132.26603086 35.71790888 132.94596611 33.88267172 133.62521362 32.04718018 C137.60262593 21.30066335 141.69620543 10.62044076 146 0 C156.56 0 167.12 0 178 0 C171.36176719 17.93487461 164.40348275 35.72401935 157.36080933 53.50236511 C152.65481852 65.38826781 147.98527372 77.28850986 143.3125 89.1875 C142.3745983 91.57519735 141.43669138 93.96289266 140.4987793 96.35058594 C135.80313067 108.30612217 131.11181674 120.26334883 126.42578125 132.22265625 C125.97646744 133.3691716 125.52715363 134.51568695 125.06422424 135.69694519 C122.94072897 141.11555182 120.817895 146.53441518 118.6965332 151.95385742 C114.98138604 161.44051501 111.25391622 170.92233113 107.4921875 180.390625 C106.9849968 181.67498444 106.9849968 181.67498444 106.46755981 182.98529053 C104.11558648 188.88441352 104.11558648 188.88441352 103 190 C100.92737924 190.08767112 98.85179706 190.10695873 96.77734375 190.09765625 C95.51728516 190.09443359 94.25722656 190.09121094 92.95898438 190.08789062 C91.61848891 190.07953403 90.27799412 190.07106907 88.9375 190.0625 C87.59310058 190.0574866 86.2486994 190.05292342 84.90429688 190.04882812 C81.60282059 190.03699488 78.30143197 190.02050971 75 190 C71.84439681 183.9303369 69.2304882 177.77505081 66.76171875 171.3984375 C66.16598305 169.87361 66.16598305 169.87361 65.55821228 168.31797791 C64.26459766 165.00495824 62.97611413 161.68996742 61.6875 158.375 C60.78022975 156.0495498 59.87251011 153.72427488 58.96435547 151.39916992 C57.59332178 147.88890455 56.22251807 144.378552 54.85308838 140.86766052 C51.13618408 131.339001 47.38828539 121.822916 43.625 112.3125 C39.29353691 101.36005587 34.97733772 90.40172777 30.67578125 79.4375 C30.20808319 78.2455452 29.74038513 77.05359039 29.2585144 75.82551575 C25.36037205 65.89071355 25.36037205 65.89071355 23.50854492 61.16903687 C18.86631661 49.33477455 14.21954325 37.50291226 9.48046875 25.70703125 C9.14367599 24.86846085 8.80688324 24.02989044 8.45988464 23.16590881 C6.93219812 19.36575918 5.39941862 15.5677642 3.85913086 11.77270508 C3.33574567 10.47608595 2.81238757 9.17945589 2.2890625 7.8828125 C1.84256348 6.78340332 1.39606445 5.68399414 0.93603516 4.55126953 C0 2 0 2 0 0 Z " fill="#243C50" transform="translate(1034,65)"/>
<path d="M0 0 C16.94452837 13.06801037 27.325082 29.72905186 30.1015625 51.12890625 C30.66195139 57.65343404 30.96927707 63.93539171 29.375 70.3125 C-7.585 70.3125 -44.545 70.3125 -82.625 70.3125 C-78.55617386 86.58780457 -75.44618955 96.37929212 -61.625 105.3125 C-51.14730224 110.94426254 -38.81855052 112.319114 -27.25 109.1875 C-16.86431488 105.43468941 -9.70355644 99.43033465 -3.625 90.3125 C4.8212681 92.35411327 13.18195561 94.38641272 21.375 97.3125 C15.01544769 112.24362282 2.11993824 121.72199375 -12.421875 128.0625 C-31.24050541 135.40635577 -51.79207429 135.35387537 -70.6875 128.1875 C-89.79788074 119.67701044 -103.12768485 104.71590366 -110.625 85.3125 C-113.18342346 77.18070527 -114.14607685 69.50294997 -114.0625 61 C-114.05492676 59.90985596 -114.04735352 58.81971191 -114.03955078 57.6965332 C-113.65930946 38.99393344 -106.89455189 23.37201742 -94.1875 9.6875 C-93.341875 8.90375 -92.49625 8.12 -91.625 7.3125 C-90.85349609 6.53326172 -90.85349609 6.53326172 -90.06640625 5.73828125 C-81.2575257 -2.69172271 -69.55472198 -8.3998671 -57.625 -10.6875 C-56.72910156 -10.86925781 -55.83320312 -11.05101563 -54.91015625 -11.23828125 C-35.85591117 -13.84379633 -16.01103448 -11.13811094 0 0 Z M-73.375 24 C-80.00842362 32.09554716 -81.75141992 40.00780958 -83.625 50.3125 C-55.905 50.3125 -28.185 50.3125 0.375 50.3125 C-0.83769796 38.1855204 -4.29922207 28.23070014 -13.53125 19.921875 C-32.04590754 5.69045913 -57.08931036 6.87375864 -73.375 24 Z " fill="#253D51" transform="translate(1333.625,124.6875)"/>
<path d="M0 0 C15.76198369 12.12647971 26.878466 28.76550651 30.23046875 48.61621094 C33.00706192 70.65310541 28.87154304 92.87589794 15.5234375 110.94140625 C10.2797078 117.56809763 4.87691764 122.75639152 -2.4765625 126.94140625 C-3.12238281 127.31910156 -3.76820312 127.69679688 -4.43359375 128.0859375 C-16.92946876 134.88104672 -32.48543401 136.17132727 -46.2890625 132.87890625 C-62.06799398 127.57855311 -72.78379649 119.51127866 -82.4765625 105.94140625 C-82.8065625 133.33140625 -83.1365625 160.72140625 -83.4765625 188.94140625 C-91.0665625 188.94140625 -98.6565625 188.94140625 -106.4765625 188.94140625 C-106.4765625 123.93140625 -106.4765625 58.92140625 -106.4765625 -8.05859375 C-99.8765625 -8.05859375 -93.2765625 -8.05859375 -86.4765625 -8.05859375 C-86.1465625 0.19140625 -85.8165625 8.44140625 -85.4765625 16.94140625 C-83.1665625 13.97140625 -80.8565625 11.00140625 -78.4765625 7.94140625 C-58.75366429 -13.81441275 -23.72561585 -16.49393414 0 0 Z M-76.37109375 26.20703125 C-84.04124749 36.16826988 -84.32085863 45.19500796 -84.23828125 57.40820312 C-84.2266115 60.30424585 -84.2789142 63.19443667 -84.3359375 66.08984375 C-84.41559887 77.26762661 -83.66563967 84.95337987 -76.4765625 93.94140625 C-75.89060303 94.71564941 -75.30464355 95.48989258 -74.70092773 96.28759766 C-67.58452054 105.39252912 -56.79479673 111.7069947 -45.4765625 113.94140625 C-31.66737625 115.02692218 -21.16777593 112.3254394 -10.3046875 103.609375 C0.7130654 93.21555562 6.9194512 79.10336969 7.58984375 63.96875 C7.22050518 47.13125644 1.59118109 32.48219126 -10.6015625 20.69140625 C-21.22458574 11.67737792 -33.01612893 9.14130806 -46.49365234 9.76220703 C-58.02817202 10.80460268 -68.33082071 18.42320219 -76.37109375 26.20703125 Z " fill="#B74254" transform="translate(1405.4765625,387.05859375)"/>
<path d="M0 0 C11.30268579 9.71013515 14.40926901 24.57853792 15.53686523 38.77783203 C16.18837308 48.29237536 16.12085256 57.79949731 16.09375 67.33203125 C16.09188051 69.28500329 16.09045912 71.23797581 16.08946228 73.19094849 C16.08567884 78.28384744 16.07588515 83.376717 16.0647583 88.46960449 C16.05445351 93.68546145 16.0499454 98.90132325 16.04492188 104.1171875 C16.03425833 114.31642111 16.01669631 124.51562537 15.99609375 134.71484375 C6.09609375 134.71484375 -3.80390625 134.71484375 -14.00390625 134.71484375 C-14.01848877 132.05131836 -14.03307129 129.38779297 -14.0480957 126.64355469 C-14.09861355 117.80657577 -14.1652383 108.96976989 -14.23962116 100.13296127 C-14.28419608 94.77941161 -14.32348015 89.42593579 -14.3503418 84.07226562 C-14.37650378 78.89793934 -14.41699607 73.72389922 -14.46709251 68.54975128 C-14.48367446 66.58361645 -14.49524238 64.61743222 -14.50152016 62.65123749 C-14.24554484 41.64520204 -14.24554484 41.64520204 -24.00390625 23.71484375 C-30.27742494 19.12173185 -37.489078 18.77188195 -45.00390625 19.71484375 C-52.60068559 21.53971112 -58.78987934 25.0756881 -65.00390625 29.71484375 C-66.03515625 30.43671875 -67.06640625 31.15859375 -68.12890625 31.90234375 C-73.92494425 36.88887924 -77.98947177 44.43671329 -80.00390625 51.71484375 C-80.20518934 54.5139471 -80.3147428 57.21690758 -80.32275391 60.01513672 C-80.33279953 60.82555923 -80.34284515 61.63598175 -80.35319519 62.47096252 C-80.38393142 65.13297863 -80.40103558 67.79489461 -80.41796875 70.45703125 C-80.4366881 72.30934505 -80.45626208 74.16165039 -80.47665405 76.01394653 C-80.52790022 80.87673956 -80.56756613 85.7395602 -80.60479736 90.60247803 C-80.64488417 95.56968985 -80.69595516 100.53678751 -80.74609375 105.50390625 C-80.84276412 115.24081305 -80.92618152 124.97776727 -81.00390625 134.71484375 C-90.57390625 134.71484375 -100.14390625 134.71484375 -110.00390625 134.71484375 C-110.00390625 88.51484375 -110.00390625 42.31484375 -110.00390625 -5.28515625 C-101.09390625 -5.28515625 -92.18390625 -5.28515625 -83.00390625 -5.28515625 C-82.67390625 3.29484375 -82.34390625 11.87484375 -82.00390625 20.71484375 C-80.02390625 18.07484375 -78.04390625 15.43484375 -76.00390625 12.71484375 C-58.60385119 -6.38350436 -22.36853868 -16.30790075 0 0 Z " fill="#243C50" transform="translate(1495.00390625,120.28515625)"/>
<path d="M0 0 C9.57 0 19.14 0 29 0 C29.01981934 2.36994141 29.03963867 4.73988281 29.06005859 7.18164062 C29.12741199 15.07260691 29.20504048 22.96344909 29.28752708 30.85427094 C29.33715814 35.63149702 29.38348675 40.40870445 29.421875 45.18603516 C29.45915255 49.80920333 29.50561803 54.43220147 29.55806351 59.05522156 C29.57638482 60.80593335 29.59157177 62.55668126 29.60334396 64.30744934 C29.55734592 88.02816413 29.55734592 88.02816413 37.75 109.875 C42.83006683 114.6728409 48.95712951 116.92402659 55.91015625 117.0546875 C67.89865564 116.37132818 78.37347617 112.57685094 87 104 C89.59584492 100.81212027 91.8941683 97.52972308 94 94 C94.51718094 93.13853363 95.03436188 92.27706726 95.56721497 91.38949585 C97.35110031 87.1694127 97.4404832 83.76909082 97.43237305 79.24072266 C97.4425647 78.38153229 97.45275635 77.52234192 97.46325684 76.63711548 C97.49331893 73.81269757 97.50264239 70.9886192 97.51171875 68.1640625 C97.52857046 66.19964476 97.54672137 64.23523778 97.56611633 62.27084351 C97.61356889 57.11211506 97.64340901 51.95343022 97.66955566 46.79455566 C97.69938506 41.52570996 97.74590725 36.25701438 97.79101562 30.98828125 C97.87699496 20.65891553 97.94282062 10.32956534 98 0 C107.57 0 117.14 0 127 0 C127.02505615 3.34680908 127.0501123 6.69361816 127.07592773 10.1418457 C127.15928934 21.18205812 127.24798963 32.22222295 127.33933926 43.26237202 C127.3945762 49.95801971 127.44811833 56.6536703 127.49731445 63.34936523 C127.54494653 69.80733809 127.59728903 76.26525696 127.65294075 82.72316551 C127.67336953 85.19078418 127.69208173 87.65841767 127.70907402 90.12606239 C127.73310633 93.57408646 127.7631627 97.02200807 127.79467773 100.4699707 C127.8004332 101.49711685 127.80618866 102.524263 127.81211853 103.58253479 C127.82190735 104.52062988 127.83169617 105.45872498 127.84178162 106.42524719 C127.84823417 107.24103398 127.85468672 108.05682077 127.8613348 108.89732838 C127.92362062 111.1927202 127.92362062 111.1927202 129 114 C130.98 114.99 132.96 115.98 135 117 C135 124.59 135 132.18 135 140 C131.65224754 141.67387623 127.92753953 141.22672443 124.25 141.25 C123.05117187 141.2809375 123.05117187 141.2809375 121.828125 141.3125 C116.7845981 141.3456811 113.36877095 140.78969711 109 138 C102.03588128 131.03588128 101.6432422 123.36086679 101 114 C100.42894531 114.76183594 99.85789062 115.52367187 99.26953125 116.30859375 C87.16990326 131.71686405 71.4847885 140.25596319 52 143 C38.81644734 144.05065431 26.69130716 142.16697075 16 134 C5.0034525 124.20619988 1.31251795 109.17912909 0 95 C-0.12875401 91.78934005 -0.12696393 88.58397826 -0.11352539 85.37109375 C-0.11367142 84.44333633 -0.11381744 83.51557892 -0.1139679 82.55970764 C-0.11327593 79.51894727 -0.1055173 76.47824956 -0.09765625 73.4375 C-0.09578952 71.31901076 -0.09436682 69.20052108 -0.09336853 67.08203125 C-0.08956341 61.52543939 -0.07975035 55.96887395 -0.06866455 50.41229248 C-0.05840721 44.73450071 -0.05386167 39.05670463 -0.04882812 33.37890625 C-0.03812618 22.25259073 -0.02054573 11.1263017 0 0 Z " fill="#233B4F" transform="translate(1636,115)"/>
<path d="M0 0 C0.79921875 0.00902344 1.5984375 0.01804687 2.421875 0.02734375 C3.02515625 0.03894531 3.6284375 0.05054688 4.25 0.0625 C4.41769093 4.22184084 4.0619876 7.28023341 2.51953125 11.140625 C2.13539063 12.11870117 1.75125 13.09677734 1.35546875 14.10449219 C0.92878906 15.16313477 0.50210938 16.22177734 0.0625 17.3125 C-0.85858613 19.65604836 -1.7791317 21.99980922 -2.69921875 24.34375 C-3.19810853 25.60558598 -3.69730103 26.86730232 -4.19677734 28.12890625 C-21.3003709 70.62196368 -21.3003709 70.62196368 -33.27832031 114.72998047 C-33.58413723 116.24228629 -33.90302459 117.75203065 -34.23730469 119.25830078 C-36.68955812 130.39962126 -37.05705062 141.50828833 -37.125 152.875 C-37.13294586 153.57274536 -37.14089172 154.27049072 -37.14907837 154.98937988 C-37.29253128 171.37531864 -35.1426697 189.71223057 -23.234375 202.0234375 C-15.25635379 208.57143604 -6.36489136 211.71885626 3.80078125 212.7734375 C6.25 213.0625 6.25 213.0625 7.25 214.0625 C7.25 218.0225 7.25 221.9825 7.25 226.0625 C-45.55 226.0625 -98.35 226.0625 -152.75 226.0625 C-152.75 222.1025 -152.75 218.1425 -152.75 214.0625 C-151.7084375 213.8665625 -150.666875 213.670625 -149.59375 213.46875 C-133.69613644 210.24696828 -120.73359148 204.18170127 -108.75 193.0625 C-108.04617187 192.41539062 -107.34234375 191.76828125 -106.6171875 191.1015625 C-91.50022729 176.57742426 -79.89548433 158.26943707 -69.75 140.0625 C-69.38922363 139.41539062 -69.02844727 138.76828125 -68.65673828 138.1015625 C-63.59282102 128.94962351 -59.04929356 119.59450169 -54.75 110.0625 C-54.43562988 109.36785645 -54.12125977 108.67321289 -53.79736328 107.95751953 C-45.82582425 90.30427057 -38.41939796 72.43240568 -31.32275391 54.41113281 C-30.25292607 51.69492904 -29.17945306 48.98018762 -28.10546875 46.265625 C-23.78803855 35.33549983 -19.56036188 24.3737874 -15.39648438 13.38427734 C-14.21256523 10.26379997 -13.00621493 7.15478221 -11.75 4.0625 C-11.09 4.0625 -10.43 4.0625 -9.75 4.0625 C-9.42 3.0725 -9.09 2.0825 -8.75 1.0625 C-5.8585914 -0.0569613 -3.07237388 -0.04518197 0 0 Z " fill="#163146" transform="translate(205.75,308.9375)"/>
<path d="M0 0 C0.66 0 1.32 0 2 0 C2.5559082 1.56282715 2.5559082 1.56282715 3.12304688 3.15722656 C10.65223064 24.31597713 18.23814322 45.45240663 25.9364624 66.55023193 C31.41524669 81.5716955 36.78963499 96.62827492 42.12542725 111.7010498 C46.8441904 125.02356087 51.65689106 138.30768554 56.5625 151.5625 C64.67911624 173.5187363 64.67911624 173.5187363 67.375 181.0625 C67.65545166 181.82957275 67.93590332 182.59664551 68.22485352 183.38696289 C69.51220007 187.03465827 70.31766047 190.1200043 70 194 C51.13166449 197.51707544 51.13166449 197.51707544 42 198 C40.7315625 198.07927734 40.7315625 198.07927734 39.4375 198.16015625 C33.45016607 198.38084324 33.45016607 198.38084324 31.47485352 196.7097168 C28.97777293 193.81498822 28.1157692 190.14194967 26.9375 186.5625 C26.32280188 184.75220058 25.70684268 182.94232904 25.08984375 181.1328125 C24.75710449 180.15086914 24.42436523 179.16892578 24.08154297 178.15722656 C22.10868341 172.39807988 20.0513803 166.66904725 18 160.9375 C17.56945312 159.73182373 17.13890625 158.52614746 16.6953125 157.28393555 C14.31585393 150.63239054 11.90185493 143.99550332 9.4375 137.375 C6.71480573 130.0604666 4.15668375 122.69513259 1.625 115.3125 C-2.67342559 102.78162263 -7.27664323 90.37624101 -12 78 C-15.73895498 86.74487195 -19.16229594 95.58420175 -22.5022583 104.48699951 C-24.03267705 108.56494095 -25.5710485 112.63988007 -27.109375 116.71484375 C-27.42834747 117.56000549 -27.74731995 118.40516724 -28.07595825 119.27593994 C-31.55671217 128.48930851 -35.08584789 137.68393302 -38.625 146.875 C-39.09013504 148.08310333 -39.09013504 148.08310333 -39.56466675 149.31561279 C-45.68915481 165.21837443 -51.83865043 181.11148729 -58 197 C-58.66 197 -59.32 197 -60 197 C-60 197.66 -60 198.32 -60 199 C-64.62 199 -69.24 199 -74 199 C-73.46943462 193.25494053 -72.31661037 188.4712167 -70.18359375 183.12890625 C-69.89572495 182.3864566 -69.60785614 181.64400696 -69.31126404 180.87905884 C-68.36191073 178.43676594 -67.39974764 175.99973809 -66.4375 173.5625 C-65.7616925 171.83081263 -65.08674149 170.09879079 -64.41259766 168.36645508 C-62.64044205 163.818635 -60.85772471 159.2750306 -59.0725708 154.7322998 C-57.34306949 150.32651503 -55.62263773 145.91719882 -53.90234375 141.5078125 C-53.23055248 139.78629466 -52.55875886 138.06477773 -51.88696289 136.34326172 C-51.5556839 135.49423279 -51.22440491 134.64520386 -50.88308716 133.77044678 C-49.86455096 131.16072719 -48.84530384 128.55128614 -47.82592773 125.94189453 C-36.32029794 96.48279518 -25.18256215 66.88871842 -14.09754181 37.2692585 C-13.07008962 34.52391158 -12.04228522 31.77869656 -11.01451111 29.03347015 C-10.30709583 27.14327803 -9.60037315 25.25282674 -8.89367676 23.36236572 C-5.97232669 15.55783507 -3.0048628 7.77274472 0 0 Z " fill="#193348" transform="translate(284,82)"/>
<path d="M0 0 C1.45513656 1.20823613 2.89262765 2.43801233 4.3125 3.6875 C5.06273437 4.33203125 5.81296875 4.9765625 6.5859375 5.640625 C20.5801575 18.53632261 27.17367483 37.25309538 28.27734375 55.875 C28.46005065 75.68854795 22.43916707 95.01162556 8.5546875 109.48046875 C7.81476563 110.20878906 7.07484375 110.93710937 6.3125 111.6875 C5.67570312 112.32300781 5.03890625 112.95851563 4.3828125 113.61328125 C-10.449352 127.49150985 -28.40407553 131.22504613 -48.015625 130.96484375 C-64.40056608 130.41704382 -78.56327079 123.43638034 -90.6875 112.6875 C-91.31269531 112.15640625 -91.93789063 111.6253125 -92.58203125 111.078125 C-104.52153999 100.18972425 -111.55599186 83.01456772 -112.90869141 67.08227539 C-113.80314986 46.64865747 -110.41483557 26.60755746 -96.65722656 10.65991211 C-71.66364621 -16.60147576 -30.42698074 -22.70199599 0 0 Z M-75.4375 21.25 C-87.13693227 35.02886457 -89.90014224 50.13420339 -88.6875 67.6875 C-86.78567094 81.78340948 -79.32020477 93.41538457 -68.53125 102.50390625 C-58.6330873 109.65855646 -47.68339121 112.11974057 -35.71875 110.21484375 C-23.38299995 107.56011404 -13.32704692 101.66922533 -6.00390625 91.3046875 C3.03992092 76.9157555 5.25291136 62.01063944 2.81640625 45.28125 C2.14608242 42.64540036 1.33712064 40.20549486 0.3125 37.6875 C-0.01621094 36.85347656 -0.34492187 36.01945312 -0.68359375 35.16015625 C-6.15062206 22.88298887 -16.315757 13.73339231 -28.51171875 8.44921875 C-45.76339878 2.40958211 -63.15861809 8.57502512 -75.4375 21.25 Z " fill="#B74355" transform="translate(1086.6875,390.3125)"/>
<path d="M0 0 C2.11798646 1.86396005 4.15674098 3.75686582 6.1328125 5.76953125 C2.3988225 12.32284511 -1.33860585 18.73142238 -5.8671875 24.76953125 C-9.00180158 23.32661366 -11.5627793 21.5423611 -14.3046875 19.45703125 C-26.66295664 10.68723729 -40.66428851 8.35599896 -55.53125 10.078125 C-60.62326019 11.0667799 -64.68664349 12.67592868 -68.8671875 15.76953125 C-72.03502275 20.71927383 -72.12259421 24.56360213 -71.6796875 30.33984375 C-70.21577581 34.71750275 -66.91885819 37.19523527 -62.95581055 39.359375 C-61.33993042 40.02646484 -61.33993042 40.02646484 -59.69140625 40.70703125 C-59.09035568 40.95517578 -58.48930511 41.20332031 -57.87004089 41.45898438 C-49.19105468 44.95803917 -40.22512023 47.69893406 -31.30883789 50.51953125 C-1.72886423 59.91368809 -1.72886423 59.91368809 5.0078125 72.83203125 C9.93955609 83.16909646 9.01665854 94.16843692 5.390625 104.79296875 C3.57017375 109.10099315 1.34249276 112.38777023 -1.8671875 115.76953125 C-2.43050781 116.3728125 -2.99382812 116.97609375 -3.57421875 117.59765625 C-16.04882554 129.67832809 -33.89104765 132.28719806 -50.57299805 132.19360352 C-67.06195341 131.69778295 -82.34260748 127.04718017 -96.3046875 118.33203125 C-96.88452393 117.97278564 -97.46436035 117.61354004 -98.06176758 117.2434082 C-102.37446726 114.42668211 -104.36907122 111.96727078 -107.8671875 107.76953125 C-104.5671875 101.82953125 -101.2671875 95.88953125 -97.8671875 89.76953125 C-93.74632381 90.79974717 -92.19251134 91.88111769 -88.9296875 94.45703125 C-75.15796998 104.68954573 -58.3378457 110.29854073 -41.1796875 108.08203125 C-33.93967145 106.80084076 -27.6143104 104.65596364 -22.8671875 98.76953125 C-21.1422184 93.59462396 -21.07060033 88.05971937 -22.8671875 82.89453125 C-29.85206834 75.47309535 -42.64909036 73.60915942 -52.14599609 70.77758789 C-87.40459362 60.21977839 -87.40459362 60.21977839 -96.640625 46.2109375 C-101.16261873 37.21015381 -101.29248269 26.03736334 -98.7421875 16.39453125 C-95.00134288 5.90276705 -87.77496977 -1.82840787 -77.9921875 -6.98046875 C-54.16662447 -18.10638451 -21.15078154 -16.45380962 0 0 Z " fill="#243C50" transform="translate(1894.8671875,126.23046875)"/>
<path d="M0 0 C7.92 0 15.84 0 24 0 C24.01458252 2.71887451 24.02916504 5.43774902 24.04418945 8.23901367 C24.09472636 17.26357869 24.16135425 26.28797461 24.23571491 35.31237316 C24.28027384 40.77911568 24.31956129 46.24578615 24.34643555 51.71264648 C24.37261367 56.9971993 24.41311691 62.28147268 24.46318626 67.56585121 C24.47975744 69.57302666 24.49133197 71.58025034 24.49761391 73.58748436 C24.52773563 96.89882158 24.52773563 96.89882158 36.3125 116.375 C44.83472231 121.52797163 53.95858173 122.22105519 63.703125 120.53125 C77.66613 116.84290906 87.637957 107.67484683 95.3359375 95.8671875 C98.57776263 90.28150759 99.3016107 85.77676113 99.31884766 79.35424805 C99.32889328 78.4952037 99.3389389 77.63615936 99.34928894 76.75108337 C99.38009549 73.92130176 99.39714908 71.09161465 99.4140625 68.26171875 C99.43277618 66.29587492 99.45234974 64.33003911 99.4727478 62.36421204 C99.52405386 57.19726285 99.56368783 52.03028763 99.60089111 46.86322021 C99.64094026 41.58778449 99.69202847 36.31245694 99.7421875 31.03710938 C99.83892883 20.69147472 99.92231891 10.34579535 100 0 C107.59 0 115.18 0 123 0 C123.01458252 3.52856689 123.02916504 7.05713379 123.04418945 10.69262695 C123.09445409 22.33159798 123.16088328 33.97044544 123.23571491 45.60928059 C123.28070275 52.66813478 123.32011038 59.72693818 123.34643555 66.78588867 C123.37184113 73.59407529 123.41272549 80.40202706 123.46318626 87.21007347 C123.47991264 89.81164947 123.49139082 92.41326453 123.49761391 95.01488686 C123.50719219 98.64989672 123.53517679 102.28432211 123.56762695 105.91918945 C123.56619186 107.00244003 123.56475677 108.08569061 123.5632782 109.20176697 C123.57581635 110.19034698 123.58835449 111.178927 123.60127258 112.19746399 C123.60588155 113.05749684 123.61049051 113.9175297 123.61523914 114.80362415 C124.08831859 117.50415942 124.83800987 118.3584726 127 120 C127.99 120.33 128.98 120.66 130 121 C130 127.27 130 133.54 130 140 C127.48375 140.0825 124.9675 140.165 122.375 140.25 C121.59431152 140.28641602 120.81362305 140.32283203 120.00927734 140.36035156 C114.87884876 140.44110469 112.08449194 139.33576987 108 136 C102.98721243 130.58077019 102.82335914 125.91053349 102.4375 118.75 C102.37272461 117.63238281 102.37272461 117.63238281 102.30664062 116.4921875 C102.20103275 114.661651 102.10005799 112.83084824 102 111 C101.29037109 112.051875 101.29037109 112.051875 100.56640625 113.125 C90.30590989 127.84571213 76.61409339 137.06043383 59 141 C58.26136719 141.18046875 57.52273438 141.3609375 56.76171875 141.546875 C44.57430224 143.54650769 31.17892622 142.88017501 20.4140625 136.45703125 C8.89431548 128.09468998 3.57581886 116.23896257 1.3737793 102.45581055 C-0.32909754 91.63437089 -0.38321317 80.94946766 -0.29296875 70.01953125 C-0.287355 67.98402727 -0.28309335 65.94851917 -0.28010559 63.91300964 C-0.26879658 58.62444334 -0.23945415 53.33613478 -0.20599365 48.04766846 C-0.17498734 42.62361129 -0.16153578 37.19951138 -0.14648438 31.77539062 C-0.11456721 21.18346383 -0.06191803 10.59179393 0 0 Z " fill="#B74355" transform="translate(1139,379)"/>
<path d="M0 0 C1.77020508 0.00108765 1.77020508 0.00108765 3.57617188 0.00219727 C5.50396484 -0.00070313 5.50396484 -0.00070313 7.47070312 -0.00366211 C8.13924316 0.00882568 8.8077832 0.02131348 9.49658203 0.03417969 C11.53883733 0.06850126 13.57676678 0.05484454 15.61914062 0.03540039 C25.49313487 0.10967818 25.49313487 0.10967818 27.80639648 2.2956543 C29.24103919 5.00091591 30.34744408 7.68445351 31.39257812 10.56469727 C31.82699219 11.75393799 32.26140625 12.94317871 32.70898438 14.16845703 C33.17542774 15.46839914 33.64156423 16.76845139 34.10742188 18.06860352 C34.60319316 19.43712858 35.09929282 20.80553473 35.59570312 22.17382812 C39.07259628 31.7886309 42.41372992 41.44803327 45.71557617 51.12426758 C50.55624182 65.24295298 55.63108039 79.27795105 60.6796875 93.32330322 C65.67632059 107.22407442 70.65239855 121.13083797 75.54492188 135.06860352 C79.2129278 145.51631072 82.96413315 155.92947794 86.79492188 166.31860352 C90.1497881 175.42192933 93.46634248 184.53580035 96.66992188 193.69360352 C97.00088867 194.63357178 97.33185547 195.57354004 97.67285156 196.54199219 C97.97352539 197.40800049 98.27419922 198.27400879 98.58398438 199.16625977 C98.8438916 199.91270752 99.10379883 200.65915527 99.37158203 201.42822266 C100.09930735 203.80902961 100.5946091 206.18397368 101.04492188 208.63110352 C93.76764665 211.36708989 86.47494293 213.92386117 78.98242188 216.00610352 C77.17064453 216.51270508 77.17064453 216.51270508 75.32226562 217.02954102 C71.89786779 217.65809556 70.26535991 217.90307049 67.04492188 216.63110352 C65.74346769 214.20098931 64.8765431 212.12658541 64.02929688 209.53735352 C63.76916809 208.79900269 63.50903931 208.06065186 63.24102783 207.29992676 C62.40615324 204.91658397 61.60002312 202.52464775 60.79492188 200.13110352 C60.26949953 198.61220833 59.74217143 197.09397098 59.21289062 195.57641602 C58.09754173 192.37260099 56.99215895 189.16554323 55.89111328 185.95678711 C52.76052164 176.87766668 49.46580104 167.85633414 46.19970703 158.82531738 C44.33435162 153.66561811 42.47500261 148.50375619 40.61523438 143.34204102 C40.25238846 142.33522278 39.88954254 141.32840454 39.51570129 140.29107666 C38.40032111 137.19612898 37.28511543 134.10111845 36.16992188 131.00610352 C35.78162201 129.92868896 35.39332214 128.85127441 34.99325562 127.74121094 C30.24077242 114.55191698 25.51802001 101.35312818 20.85742188 88.13110352 C17.91453876 79.78549217 14.88183321 71.49851848 11.60693359 63.27783203 C8.1785535 54.58583186 5.21783285 45.72618207 2.20117188 36.88500977 C0.89393288 33.06121982 -0.44742843 29.25657384 -1.86132812 25.47094727 C-2.14419678 24.70596924 -2.42706543 23.94099121 -2.71850586 23.15283203 C-3.22823337 21.78343575 -3.74761231 20.41756684 -4.27954102 19.05664062 C-6.30787623 13.56490298 -7.12707005 8.47560684 -4.84204102 2.9296875 C-2.95507812 0.63110352 -2.95507812 0.63110352 0 0 Z " fill="#153045" transform="translate(297.955078125,55.368896484375)"/>
<path d="M0 0 C9.9 0 19.8 0 30 0 C30 15.18 30 30.36 30 46 C39.9 46 49.8 46 60 46 C60 53.59 60 61.18 60 69 C50.1 69 40.2 69 30 69 C30.0629536 79.58803103 30.1383939 90.17577207 30.23571491 100.76354408 C30.28040977 105.68007386 30.31966791 110.59652094 30.34643555 115.51318359 C30.37247725 120.25956494 30.41288596 125.0056279 30.46318626 129.75181198 C30.47984908 131.56101898 30.491367 133.37028104 30.49761391 135.17955399 C30.50726138 137.71720877 30.53532791 140.25405011 30.56762695 142.79150391 C30.56619186 143.53669281 30.56475677 144.28188171 30.5632782 145.0496521 C30.6477795 149.75525462 31.5066711 153.00508397 34 157 C39.28292712 161.06379009 45.63936261 160.74142399 52 160 C55.04194186 159.12925828 57.90182214 158.0931525 60.8203125 156.875 C63 156 63 156 65 156 C66.03480605 159.4334517 67.05040959 162.87229026 68.0625 166.3125 C68.35705078 167.28896484 68.65160156 168.26542969 68.95507812 169.27148438 C69.22900391 170.20927734 69.50292969 171.14707031 69.78515625 172.11328125 C70.17006226 173.40939331 70.17006226 173.40939331 70.56274414 174.73168945 C71 177 71 177 70 180 C55.47320434 187.49180657 37.73089318 190.47258966 21.62109375 187.34375 C13.22151223 184.63345388 7.21614033 179.7865964 3.0625 172 C-0.20072485 165.27443827 -0.14538611 158.16946469 -0.11352539 150.85180664 C-0.11367142 149.96320953 -0.11381744 149.07461243 -0.1139679 148.15908813 C-0.11327518 145.24275206 -0.10551297 142.32648107 -0.09765625 139.41015625 C-0.09578979 137.37991877 -0.09436696 135.34968084 -0.09336853 133.31944275 C-0.08956131 127.99135074 -0.07974642 122.66328626 -0.06866455 117.33520508 C-0.05841177 111.89209363 -0.05386264 106.44897771 -0.04882812 101.00585938 C-0.03812247 90.33722559 -0.02054028 79.66861939 0 69 C-5.94 69 -11.88 69 -18 69 C-18 61.41 -18 53.82 -18 46 C-12.06 46 -6.12 46 0 46 C0 30.82 0 15.64 0 0 Z " fill="#253D51" transform="translate(1549,69)"/>
<path d="M0 0 C1.42796371 -0.00135645 2.85592707 -0.00313776 4.28388977 -0.00531006 C8.14499829 -0.00985287 12.00607997 -0.00810849 15.86718893 -0.00493097 C19.90927291 -0.00239402 23.95135464 -0.00474836 27.99343872 -0.00631714 C34.77378756 -0.00813368 41.55412548 -0.00574473 48.33447266 -0.00097656 C56.18204203 0.00447824 64.02958547 0.00269252 71.87715423 -0.00280297 C78.61526171 -0.00733309 85.35336137 -0.00798554 92.09146988 -0.0053643 C96.11613842 -0.00380266 100.14079474 -0.00360495 104.16546249 -0.00690079 C107.94278118 -0.00977848 111.72006618 -0.00780574 115.49738121 -0.00200653 C116.88699093 -0.00067895 118.27660346 -0.00107302 119.66621208 -0.0032692 C121.55505144 -0.00598039 123.44389697 -0.00198615 125.33273315 0.00241089 C126.92163266 0.00297643 126.92163266 0.00297643 128.54263115 0.00355339 C130.91064453 0.12939453 130.91064453 0.12939453 131.91064453 1.12939453 C131.98290955 2.98226955 131.99445673 4.83773331 131.97314453 6.69189453 C131.96412109 7.70380859 131.95509766 8.71572266 131.94580078 9.75830078 C131.92839844 10.93199219 131.92839844 10.93199219 131.91064453 12.12939453 C128.06228942 13.48974332 124.23759749 14.5412033 120.25292969 15.42138672 C107.83609292 18.22316514 98.46260337 23.70119555 88.91064453 32.12939453 C87.70988281 33.18707031 87.70988281 33.18707031 86.48486328 34.26611328 C59.09079562 59.99993442 41.78624961 100.8739945 27.91064453 135.12939453 C23.29064453 134.79939453 18.67064453 134.46939453 13.91064453 134.12939453 C14.47988836 127.5038658 15.42791371 121.18072178 16.84814453 114.69189453 C22.60569289 86.93749211 25.34485628 55.20502905 9.91064453 30.12939453 C4.13185018 21.54375721 -5.29152315 16.73969883 -15.08935547 14.12939453 C-16.44361544 13.73388053 -17.79779003 13.338074 -19.15185547 12.94189453 C-20.12123047 12.67376953 -21.09060547 12.40564453 -22.08935547 12.12939453 C-22.11623698 10.48364887 -22.1356967 8.8377804 -22.15185547 7.19189453 C-22.16345703 6.27537109 -22.17505859 5.35884766 -22.18701172 4.41455078 C-22.08935547 2.12939453 -22.08935547 2.12939453 -21.08935547 1.12939453 C-14.13888395 -0.3074259 -7.06571086 -0.01127372 0 0 Z " fill="#173147" transform="translate(563.08935546875,55.87060546875)"/>
<path d="M0 0 C0.02887814 3.47914941 0.04675687 6.95826831 0.0625 10.4375 C0.07087891 11.43072266 0.07925781 12.42394531 0.08789062 13.44726562 C0.09111328 14.39150391 0.09433594 15.33574219 0.09765625 16.30859375 C0.10289307 17.18314209 0.10812988 18.05769043 0.11352539 18.95874023 C0 21 0 21 -1 22 C-3.12083823 22.30169671 -5.24709203 22.5655519 -7.375 22.8125 C-22.75619088 24.96524274 -35.01272194 31.73689331 -44.60159302 44.05793762 C-50.54486846 53.27673174 -49.85964846 62.7521336 -49.8046875 73.32421875 C-49.81595336 75.28149543 -49.82984083 77.2387586 -49.84622192 79.19599915 C-49.88209172 84.31375605 -49.88265481 89.43091351 -49.87554932 94.54876709 C-49.87463299 99.78457195 -49.90754349 105.02015625 -49.9375 110.25585938 C-49.99120447 120.50404006 -50.00443198 130.7516794 -50 141 C-57.59 141 -65.18 141 -73 141 C-73 94.8 -73 48.6 -73 1 C-66.07 1 -59.14 1 -52 1 C-51.505 16.345 -51.505 16.345 -51 32 C-48.69 28.37 -46.38 24.74 -44 21 C-32.61721199 6.39566821 -18.24801372 -0.49772572 0 0 Z " fill="#B74254" transform="translate(962,378)"/>
</svg>
