<?xml version="1.0" encoding="UTF-8"?>
<svg version="1.1" xmlns="http://www.w3.org/2000/svg" width="2000" height="600">
<path d="M0 0 C1.03197563 -0.00277531 2.06395126 -0.00555063 3.12719888 -0.00841005 C4.25734616 -0.00637371 5.38749344 -0.00433737 6.55188761 -0.00223933 C7.76194041 -0.00401434 8.97199321 -0.00578935 10.21871428 -0.00761814 C13.59490869 -0.01154953 16.97104921 -0.01098095 20.34724156 -0.00856045 C24.02739718 -0.00702123 27.70754684 -0.01127251 31.38770048 -0.01478721 C37.86836292 -0.02016811 44.3490181 -0.02180335 50.82968261 -0.02103646 C60.5316427 -0.01990266 70.23359432 -0.02447699 79.9355525 -0.0301673 C96.46861512 -0.03968729 113.00167605 -0.04438783 129.53474114 -0.04647664 C146.29680069 -0.0486037 163.05885762 -0.05286008 179.82091592 -0.05971937 C180.87840947 -0.06014998 181.93590302 -0.06058059 183.02544183 -0.06102426 C187.33224907 -0.06278257 191.6390563 -0.06455221 195.94586353 -0.06633728 C248.18545085 -0.08794719 300.42503869 -0.09881752 352.66462946 -0.10781351 C369.60259072 -0.11074668 386.54055186 -0.11411646 403.47851298 -0.11778073 C405.27043475 -0.11816816 405.27043475 -0.11816816 407.09855697 -0.11856343 C411.9313712 -0.11960963 416.76418543 -0.12065805 421.59699965 -0.12170925 C504.26374542 -0.13967455 586.93049138 -0.15505436 669.59723881 -0.16246828 C676.09186497 -0.16305225 682.58649113 -0.16364952 689.08111729 -0.1642459 C690.36945869 -0.16436402 691.6578001 -0.16448214 692.98518215 -0.16460384 C706.03812183 -0.16580124 719.09106151 -0.16701 732.14400118 -0.16823637 C734.7611753 -0.1684816 737.37834941 -0.16872546 739.99552353 -0.16896794 C824.05826726 -0.17675848 908.12099704 -0.19914329 992.18373467 -0.23164436 C1052.57712063 -0.25498631 1112.97050381 -0.27654 1173.3638942 -0.28365068 C1175.2264775 -0.28387121 1175.2264775 -0.28387121 1177.12668874 -0.2840962 C1204.38420597 -0.28728085 1231.64172317 -0.28933186 1258.89924056 -0.29032374 C1269.86630786 -0.29073849 1280.83337515 -0.29129339 1291.80044243 -0.29188566 C1293.00073493 -0.29194632 1294.20102743 -0.29200699 1295.43769243 -0.2920695 C1334.11917156 -0.29408639 1372.80063422 -0.30833149 1411.4821076 -0.32883066 C1450.4392276 -0.3494027 1489.39632856 -0.35731034 1528.35345344 -0.34775289 C1533.73524165 -0.34643441 1539.11702988 -0.34525637 1544.49881814 -0.34416227 C1546.08130658 -0.34383249 1546.08130658 -0.34383249 1547.69576448 -0.34349606 C1564.40944083 -0.34038017 1581.1230808 -0.35071434 1597.83674872 -0.36663782 C1614.26643385 -0.38201237 1630.6960686 -0.38315086 1647.12575548 -0.36908958 C1656.76099881 -0.36127209 1666.39608831 -0.36441321 1676.03131632 -0.38372674 C1682.43086094 -0.39546202 1688.83029318 -0.39268041 1695.22983171 -0.3781121 C1698.85735825 -0.37026016 1702.48458383 -0.36853964 1706.11208954 -0.38473114 C1733.66303033 -0.49981818 1733.66303033 -0.49981818 1745.81687234 4.12656184 C1746.70155423 4.46271653 1747.58623612 4.79887122 1748.49772656 5.14521241 C1750.61487386 5.99337606 1752.64755868 6.92907354 1754.69187234 7.93906184 C1755.40601296 8.28453059 1756.12015359 8.62999934 1756.85593484 8.98593684 C1762.4151664 11.75540804 1767.18237152 14.97941924 1771.81687234 19.12656184 C1772.91515359 20.01408137 1772.91515359 20.01408137 1774.03562234 20.91953059 C1782.73334216 28.14280818 1788.96942608 36.97267379 1794.12937234 46.93906184 C1794.44269509 47.52945246 1794.75601784 48.11984309 1795.07883523 48.72812434 C1801.01294098 60.77707003 1802.41021397 73.14557872 1802.32480691 86.37633296 C1802.32942777 87.95910543 1802.33578856 89.5418736 1802.34371588 91.12463297 C1802.36026966 95.43063627 1802.35222717 99.73628071 1802.33977101 104.04228457 C1802.33066517 108.70288754 1802.34471745 113.36343175 1802.3556907 118.02402278 C1802.37342137 127.13673502 1802.36966044 136.24931503 1802.35804013 145.36203232 C1802.3489851 152.77146246 1802.34779074 160.1808557 1802.3521354 167.59028979 C1802.35274833 168.64717868 1802.35336126 169.70406756 1802.35399277 170.79298338 C1802.35527174 172.94041114 1802.3565686 175.0878389 1802.35788313 177.23526664 C1802.36927282 197.34302521 1802.35620026 217.45071068 1802.33468167 237.55845727 C1802.31680957 254.79205149 1802.31991887 272.02553792 1802.33835671 289.2591302 C1802.35978744 309.29935687 1802.36817706 329.33951958 1802.35590766 349.37975611 C1802.35463353 351.51872062 1802.35337605 353.65768513 1802.3521354 355.79664965 C1802.3515183 356.8489091 1802.35090119 357.90116855 1802.35026539 358.98531464 C1802.3468193 366.38181929 1802.35262479 373.77828319 1802.36205361 381.17478152 C1802.37329935 390.19432953 1802.3701794 399.21373838 1802.34893063 408.23327055 C1802.33845523 412.83051695 1802.33423821 417.42753176 1802.34752724 422.02477618 C1802.35952998 426.2409518 1802.35276021 430.45668323 1802.33161703 434.67281909 C1802.32718413 436.19010199 1802.32934178 437.70742318 1802.33912019 439.22468105 C1802.39853221 449.21729999 1801.04720642 457.65701986 1797.81687234 467.12656184 C1797.38207078 468.46968868 1797.38207078 468.46968868 1796.93848536 469.83994939 C1790.60162938 488.71703805 1774.23896914 505.21824297 1756.81687234 514.12656184 C1743.63957526 520.67773228 1730.73920359 523.59792903 1715.99202005 523.50376 C1714.77349064 523.50809118 1713.55496124 523.51242236 1712.2995067 523.51688479 C1708.94135046 523.52581972 1705.58370447 523.52148626 1702.22558486 523.51135902 C1698.54953638 523.503638 1694.8735254 523.51348295 1691.19748224 523.52099954 C1684.73806114 523.53181081 1678.27871487 523.53152017 1671.81929028 523.52392651 C1662.1492548 523.51261294 1652.47928235 523.51864103 1642.80924753 523.5279905 C1626.32701524 523.54341612 1609.84480936 523.54459968 1593.36257241 523.53801127 C1576.66072594 523.53138316 1559.95889834 523.53125901 1543.25705216 523.53905841 C1541.67438557 523.5397904 1541.67438557 523.5397904 1540.05974593 523.54053719 C1535.76240047 523.54254538 1531.46505503 523.54459848 1527.16770962 523.54670893 C1483.54484587 523.56810972 1439.92199608 523.57016339 1396.2991284 523.56465189 C1390.27142086 523.56389618 1384.24371332 523.56316856 1378.21600578 523.56246992 C1377.01876452 523.56233083 1375.82152327 523.56219174 1374.58800198 523.56204843 C1348.05787347 523.55909641 1321.52774665 523.56210865 1294.99761845 523.56636621 C1291.36690639 523.56694836 1287.73619432 523.56751721 1284.10548225 523.56808184 C1274.372839 523.56959678 1264.64019575 523.57112369 1254.90755251 523.57267485 C1186.96289005 523.58343207 1119.01822914 523.58813286 1051.07356618 523.58020468 C1049.79273424 523.58005638 1048.5119023 523.57990807 1047.19225727 523.57975527 C1032.909506 523.57809626 1018.62675475 523.57634668 1004.3440035 523.57456226 C1002.40970698 523.57432073 1002.40970698 523.57432073 1000.43633377 523.57407431 C989.97065523 523.57276652 989.97065523 523.57276652 984.79142661 523.57211312 C902.30112116 523.56172088 819.81083704 523.56948932 737.32053445 523.59311457 C716.53435939 523.59905792 695.74818433 523.60494946 674.96200917 523.6105239 C673.04221069 523.61103955 673.04221069 523.61103955 671.0836284 523.61156563 C631.64222552 523.62209203 592.20082442 523.62768696 552.75942013 523.62808104 C550.90219916 523.62810022 550.90219916 523.62810022 549.00745857 523.62811978 C521.8282994 523.62834806 494.64914038 523.62734204 467.4699813 523.62521072 C457.74505741 523.62445595 448.02013353 523.62377775 438.29520963 523.62313057 C435.87587756 523.62296788 433.45654548 523.62280021 431.0372134 523.62262756 C392.4779233 523.61990569 353.91864614 523.62846352 315.35935882 523.64248166 C275.44860825 523.65688475 235.53788232 523.65644508 195.62713259 523.63910694 C191.34172032 523.63730274 187.05630802 523.63556255 182.7708957 523.63387271 C181.71917756 523.63345221 180.66745943 523.6330317 179.58387104 523.63259846 C162.9279559 523.62629964 146.27207458 523.63340633 129.6161642 523.64608191 C113.24009482 523.65826169 96.86407886 523.65616467 80.48801353 523.63886159 C70.88666949 523.62914174 61.28547718 523.63032897 51.68414307 523.64769157 C45.30458013 523.65813248 38.92513267 523.65402346 32.54558117 523.63817508 C28.93108365 523.62959954 25.31688607 523.62709405 21.70240463 523.64255881 C-13.2913861 523.78218878 -13.2913861 523.78218878 -28.62062766 515.31406184 C-29.2790969 514.9649676 -29.93756614 514.61587336 -30.61598899 514.25620051 C-51.83064377 502.79086051 -66.50824514 485.35610456 -74.02687766 462.45468684 C-76.98965718 451.97011732 -77.4746823 441.62222131 -77.44382408 430.78250666 C-77.44685043 429.26149985 -77.45074233 427.74049456 -77.45541664 426.21949192 C-77.46564313 422.0702866 -77.46352856 417.9211682 -77.45923605 413.77195593 C-77.45675902 409.28510198 -77.46579511 404.79826844 -77.47327354 400.31142207 C-77.48599588 391.53254547 -77.48781728 382.7536995 -77.48547328 373.97481524 C-77.48368706 366.83517029 -77.48544627 359.6955346 -77.48969772 352.55589076 C-77.49029291 351.53802791 -77.4908881 350.52016505 -77.49150132 349.47145787 C-77.49271313 347.40335498 -77.49392726 345.33525209 -77.4951437 343.2671492 C-77.50600992 323.88996624 -77.5038612 304.5128007 -77.49775885 285.13561677 C-77.49259153 267.4321175 -77.5038419 249.72867329 -77.52285707 232.02518492 C-77.54225768 213.8224828 -77.55048751 195.61980671 -77.54673382 177.41709419 C-77.54482502 167.2076294 -77.5472779 156.99821146 -77.56144836 146.78875514 C-77.57339155 138.09640275 -77.57473425 129.40412603 -77.56265819 120.71177255 C-77.55678985 116.28242498 -77.55561304 111.85321561 -77.56766059 107.42387744 C-77.57858861 103.35866866 -77.57533484 99.29371233 -77.56139891 95.22851502 C-77.55877085 93.7683027 -77.56105807 92.30807014 -77.56913477 90.84787779 C-77.70211971 64.98276036 -69.76178913 42.46410954 -51.83547141 23.65390559 C-38.32240308 10.7776829 -19.14483544 0.00655744 0 0 Z " fill="#D8D8D8" transform="translate(137.1831276640296,34.8734381608665)"/>
<path d="M0 0 C2.70556641 -0.34057617 2.70556641 -0.34057617 6.1015625 -0.29296875 C7.31328125 -0.28330078 8.525 -0.27363281 9.7734375 -0.26367188 C11.04445313 -0.23853516 12.31546875 -0.21339844 13.625 -0.1875 C14.90375 -0.17396484 16.1825 -0.16042969 17.5 -0.14648438 C20.66708282 -0.11103196 23.83333541 -0.06161441 27 0 C29.99296545 6.91816604 32.68360354 13.84313143 35.00830078 21.01318359 C36.66521242 26.00349797 38.56275487 30.90082833 40.4375 35.8125 C43.38694459 43.60284177 46.18977018 51.39867678 48.765625 59.3203125 C50.47445475 64.41435562 52.352012 69.44093509 54.22723389 74.47561646 C56.28805595 80.02507969 58.2767589 85.59548117 60.21875 91.1875 C62.78846548 98.55778812 65.38554547 105.91777757 68.0078125 113.26953125 C68.34533539 114.21632248 68.68285828 115.16311371 69.03060913 116.13859558 C70.40980777 120.00643196 71.78966981 123.87402924 73.17138672 127.7409668 C76.86622058 138.08459972 80.53849403 148.42548857 83.9206543 158.8762207 C85.03896663 162.11277494 86.32409107 165.23462772 87.6875 168.375 C89.77538953 173.22047947 91.04939618 177.81488826 92 183 C111.69256131 176.76402225 138.72573994 166.93791034 150.41015625 148.8125 C152.74833899 144.24709913 153.708799 140.16226787 152.77734375 135.0703125 C151.26207512 131.03467243 148.73675958 129.01210131 145 127 C140.72714261 125.40327448 136.41772524 124.12934329 132 123 C132.33 122.34 132.66 121.68 133 121 C134.05330254 120.96574669 134.05330254 120.96574669 135.12788391 120.93080139 C141.79097991 120.71354883 148.45396597 120.49320491 155.11684895 120.26950932 C158.5411445 120.15464999 161.96546946 120.04092784 165.38989258 119.92993164 C169.33947563 119.80186091 173.28887647 119.66861537 177.23828125 119.53515625 C178.45018631 119.49656998 179.66209137 119.4579837 180.91072083 119.41822815 C187.08943332 119.20541873 193.20539912 118.82638253 199.35749817 118.22389221 C203.87243295 117.84135369 208.38918811 117.76519318 212.91796875 117.68359375 C213.90122635 117.66281265 214.88448395 117.64203156 215.89753723 117.62062073 C218.99413041 117.55598859 222.09079772 117.49664805 225.1875 117.4375 C227.30534577 117.39423236 229.42318443 117.35061566 231.54101562 117.30664062 C236.69393726 117.20039774 241.84693234 117.09889565 247 117 C249.31487532 110.35469345 251.44740175 103.86914747 252.6875 96.9375 C252.91824219 95.68839844 253.14898438 94.43929687 253.38671875 93.15234375 C256.95447211 70.6552923 257.46600973 46.97353468 246.1875 26.75 C238.50286456 17.08931545 229.95938155 12.99323026 218 11 C218 7.37 218 3.74 218 0 C262.55 0 307.1 0 353 0 C353 3.63 353 7.26 353 11 C351.80117187 11.12955078 351.80117187 11.12955078 350.578125 11.26171875 C331.32122204 13.72533662 316.42189741 23.89263424 304.57421875 39.1171875 C301.94293441 42.67358902 299.45784699 46.32236113 297 50 C296.60731934 50.58040039 296.21463867 51.16080078 295.81005859 51.75878906 C284.04018391 69.30339627 274.52593644 88.69787996 266 108 C265.72333496 108.59361328 265.44666992 109.18722656 265.16162109 109.79882812 C263.62181293 113.18550823 263 115.20340633 263 119 C263.763125 119.28875 264.52625 119.5775 265.3125 119.875 C268 121 268 121 271 123 C272.39849852 127.34596691 272.23016339 131.22827568 270.9375 135.5625 C250.4816384 171.85515768 200.84405246 189.39499381 163 200 C142.87493561 205.35784061 122.59679841 209.04619558 102 212 C100.80874512 212.17313721 99.61749023 212.34627441 98.39013672 212.5246582 C89.38669088 213.7848057 80.38316074 214.66056772 71.32373047 215.37768555 C69.02908291 215.56018693 66.73527481 215.75134315 64.44140625 215.94335938 C39.8849389 217.95441775 15.30171395 218.24189093 -9.32067871 218.52606201 C-13.77087717 218.57759619 -18.22100918 218.63250193 -22.67111015 218.69187927 C-24.71024783 218.71779787 -26.74939543 218.73896987 -28.78858948 218.7598877 C-40.33326476 218.91232356 -51.79508561 219.60636682 -63.25 221.0625 C-70.78989362 222 -70.78989362 222 -73 222 C-73.15855469 222.57975586 -73.31710937 223.15951172 -73.48046875 223.75683594 C-75.49509945 230.81639132 -78.16008524 237.48722434 -81 244.25 C-86.66297674 257.94608113 -91.85108329 271.7830332 -96.83544922 285.73925781 C-97.54550677 287.72741897 -98.25962932 289.71414218 -98.98095703 291.69824219 C-103.52145757 304.20700142 -106.50358637 316.93562491 -109 330 C-109.28363403 331.43363892 -109.28363403 331.43363892 -109.57299805 332.89624023 C-110.95936082 340.40112521 -111.35007383 347.68828009 -111.3125 355.3125 C-111.30758545 356.49658447 -111.3026709 357.68066895 -111.29760742 358.90063477 C-111.11060591 372.88547109 -109.31043646 387.80711392 -100.75 399.4375 C-97.16617925 402.77696933 -93.38237705 404.86577478 -89 407 C-87.865625 407.5775 -86.73125 408.155 -85.5625 408.75 C-80.98200489 410.35719127 -76.83946417 410.66852985 -72 411 C-72 414.96 -72 418.92 -72 423 C-118.53 423 -165.06 423 -213 423 C-213 419.04 -213 415.08 -213 411 C-211.411875 410.7525 -209.82375 410.505 -208.1875 410.25 C-179.7101541 404.96291273 -163.59588748 382.57269347 -148.02734375 360.16015625 C-143.7790499 353.72481364 -140.38107937 346.95268698 -137 340.0390625 C-134.16894566 334.26870762 -131.08819782 328.63596102 -128 323 C-128.58523437 323.01160156 -129.17046875 323.02320313 -129.7734375 323.03515625 C-145.1974832 323.19727084 -159.75982728 321.89901761 -174.81591797 318.4921875 C-176.69704401 318.06827177 -178.58437775 317.6720748 -180.47265625 317.28125 C-188.1785258 315.57560299 -194.96726729 312.53815301 -202 309 C-203.39025391 308.33871094 -203.39025391 308.33871094 -204.80859375 307.6640625 C-216.81415494 301.63514498 -226.88369264 293.09281341 -233 281 C-233.81597656 279.38738281 -233.81597656 279.38738281 -234.6484375 277.7421875 C-236.25719098 273.28789318 -236.53705181 269.57107966 -236.5 264.875 C-236.49500488 264.0411377 -236.49000977 263.20727539 -236.48486328 262.34814453 C-236.0670859 247.38595183 -228.39280667 235.64318478 -217.90625 225.48828125 C-178.99437944 192.17260713 -123.82506788 195.61992549 -76 196 C-72.95433468 188.80675104 -70.03265354 181.59545908 -67.375 174.25 C-66.79969431 172.67179656 -66.22417559 171.09367075 -65.6484375 169.515625 C-65.37306152 168.75926758 -65.09768555 168.00291016 -64.81396484 167.22363281 C-61.20751703 157.37134526 -57.51751099 147.54148758 -53.4375 137.875 C-51.50443704 133.28397546 -49.74006873 128.66065657 -48.08984375 123.9609375 C-46.83785788 120.55948486 -45.4870351 117.20403026 -44.13500977 113.84130859 C-42.04869772 108.6185726 -40.02505174 103.37172496 -38 98.125 C-37.57460938 97.03058594 -37.14921875 95.93617188 -36.7109375 94.80859375 C-34.32910113 88.63481542 -32.09606463 82.44655799 -30.08984375 76.14013672 C-28.85559693 72.58393542 -27.45557043 69.11326763 -26.04595947 65.62359619 C-24.4205263 61.54649724 -22.91131022 57.42848707 -21.3984375 53.30859375 C-20.73733488 51.52265474 -20.07586643 49.73685112 -19.4140625 47.95117188 C-18.38583855 45.17402707 -17.35982927 42.39614902 -16.33984375 39.6159668 C-15.34501368 36.90689888 -14.3413076 34.20126467 -13.3359375 31.49609375 C-13.0307016 30.65767441 -12.7254657 29.81925507 -12.41098022 28.95542908 C-10.22739854 23.11369927 -10.22739854 23.11369927 -8 22 C-2.93213326 34.68550394 1.66787113 47.49629258 6.10839844 60.41357422 C7.30544128 63.88604736 8.52202993 67.35082976 9.75 70.8125 C10.09546875 71.78832031 10.4409375 72.76414062 10.796875 73.76953125 C11.77120152 76.38566122 12.79669196 78.96304362 13.8515625 81.546875 C16.35123161 87.76178187 18.47643724 94.0945114 20.625 100.4375 C24.39884665 111.50779517 28.35738164 122.49607609 32.45507812 133.45141602 C35.22047738 140.85584898 37.87508404 148.28953419 40.44677734 155.76318359 C42.897105 162.83205169 45.57090779 169.80984976 48.33642578 176.76123047 C50.43230689 182.12774732 51.88051648 187.34575581 53 193 C55.97 192.67 58.94 192.34 62 192 C58.39346713 181.0615047 54.68662002 170.16400338 50.859375 159.30078125 C49.5404883 155.55381565 48.24143994 151.80055399 46.953125 148.04296875 C43.88569587 139.11273395 40.8174395 130.25501726 37.0703125 121.58203125 C35.5649346 117.95044442 34.36570567 114.24145079 33.15234375 110.50390625 C29.33076025 98.88370151 25.16549661 87.37836264 20.90478516 75.91308594 C18.04936784 68.19768278 15.3056233 60.44330938 12.5625 52.6875 C9.21954183 43.23830608 5.86240762 33.79490191 2.4375 24.375 C2.11531494 23.48772217 1.79312988 22.60044434 1.46118164 21.6862793 C1.16332764 20.8694165 0.86547363 20.05255371 0.55859375 19.2109375 C0.28805176 18.46859863 0.01750977 17.72625977 -0.26123047 16.96142578 C-0.87306997 15.33699797 -1.5443257 13.73509074 -2.23046875 12.140625 C-3.40053961 8.88580859 -2.73760415 6.31921867 -2 3 C-1.34 2.01 -0.68 1.02 0 0 Z " fill="#BA4356" transform="translate(350,84)"/>
<path d="M0 0 C9.24 0 18.48 0 28 0 C28.00808685 1.96024612 28.01617371 3.92049225 28.02450562 5.94013977 C28.10185961 24.37859648 28.18945262 42.81697919 28.28752708 61.25533772 C28.33768853 70.73555697 28.38413099 80.21576743 28.421875 89.69604492 C28.45477492 97.95726418 28.49459498 106.21841584 28.54279006 114.47956055 C28.568075 118.85538748 28.58985034 123.23116945 28.60334396 127.60704994 C28.61614628 131.72332964 28.63818073 135.8394553 28.66738319 139.95565033 C28.67647333 141.46856461 28.68215254 142.98150371 28.68421364 144.49444389 C28.68752612 146.55610855 28.70297525 148.61733377 28.7215271 150.6789093 C28.72705786 151.83391591 28.73258862 152.98892252 28.73828697 154.17892933 C28.79358198 157.2054639 28.79358198 157.2054639 31 160 C32.65 160.66 34.3 161.32 36 162 C36 169.26 36 176.52 36 184 C30.62826438 186.68586781 21.05001916 185.81333844 15.3046875 184.28125 C10.4732042 182.00328829 7.36259177 178.72518354 5 174 C4.77049681 171.795636 4.58924067 169.58607827 4.4375 167.375 C4.31181641 165.59222656 4.31181641 165.59222656 4.18359375 163.7734375 C4.12300781 162.85820312 4.06242187 161.94296875 4 161 C3.67128906 161.4846875 3.34257813 161.969375 3.00390625 162.46875 C-5.91376814 175.03566242 -17.96748322 182.63499467 -33 186 C-36.7818298 186.43707565 -40.50769895 186.52485757 -44.3125 186.5 C-45.32143311 186.49500488 -46.33036621 186.49000977 -47.36987305 186.48486328 C-55.54031902 186.29434874 -61.75596086 184.95034652 -69 181 C-69.88558594 180.54238281 -70.77117188 180.08476562 -71.68359375 179.61328125 C-86.94082851 171.13703972 -96.08800601 158.14520448 -102 142 C-102.35191406 141.1853125 -102.70382812 140.370625 -103.06640625 139.53125 C-109.38271452 122.40586189 -106.00705998 100.0373005 -98.578125 83.9140625 C-90.25901234 67.58892207 -77.90046331 56.90987125 -60.66015625 50.8203125 C-56.21754203 49.82463589 -52.09790675 49.70677134 -47.5625 49.75 C-46.35110352 49.73839844 -46.35110352 49.73839844 -45.11523438 49.7265625 C-30.26314607 49.77443386 -17.50722197 56.39318202 -7.0625 66.6875 C-4.72896901 69.07041789 -2.85611733 71.215824 -1 74 C-0.67 49.58 -0.34 25.16 0 0 Z " fill="#243C50" transform="translate(1023,78)"/>
<path d="M0 0 C3.3186405 2.59498465 6.35725677 5.30933643 9.1875 8.4375 C9.77917969 9.0253125 10.37085938 9.613125 10.98046875 10.21875 C25.93593222 25.72383399 29.67746536 44.67861157 29.3984375 65.52734375 C29.21475307 71.50389081 28.18462528 76.80033129 26.1875 82.4375 C25.56681641 84.25507813 25.56681641 84.25507813 24.93359375 86.109375 C18.78234187 103.22280522 7.96859204 115.07098507 -8.3203125 123.02734375 C-15.74767499 126.02653599 -22.25635628 126.77873603 -30.1875 126.75 C-31.06921875 126.76611328 -31.9509375 126.78222656 -32.859375 126.79882812 C-48.11267439 126.8100109 -59.88134818 119.60837079 -70.8125 109.4375 C-73.5334492 106.31719427 -75.95831182 103.14587635 -77.8125 99.4375 C-78.1425 125.5075 -78.4725 151.5775 -78.8125 178.4375 C-86.0725 178.4375 -93.3325 178.4375 -100.8125 178.4375 C-100.8125 117.0575 -100.8125 55.6775 -100.8125 -7.5625 C-94.2125 -7.5625 -87.6125 -7.5625 -80.8125 -7.5625 C-80.4825 0.0275 -80.1525 7.6175 -79.8125 15.4375 C-77.5025 12.7975 -75.1925 10.1575 -72.8125 7.4375 C-53.62174798 -12.86374761 -23.00922474 -15.5440096 0 0 Z " fill="#B74355" transform="translate(1426.8125,353.5625)"/>
<path d="M0 0 C1.33661291 4.00983872 -0.05420755 6.38849741 -1.5625 10.125 C-2.13184485 11.58399786 -2.69950315 13.04365478 -3.265625 14.50390625 C-3.55759766 15.2530127 -3.84957031 16.00211914 -4.15039062 16.77392578 C-5.44914032 20.17679928 -6.62709134 23.61889404 -7.8125 27.0625 C-10.59192107 35.06922941 -13.69556667 42.93843386 -16.81469727 50.81787109 C-19.08001212 56.56631864 -21.18143566 62.32348912 -23.05249023 68.21386719 C-23.96371535 70.89330573 -25.0029993 73.45553419 -26.12109375 76.0546875 C-29.92081169 85.0902645 -33.33964622 94.27259399 -36.8125 103.4375 C-37.49266028 105.22858333 -38.17299797 107.0195993 -38.85351562 108.81054688 C-39.87304433 111.49392217 -40.89219644 114.17743668 -41.91000366 116.86146545 C-43.67195902 121.50772121 -45.43914319 126.15188945 -47.21533203 130.79272461 C-47.57656662 131.73749161 -47.93780121 132.68225861 -48.3099823 133.65565491 C-48.99695945 135.45159914 -49.68497197 137.24714782 -50.3742218 139.04222107 C-52.40885345 144.36435223 -54.31527666 149.69733912 -56.015625 155.13671875 C-57.17587675 158.51157801 -58.49983076 161.80292743 -59.8359375 165.11157227 C-66.37282978 181.33178462 -72.7483844 197.62643752 -78.75 214.05273438 C-79.0078125 214.75205078 -79.265625 215.45136719 -79.53125 216.171875 C-79.76392578 216.80706055 -79.99660156 217.44224609 -80.23632812 218.09667969 C-81.04540252 220.11315793 -82.02832249 222.05664499 -83 224 C-98.51 224 -114.02 224 -130 224 C-131.65 218.39 -133.3 212.78 -135 207 C-136.30927691 203.38181203 -137.63306678 199.81611585 -139.0625 196.25 C-141.7159946 189.47097663 -144.09887081 182.73634908 -146.1484375 175.75 C-147.19033259 172.38534796 -148.511165 169.18685448 -149.86328125 165.9375 C-151.69961061 161.19207155 -153.24436456 156.3488273 -154.80615234 151.50708008 C-156.31230287 146.88421687 -158.07810194 142.47050201 -160 138 C-160.67745904 135.90580151 -161.32413829 133.80136032 -161.9375 131.6875 C-163.37264024 126.90913535 -165.01896518 122.33816263 -166.9296875 117.734375 C-168.73321318 113.12682765 -170.22439858 108.41480044 -171.75390625 103.7109375 C-173.48036727 98.56943915 -175.41679815 93.52001171 -177.359375 88.45703125 C-180.34604591 80.62960441 -183.15129107 72.75682913 -185.8125 64.8125 C-186.11446289 63.91571533 -186.41642578 63.01893066 -186.72753906 62.0949707 C-187.00952148 61.24507568 -187.29150391 60.39518066 -187.58203125 59.51953125 C-187.83186768 58.76776611 -188.0817041 58.01600098 -188.33911133 57.24145508 C-189.04529467 54.84637962 -189.54474352 52.45406211 -190 50 C-183.22632795 47.56084204 -176.40813638 45.82810426 -169.375 44.3125 C-168.37726563 44.08755859 -167.37953125 43.86261719 -166.3515625 43.63085938 C-164.88976562 43.3127832 -164.88976562 43.3127832 -163.3984375 42.98828125 C-162.52880371 42.79790283 -161.65916992 42.60752441 -160.76318359 42.41137695 C-157.4824603 41.92294978 -154.31197456 41.93531499 -151 42 C-148.68512666 47.953574 -146.3744391 53.90876108 -144.06640625 59.86499023 C-143.28379884 61.88325134 -142.5002979 63.90116625 -141.71582031 65.91870117 C-137.62825525 76.43294302 -133.56842293 86.94501803 -129.89584351 97.61277771 C-128.24742602 102.39145881 -126.35670525 107.02530374 -124.36328125 111.66796875 C-122.19184435 116.9752343 -120.26247581 122.37154334 -118.32250977 127.76708984 C-118.03561279 128.55937988 -117.74871582 129.35166992 -117.453125 130.16796875 C-117.19692383 130.88235107 -116.94072266 131.5967334 -116.67675781 132.33276367 C-116.12340571 134.00633969 -116.12340571 134.00633969 -115 135 C-112.5 135.16666667 -112.5 135.16666667 -110 135 C-108.74035961 133.94417544 -108.74035961 133.94417544 -108.6875 131.5625 C-108.96845401 128.35962429 -109.44076743 126.6121339 -110.65234375 123.72265625 C-112.41623258 119.43390107 -114.1312163 115.12943217 -115.8046875 110.8046875 C-116.05119553 110.16876678 -116.29770355 109.53284607 -116.55168152 108.87765503 C-117.32685522 106.87705341 -118.10102914 104.87606724 -118.875 102.875 C-119.14278259 102.18314606 -119.41056519 101.49129211 -119.6864624 100.7784729 C-122.98129109 92.26373464 -126.25579393 83.74336461 -129.421875 75.1796875 C-130.76392372 71.58425394 -132.17022035 68.01542837 -133.578125 64.4453125 C-134.03815918 63.27137939 -134.49819336 62.09744629 -134.97216797 60.88793945 C-135.89134622 58.54520269 -136.81721545 56.20507761 -137.75048828 53.86791992 C-138.17056152 52.79388916 -138.59063477 51.7198584 -139.0234375 50.61328125 C-139.40419434 49.65204346 -139.78495117 48.69080566 -140.17724609 47.70043945 C-141.00769752 44.97473525 -141.1626623 42.82987397 -141 40 C-138.14633646 39.66178803 -135.29219404 39.3293022 -132.4375 39 C-131.63763672 38.90460938 -130.83777344 38.80921875 -130.01367188 38.7109375 C-125.30547833 38.17285824 -120.73852735 37.89823297 -116 38 C-113.11345056 43.48754776 -110.91286978 48.84184657 -109.0625 54.75 C-107.40587603 59.88204063 -105.70767431 64.92134091 -103.5625 69.875 C-100.23099503 77.59512209 -97.59734221 85.56397037 -94.85986328 93.50878906 C-93.58648641 97.19803881 -92.29684514 100.88144158 -91 104.5625 C-90.63745117 105.59189697 -90.63745117 105.59189697 -90.26757812 106.64208984 C-88.41325996 111.88335195 -86.49480342 117.09956289 -84.5625 122.3125 C-82.03220845 129.14881315 -79.55062902 136.00081141 -77.125 142.875 C-76.6774939 144.13244019 -76.6774939 144.13244019 -76.22094727 145.4152832 C-74.87432013 149.25432771 -73.63700732 152.96562033 -73 157 C-72.34 157 -71.68 157 -71 157 C-70.87109375 156.28972656 -70.7421875 155.57945312 -70.609375 154.84765625 C-68.88166854 146.77395105 -65.69907642 139.08782604 -62.48046875 131.51171875 C-57.12523187 118.80892731 -52.16762705 105.98826257 -47.67480469 92.95654297 C-45.10899866 85.51719075 -42.51899008 78.11838065 -39.4375 70.875 C-37.32310316 65.90384757 -35.56605412 60.8784467 -33.8984375 55.7421875 C-32.19814886 50.55261088 -30.20278812 45.49242608 -28.16015625 40.4296875 C-25.64736842 34.15748413 -23.27561529 27.83360018 -20.91210938 21.50390625 C-19.96452054 18.99288749 -18.98620588 16.49604202 -18 14 C-17.58234375 12.88882812 -17.1646875 11.77765625 -16.734375 10.6328125 C-14.28240878 6.9106836 -11.26080871 5.51989326 -7.3125 3.625 C-6.61060547 3.27050781 -5.90871094 2.91601562 -5.18554688 2.55078125 C-3.46494114 1.68462598 -1.73348214 0.84008852 0 0 Z " fill="#153045" transform="translate(577,283)"/>
<path d="M0 0 C13.62480893 10.95192166 22.83065319 25.9536023 25.96728516 43.20507812 C28.13647899 63.97310059 24.1366841 83.86155759 11.34228516 100.76757812 C0.5117961 113.41170358 -13.66856692 122.42512395 -30.4765625 124.03808594 C-50.85444432 125.22027386 -68.03663179 122.12788332 -83.90771484 108.45507812 C-98.02747832 95.03677726 -106.43665043 77.97687278 -107.13061523 58.34838867 C-107.33993249 38.41422048 -100.60864627 20.27102169 -86.65771484 5.76757812 C-63.70937968 -16.24726544 -25.79162659 -19.17468792 0 0 Z " fill="#B74355" transform="translate(1126.65771484375,356.232421875)"/>
<path d="M0 0 C1.12591553 0.00523682 2.25183105 0.01047363 3.41186523 0.01586914 C4.62680664 0.0190918 5.84174805 0.02231445 7.09350586 0.02563477 C8.37290039 0.03401367 9.65229492 0.04239258 10.97045898 0.05102539 C12.2537207 0.05553711 13.53698242 0.06004883 14.85913086 0.06469727 C18.04211921 0.07652994 21.22501661 0.09301471 24.40795898 0.11352539 C27.23701768 6.3520333 29.87311135 12.64648251 32.39233398 19.01586914 C32.76465149 19.95370743 33.13696899 20.89154572 33.52056885 21.85780334 C34.73544264 24.92126224 35.94697261 27.98602789 37.15795898 31.05102539 C37.57835449 32.11329346 37.99875 33.17556152 38.43188477 34.27001953 C44.53056521 49.68721644 50.50512755 65.14695554 56.36886597 80.65484619 C61.84701215 95.13466944 67.50145366 109.53976186 73.22045898 123.92602539 C83.80199818 150.56000209 83.80199818 150.56000209 88.38290405 162.56015015 C89.07351932 164.36857482 89.76862046 166.17528442 90.46386719 167.98193359 C90.86178467 169.0321167 91.25970215 170.0822998 91.66967773 171.16430664 C92.0095874 172.05802979 92.34949707 172.95175293 92.69970703 173.87255859 C93.40795898 176.11352539 93.40795898 176.11352539 93.40795898 179.11352539 C83.83795898 179.11352539 74.26795898 179.11352539 64.40795898 179.11352539 C61.3547119 172.3963818 58.42286534 165.83134074 55.85717773 158.94555664 C55.58699829 158.22928101 55.31681885 157.51300537 55.03845215 156.77502441 C54.05337283 154.16022544 53.07476392 151.54299249 52.09545898 148.92602539 C49.88858398 143.04790039 47.68170898 137.16977539 45.40795898 131.11352539 C22.63795898 131.11352539 -0.13204102 131.11352539 -23.59204102 131.11352539 C-29.09885679 145.41298062 -29.09885679 145.41298062 -34.60131836 159.71411133 C-35.29338084 161.50876845 -35.98559088 163.30336868 -36.67797852 165.09790039 C-37.03480713 166.02747559 -37.39163574 166.95705078 -37.75927734 167.91479492 C-38.10418213 168.80763184 -38.44908691 169.70046875 -38.80444336 170.62036133 C-39.10200531 171.39313416 -39.39956726 172.16590698 -39.70614624 172.96209717 C-40.56852169 175.05640785 -41.57914135 177.08772606 -42.59204102 179.11352539 C-52.49204102 179.11352539 -62.39204102 179.11352539 -72.59204102 179.11352539 C-69.21660928 168.98723019 -69.21660928 168.98723019 -67.74536133 165.19677734 C-67.4130098 164.3375769 -67.08065826 163.47837646 -66.73823547 162.59313965 C-66.38577255 161.68849976 -66.03330963 160.78385986 -65.67016602 159.85180664 C-65.10539803 158.39514587 -65.10539803 158.39514587 -64.52922058 156.90905762 C-63.30243883 153.74715679 -62.07237886 150.58654402 -60.84204102 147.42602539 C-59.98008537 145.20754201 -59.11818826 142.98903589 -58.25634766 140.77050781 C-52.62621158 126.28864427 -46.94808024 111.82622973 -41.22998047 97.37890625 C-36.30187343 84.92635298 -31.4090166 72.46021179 -26.52954102 59.98852539 C-26.1520874 59.02416565 -25.77463379 58.05980591 -25.38574219 57.06622314 C-21.36513827 46.79276321 -17.35558446 36.5151825 -13.37329102 26.22680664 C-13.0436586 25.37594482 -12.71402618 24.52508301 -12.37440491 23.6484375 C-10.82700992 19.65418372 -9.28204886 15.65902959 -7.7421875 11.66186523 C-7.20136332 10.26419894 -6.66043563 8.8665727 -6.11938477 7.46899414 C-5.65266357 6.25880615 -5.18594238 5.04861816 -4.70507812 3.80175781 C-3.18882256 0.13966304 -3.18882256 0.13966304 0 0 Z " fill="#243C50" transform="translate(815.592041015625,82.886474609375)"/>
<path d="M0 0 C15.23828388 10.86761331 23.34481573 25.62926294 27.828125 43.5625 C27.828125 50.8225 27.828125 58.0825 27.828125 65.5625 C-7.151875 65.5625 -42.131875 65.5625 -78.171875 65.5625 C-74.15224584 80.63610936 -71.05993042 91.16265063 -57.61328125 99.06640625 C-47.91552757 104.12422429 -37.23628343 105.34589799 -26.58203125 102.65625 C-16.29415333 98.9108382 -9.32124798 94.31660074 -4.171875 84.5625 C-1.48386523 85.18536841 1.2035242 85.81073207 3.890625 86.4375 C4.64279297 86.61152344 5.39496094 86.78554687 6.16992188 86.96484375 C10.76555517 88.03914764 15.30110449 89.22784057 19.828125 90.5625 C16.31711425 102.96928409 5.97043868 110.52073623 -4.53125 117.0234375 C-21.87231939 126.62503632 -43.61726379 127.1946344 -62.375 121.80859375 C-73.95829698 118.00707962 -81.73843781 112.07146051 -90.171875 103.5625 C-90.76742188 103.00046875 -91.36296875 102.4384375 -91.9765625 101.859375 C-103.59612398 89.92577132 -108.50413624 71.08963248 -108.3203125 55.0234375 C-107.47628739 35.34432575 -99.56082097 18.07806533 -85.171875 4.5625 C-60.27796441 -15.47406218 -26.85503053 -17.77455258 0 0 Z " fill="#243C50" transform="translate(1351.171875,139.4375)"/>
<path d="M0 0 C1.2780249 0.00684814 2.5560498 0.01369629 3.87280273 0.02075195 C13.10174031 0.17781272 21.02737349 1.07881976 29.6875 4.4375 C31.29044922 4.99824219 31.29044922 4.99824219 32.92578125 5.5703125 C39.83205232 8.16768966 45.13791056 11.62577732 50.6875 16.4375 C51.37585938 16.98277344 52.06421875 17.52804687 52.7734375 18.08984375 C60.00526554 23.97782635 64.73723505 30.58670515 67.6875 39.4375 C62.4075 43.3975 57.1275 47.3575 51.6875 51.4375 C49.14378734 48.89378734 47.49626707 46.72538556 45.5625 43.75 C36.71735664 31.02931165 24.73034738 24.79683322 9.70361328 21.76269531 C-5.54376387 19.30332181 -20.3232568 22.6550309 -33.0625 31.3046875 C-47.42901677 42.19929605 -56.06685373 58.88740072 -59.3125 76.4375 C-59.75058392 81.02997883 -59.8372316 85.57600798 -59.8125 90.1875 C-59.80750488 91.41597656 -59.80250977 92.64445312 -59.79736328 93.91015625 C-59.61111017 103.6415601 -58.26555973 111.53007782 -54.3125 120.4375 C-53.85488281 121.51773438 -53.39726563 122.59796875 -52.92578125 123.7109375 C-45.13144752 140.66628266 -32.29383967 151.48030756 -15.3125 158.4375 C-11.93595192 159.60816567 -8.87194962 160.18592988 -5.3125 160.4375 C-3.63994141 160.57478516 -3.63994141 160.57478516 -1.93359375 160.71484375 C13.98082577 161.39523082 29.54198761 155.99301558 41.47363281 145.33642578 C43.92434146 143.08228596 46.31447685 140.77312593 48.6875 138.4375 C49.61175781 137.76460937 50.53601563 137.09171875 51.48828125 136.3984375 C55.0497021 131.60348722 54.4691524 126.43587008 54.5 120.625 C54.561875 116.603125 54.62375 112.58125 54.6875 108.4375 C41.8175 108.4375 28.9475 108.4375 15.6875 108.4375 C15.6875 102.8275 15.6875 97.2175 15.6875 91.4375 C34.8275 91.4375 53.9675 91.4375 73.6875 91.4375 C73.6875 120.8075 73.6875 150.1775 73.6875 180.4375 C67.4175 180.4375 61.1475 180.4375 54.6875 180.4375 C54.3575 172.8475 54.0275 165.2575 53.6875 157.4375 C51.3775 159.7475 49.0675 162.0575 46.6875 164.4375 C38.97725652 170.58629795 31.01913945 175.19115885 21.6875 178.4375 C20.87667969 178.75589844 20.06585937 179.07429687 19.23046875 179.40234375 C2.24544717 185.20667396 -17.63773197 181.70208081 -33.5 174.3125 C-40.75311992 170.45410516 -47.05905151 165.72356419 -53.3125 160.4375 C-53.97765625 159.87546875 -54.6428125 159.3134375 -55.328125 158.734375 C-71.2148877 144.03540764 -82.49988377 120.519071 -83.41894531 98.93798828 C-83.90695046 77.74074868 -83.90695046 77.74074868 -81.3125 67.4375 C-81.06757812 66.43332031 -80.82265625 65.42914063 -80.5703125 64.39453125 C-74.05312039 40.71924485 -59.56580179 21.70566607 -38.3125 9.4375 C-25.78579125 2.36007569 -14.3606093 -0.11822935 0 0 Z " fill="#B74355" transform="translate(838.3125,297.5625)"/>
<path d="M0 0 C9.9 0 19.8 0 30 0 C38.23168987 21.41080622 46.33705342 42.86377364 54.2961731 64.37734985 C57.10617708 71.9722938 59.92432189 79.56422015 62.7421875 87.15625 C63.01653437 87.89551035 63.29088123 88.6347707 63.57354164 89.39643288 C67.9166256 101.09821918 72.27150878 112.79545396 76.67947388 124.47299194 C77.26332401 126.01985682 77.84624608 127.56707233 78.42819214 129.11465454 C79.20055379 131.16738232 79.97647336 133.21871975 80.75390625 135.26953125 C81.16970947 136.36885986 81.5855127 137.46818848 82.01391602 138.60083008 C82.78390756 140.91231114 82.78390756 140.91231114 84 142 C84.28496338 141.22241585 84.28496338 141.22241585 84.57568359 140.42912292 C95.63488761 110.25525797 106.74913951 80.10295658 118 50 C118.39241882 48.94989746 118.78483765 47.89979492 119.18914795 46.81787109 C121.69510436 40.1129545 124.20316491 33.40882931 126.71362305 26.70559692 C127.52544572 24.53780125 128.3369722 22.36989462 129.14819336 20.20187378 C130.27343482 17.19535102 131.40015527 14.18938699 132.52734375 11.18359375 C132.86507309 10.28060547 133.20280243 9.37761719 133.55076599 8.44726562 C133.86006546 7.62347412 134.16936493 6.79968262 134.48803711 5.95092773 C134.89196938 4.87306252 134.89196938 4.87306252 135.30406189 3.77342224 C136 2 136 2 137 0 C146.9 0 156.8 0 167 0 C165.12216395 5.63350814 163.22679 11.1914611 161.09375 16.72265625 C160.81732162 17.44355438 160.54089325 18.16445251 160.25608826 18.90719604 C159.33989294 21.29326775 158.42022209 23.67797859 157.5 26.0625 C157.17564972 26.90467072 156.85129944 27.74684143 156.51712036 28.61453247 C150.29736706 44.75727895 143.94443927 60.84639458 137.56054688 76.92480469 C133.11365724 88.12630319 128.68435119 99.33435909 124.28515625 110.5546875 C123.79784969 111.7972679 123.31053992 113.03984705 122.82322693 114.28242493 C120.92929431 119.11268165 119.03565041 123.94304697 117.14572144 128.77487183 C110.57332606 145.57787263 103.83565773 162.3022522 97 179 C88.09 179 79.18 179 70 179 C60.48902719 155.34520229 51.09054475 131.64824658 41.7807312 107.9135437 C35.19315307 91.11915666 28.58243511 74.3342769 21.9375 57.5625 C21.15604441 55.58904691 20.37463102 53.6155771 19.59326172 51.64208984 C16.37005272 43.50230032 13.14509507 35.36322234 9.91203308 27.2273407 C8.66423326 24.08552268 7.41906089 20.94266834 6.17459106 17.79953003 C5.60640907 16.36635336 5.03700022 14.93366238 4.46627808 13.50149536 C3.69971053 11.57771757 2.93723393 9.65236929 2.17578125 7.7265625 C1.75208252 6.66002441 1.32838379 5.59348633 0.8918457 4.49462891 C0 2 0 2 0 0 Z " fill="#243C50" transform="translate(1069,83)"/>
<path d="M0 0 C11.13132234 9.0730157 14.72036304 21.33558311 16.265625 35.15234375 C16.74235891 42.44487632 16.61773172 49.7550472 16.55859375 57.05859375 C16.55298386 59.12080575 16.54872037 61.1830218 16.54573059 63.24523926 C16.53439137 68.61769054 16.50502095 73.98989031 16.47161865 79.36224365 C16.44067945 84.86646118 16.42717478 90.37072019 16.41210938 95.875 C16.38013851 106.63424167 16.32746262 117.39323225 16.265625 128.15234375 C7.025625 128.15234375 -2.214375 128.15234375 -11.734375 128.15234375 C-11.74895752 125.60475342 -11.76354004 123.05716309 -11.77856445 120.43237305 C-11.82906939 111.98254713 -11.89569198 103.53290242 -11.97008991 95.08325481 C-12.01467569 89.96396672 -12.05395743 84.84475605 -12.08081055 79.7253418 C-12.10696163 74.77794766 -12.1474464 69.83085337 -12.19756126 64.88364601 C-12.21415052 63.00321008 -12.22571395 61.12272238 -12.23198891 59.24222374 C-12.02290559 40.82349781 -12.02290559 40.82349781 -20.09765625 24.74609375 C-24.80308168 20.16419978 -29.4534486 19.88194523 -35.796875 19.52734375 C-46.70369997 19.75411932 -56.13386188 24.67852015 -64.0546875 32.19140625 C-67.17963895 35.83960538 -69.50506173 39.91380864 -71.734375 44.15234375 C-72.08309662 44.69961121 -72.43181824 45.24687866 -72.79110718 45.81072998 C-74.1361929 49.14983598 -74.04278089 52.40379121 -74.05322266 55.95019531 C-74.06326828 56.73106506 -74.0733139 57.51193481 -74.08366394 58.31646729 C-74.11450145 60.89196044 -74.13153256 63.4673496 -74.1484375 66.04296875 C-74.1671487 67.83088069 -74.18672208 69.61878379 -74.2071228 71.40667725 C-74.2584551 76.10838615 -74.29807496 80.81012369 -74.33526611 85.51196289 C-74.37529886 90.3114328 -74.42639454 95.11078348 -74.4765625 99.91015625 C-74.57333487 109.32414334 -74.65671288 118.73817959 -74.734375 128.15234375 C-83.974375 128.15234375 -93.214375 128.15234375 -102.734375 128.15234375 C-102.734375 84.59234375 -102.734375 41.03234375 -102.734375 -3.84765625 C-94.154375 -3.84765625 -85.574375 -3.84765625 -76.734375 -3.84765625 C-76.404375 4.07234375 -76.074375 11.99234375 -75.734375 20.15234375 C-73.424375 17.18234375 -71.114375 14.21234375 -68.734375 11.15234375 C-52.14640174 -5.22398073 -20.63544552 -13.94366533 0 0 Z " fill="#253D50" transform="translate(1501.734375,133.84765625)"/>
<path d="M0 0 C8.91 0 17.82 0 27 0 C27.0093457 2.47129395 27.01869141 4.94258789 27.02832031 7.48876953 C27.06226276 15.70311117 27.11790627 23.91720614 27.18390274 32.13134956 C27.22321787 37.10597067 27.25548401 42.08041899 27.27099609 47.05517578 C27.28626865 51.86649012 27.32089914 56.67732889 27.36830902 61.48843002 C27.38301443 63.31335158 27.3910347 65.13834108 27.39188385 66.96332169 C27.30468418 86.39462946 27.30468418 86.39462946 35.3984375 103.6015625 C39.86578944 107.50232346 45.27673285 110.22817535 51.25 110.5625 C63.55728655 109.71447142 74.51553969 105.1071851 82.87109375 95.94921875 C84.38013351 94.01117516 85.71841336 92.09541317 87 90 C87.67589172 88.97414291 88.35178345 87.94828583 89.04815674 86.89134216 C91.38580669 82.76708187 91.57716114 79.25314913 91.54589844 74.58618164 C91.56140495 73.37032883 91.56140495 73.37032883 91.57722473 72.12991333 C91.60652463 69.47312177 91.60814915 66.81709628 91.609375 64.16015625 C91.62436534 62.30926573 91.64109428 60.45838854 91.65948486 58.60752869 C91.70307479 53.75291307 91.72313893 48.89847789 91.73822021 44.04370117 C91.75782146 39.08306242 91.79978808 34.12261767 91.83984375 29.16210938 C91.91505556 19.44143337 91.96333287 9.7208979 92 0 C100.91 0 109.82 0 119 0 C119.02505615 3.16505127 119.0501123 6.33010254 119.07592773 9.59106445 C119.15929528 20.03256983 119.24799482 30.47402496 119.33933926 40.91546345 C119.39457243 47.24790502 119.44799313 53.5803512 119.49731445 59.9128418 C119.54495208 66.02068868 119.59729479 72.12847856 119.65294075 78.23625755 C119.67336701 80.5699033 119.69207963 82.90356467 119.70907402 85.23723793 C119.73311191 88.49846692 119.76316751 91.75958783 119.79467773 95.02075195 C119.8004332 95.99179367 119.80618866 96.96283539 119.81211853 97.96330261 C119.82190735 98.85091278 119.83169617 99.73852295 119.84178162 100.6530304 C119.84823417 101.42457112 119.85468672 102.19611185 119.8613348 102.9910326 C119.93015823 105.20739387 119.93015823 105.20739387 121 108 C122.98 108.66 124.96 109.32 127 110 C127 117.26 127 124.52 127 132 C120.42600578 134.19133141 110.81972224 134.30796919 104.375 131.5 C100.21759102 128.87331459 97.62263254 125.64214004 96 121 C95.3272558 116.33095443 95.07282927 111.71404029 95 107 C94.47792969 107.70125 93.95585938 108.4025 93.41796875 109.125 C85.39094549 119.47156588 76.30373785 126.30733449 64 131 C63.36739258 131.26039063 62.73478516 131.52078125 62.08300781 131.7890625 C55.69401451 134.21693749 49.78633086 134.45153757 43 134.375 C41.97132812 134.38660156 40.94265625 134.39820313 39.8828125 134.41015625 C29.2929327 134.36973686 21.54903707 131.85540744 13.5 124.8125 C0.12148357 109.76166902 -0.74049608 92.60744827 -0.48828125 73.33984375 C-0.47893052 71.21180562 -0.47182513 69.08375657 -0.46684265 66.95570374 C-0.44795064 61.41373833 -0.39900766 55.87245101 -0.34332275 50.33074951 C-0.29174167 44.65223355 -0.26924643 38.97360568 -0.24414062 33.29492188 C-0.19086788 22.19627204 -0.10308214 11.09829906 0 0 Z " fill="#233B4F" transform="translate(1636,130)"/>
<path d="M0 0 C0.26407337 4.11273281 -0.54210689 6.8202922 -2.2109375 10.56640625 C-4.84615781 16.63407972 -7.26516114 22.75819312 -9.625 28.9375 C-10.04813477 30.04504639 -10.47126953 31.15259277 -10.90722656 32.29370117 C-11.80679652 34.6490675 -12.70587493 37.0046216 -13.60449219 39.36035156 C-15.017262 43.04502134 -16.44845934 46.72212168 -17.8828125 50.3984375 C-23.32510149 64.41463771 -28.54990498 78.34748803 -32 93 C-32.23976563 94.01707031 -32.47953125 95.03414063 -32.7265625 96.08203125 C-38.5915863 121.85726745 -41.91266561 152.0574983 -27.8828125 175.8984375 C-24.58813154 180.37465922 -19.87228334 182.62718957 -15 185 C-13.865625 185.5775 -12.73125 186.155 -11.5625 186.75 C-6.98200489 188.35719127 -2.83946417 188.66852985 2 189 C2 192.96 2 196.92 2 201 C-44.53 201 -91.06 201 -139 201 C-139 197.04 -139 193.08 -139 189 C-137.411875 188.7525 -135.82375 188.505 -134.1875 188.25 C-105.7101541 182.96291273 -89.59588748 160.57269347 -74.02734375 138.16015625 C-69.74023428 131.66601548 -66.3165215 124.82554543 -62.90625 117.84765625 C-61.34127894 114.65614405 -59.67546278 111.53902401 -57.9375 108.4375 C-51.75702318 97.25552621 -46.79075162 85.40622135 -41.82006836 73.64819336 C-40.93854404 71.56496728 -40.05058133 69.4845678 -39.16210938 67.40429688 C-35.6820354 59.21756351 -32.4211852 50.97420663 -29.34936523 42.62573242 C-27.53284497 37.74475858 -25.60027272 32.91759913 -23.63671875 28.09375 C-22.37896135 24.98717499 -21.1918823 21.85851415 -20.01953125 18.71875 C-19.6745459 17.81286133 -19.32956055 16.90697266 -18.97412109 15.97363281 C-18.29583989 14.19150726 -17.63025349 12.40448516 -16.97900391 10.61230469 C-14.61778687 4.4796825 -14.61778687 4.4796825 -11.37890625 1.96484375 C-7.41144007 0.35570722 -4.29551621 -0.11931989 0 0 Z " fill="#173147" transform="translate(276,306)"/>
<path d="M0 0 C1.85699744 1.60613989 3.63489078 3.23429058 5.3515625 4.98828125 C3.76623441 9.54392186 1.36153169 13.30303894 -1.2734375 17.30078125 C-1.69367188 17.94595703 -2.11390625 18.59113281 -2.546875 19.25585938 C-3.57681991 20.83588849 -4.61209378 22.41244172 -5.6484375 23.98828125 C-8.75677639 22.16745188 -11.68253577 20.24052608 -14.5859375 18.11328125 C-23.72626477 12.10978222 -32.64931411 9.55396033 -43.4609375 9.48828125 C-44.23679199 9.48199707 -45.01264648 9.47571289 -45.81201172 9.46923828 C-52.80371864 9.62255866 -59.20390483 10.95117069 -64.6484375 15.48828125 C-67.58016655 19.15294256 -68.02108943 22.27440006 -67.91015625 26.93359375 C-67.44523515 30.58357135 -66.1458056 32.31252971 -63.6484375 34.98828125 C-54.55653127 40.79604814 -43.57735363 43.4502597 -33.38525391 46.68334961 C-2.51036608 56.51872583 -2.51036608 56.51872583 4.7890625 68.67578125 C9.01299029 77.63050817 8.69431177 89.4535833 5.38671875 98.71484375 C0.18746559 110.13358089 -8.42903446 116.52327071 -19.9765625 120.86328125 C-40.27418454 127.85319083 -65.44409535 125.17082017 -84.6484375 115.98828125 C-90.77839618 112.55298307 -96.40616265 108.66382368 -101.6484375 103.98828125 C-101.03581119 101.16747746 -100.17688941 98.85019269 -98.80078125 96.31640625 C-98.26420898 95.32060547 -98.26420898 95.32060547 -97.71679688 94.3046875 C-97.34361328 93.62277344 -96.97042969 92.94085938 -96.5859375 92.23828125 C-96.20888672 91.54089844 -95.83183594 90.84351563 -95.44335938 90.125 C-94.51570362 88.41059823 -93.58260296 86.69914464 -92.6484375 84.98828125 C-88.83000422 85.80489668 -86.67448579 87.31838774 -83.5859375 89.73828125 C-71.7848418 98.54177242 -59.29758331 102.139806 -44.7109375 102.23828125 C-43.95103516 102.25890625 -43.19113281 102.27953125 -42.40820312 102.30078125 C-34.78372398 102.35286992 -28.26446246 100.439129 -22.6484375 94.98828125 C-20.8048935 91.96331116 -20.32778413 89.57787755 -20.2734375 86.05078125 C-20.24507812 85.21675781 -20.21671875 84.38273437 -20.1875 83.5234375 C-20.82189834 80.03424664 -22.14574944 78.47853874 -24.6484375 75.98828125 C-27.53263189 74.43062421 -27.53263189 74.43062421 -30.7734375 73.36328125 C-31.82789063 72.97914063 -32.88234375 72.595 -33.96875 72.19921875 C-37.63598168 70.9923803 -41.32023536 69.87395015 -45.02050781 68.77392578 C-82.90307831 57.44857165 -82.90307831 57.44857165 -90.140625 45.53125 C-94.76568783 36.60775307 -96.2300114 27.96528155 -93.96484375 17.97265625 C-90.3042449 7.09718416 -83.5231084 -0.85453208 -73.33984375 -6.23046875 C-50.59929595 -16.08844021 -20.14616839 -15.30276802 0 0 Z " fill="#243C50" transform="translate(1879.6484375,140.01171875)"/>
<path d="M0 0 C7.26 0 14.52 0 22 0 C22.01458252 2.33441162 22.02916504 4.66882324 22.04418945 7.07397461 C22.09489937 14.85321307 22.1615542 22.63225894 22.23571491 30.41130733 C22.28012999 35.1201342 22.31944655 39.82888025 22.34643555 44.5378418 C22.37276049 49.09624148 22.41335988 53.65432516 22.46318626 58.21252632 C22.47966038 59.93728212 22.49129403 61.66209231 22.49761391 63.38691521 C22.45142444 86.99781077 22.45142444 86.99781077 32.25 107.75 C40.30682208 114.34194534 47.82568842 115.07449245 57.93164062 114.27050781 C70.38557049 112.64173606 79.67440764 104.14262018 87.17578125 94.72265625 C91.48566922 88.29012539 93.59761328 83.16013868 93.54589844 75.38085938 C93.56140495 74.15015717 93.56140495 74.15015717 93.57722473 72.89459229 C93.60647723 70.21077367 93.60814814 67.52771496 93.609375 64.84375 C93.62436855 62.97186866 93.64109815 61.1000005 93.65948486 59.22814941 C93.70303878 54.32258471 93.72313091 49.41719844 93.73822021 44.51147461 C93.75783451 39.49712628 93.79979962 34.48296943 93.83984375 29.46875 C93.9150165 19.64586015 93.96331829 9.82310908 94 0 C101.26 0 108.52 0 116 0 C116.029729 4.97477417 116.029729 4.97477417 116.06005859 10.05004883 C116.12687416 20.99050868 116.20451481 31.93087223 116.28752708 42.87122059 C116.33753801 49.50632944 116.38386763 56.141422 116.421875 62.77661133 C116.45866716 69.17627327 116.50501056 75.57580043 116.55806351 81.97534752 C116.57663977 84.42062714 116.59173568 86.86593569 116.60334396 89.31125832 C116.62015105 92.72823608 116.64917289 96.14490294 116.68115234 99.56176758 C116.68331253 100.57956299 116.68547272 101.5973584 116.68769836 102.64599609 C116.69886185 103.57567703 116.71002533 104.50535797 116.7215271 105.46321106 C116.72705786 106.27162351 116.73258862 107.08003595 116.73828697 107.91294575 C116.88031007 110.3045665 116.88031007 110.3045665 119 113 C120.98 113.495 120.98 113.495 123 114 C123 119.94 123 125.88 123 132 C117.90393486 133.69868838 112.00710632 134.01153119 106.86328125 132.28125 C102.36362477 129.86061051 99.26968555 126.5393711 97 122 C96.7677354 119.28737884 96.58063765 116.59226874 96.4375 113.875 C96.39431641 113.12089844 96.35113281 112.36679687 96.30664062 111.58984375 C96.2005168 109.72678112 96.09974999 107.86341476 96 106 C95.59910156 106.556875 95.19820312 107.11375 94.78515625 107.6875 C84.53524414 121.4470192 72.06600992 129.86765325 55.2109375 133.62109375 C44.15916527 134.92525665 30.71539733 136.20092595 21 130 C20.21625 129.51402344 19.4325 129.02804687 18.625 128.52734375 C6.93440635 120.39392087 3.0671481 107.08666536 0.43030167 93.69791031 C-0.22003535 89.62041987 -0.26341075 85.63220509 -0.22705078 81.51123047 C-0.22734283 80.62219528 -0.22763489 79.7331601 -0.22793579 78.81718445 C-0.22655709 75.91708155 -0.21106561 73.01724478 -0.1953125 70.1171875 C-0.19157717 68.09123881 -0.18873265 66.06528831 -0.18673706 64.03933716 C-0.17914158 58.73591018 -0.15952861 53.43259469 -0.1373291 48.12921143 C-0.1167822 42.70594795 -0.10771651 37.28266627 -0.09765625 31.859375 C-0.0762785 21.23952675 -0.04113009 10.61979014 0 0 Z " fill="#B74355" transform="translate(1176,346)"/>
<path d="M0 0 C2.24497503 2.76389419 3.60683597 5.2044929 4.7265625 8.578125 C5.03142578 9.47917969 5.33628906 10.38023438 5.65039062 11.30859375 C6.13282227 12.76458984 6.13282227 12.76458984 6.625 14.25 C9.44176198 22.5581316 12.38258071 30.79994891 15.5 39 C19.8911195 50.59165164 23.97123822 62.27842362 28 74 C32.2701895 86.39608059 36.72433268 98.71213294 41.30371094 110.99755859 C44.11388769 118.55378786 46.82697313 126.13584777 49.44384766 133.76098633 C50.93477055 138.07119745 52.50340392 142.33707265 54.171875 146.58203125 C54.53845215 147.51805176 54.9050293 148.45407227 55.28271484 149.41845703 C55.98676382 151.20328571 56.69995815 152.98454719 57.42431641 154.76123047 C59.587706 160.24507067 60.58583295 165.11291128 61 171 C51.2616396 174.09856922 39.13934882 177.08622573 29 175 C26.51489935 171.49009498 25.0453604 167.78264056 23.58203125 163.7578125 C22.91385376 161.92935791 22.91385376 161.92935791 22.23217773 160.06396484 C21.75872187 158.75105947 21.28550153 157.43806913 20.8125 156.125 C20.31805222 154.76373926 19.82333899 153.4025749 19.32836914 152.04150391 C16.14550571 143.26849402 13.04095432 134.46934432 9.99609375 125.64746094 C7.31275314 117.87398748 4.57358433 110.12119061 1.8125 102.375 C1.20619751 100.66836182 1.20619751 100.66836182 0.58764648 98.92724609 C-1.82337691 92.17519654 -4.3341795 85.47123742 -6.94726562 78.79467773 C-8.16531582 75.56113863 -9.14420612 72.34537608 -10 69 C-10.66 69 -11.32 69 -12 69 C-12.39832031 70.14597656 -12.79664063 71.29195313 -13.20703125 72.47265625 C-13.74205938 74.00264898 -14.27722285 75.53259438 -14.8125 77.0625 C-15.07353516 77.81466797 -15.33457031 78.56683594 -15.60351562 79.34179688 C-17.23062018 83.98205803 -19.05970114 88.47957183 -21 93 C-21.62042331 94.75786605 -22.24001314 96.51614902 -22.8359375 98.2824707 C-25.97161705 107.5730742 -29.64890369 116.61562869 -33.38842773 125.67675781 C-36.24974959 132.63633966 -39.0382444 139.61890125 -41.75390625 146.63671875 C-42.07056244 147.45489578 -42.38721863 148.27307281 -42.71347046 149.11604309 C-44.28311639 153.1770343 -45.84641665 157.24039018 -47.40429688 161.3059082 C-47.97911483 162.79770878 -48.55398224 164.2894903 -49.12890625 165.78125 C-49.38990616 166.46752975 -49.65090607 167.15380951 -49.91981506 167.86088562 C-51.06978816 170.83798857 -52.21975464 173.32963196 -54 176 C-56.8203125 176.29296875 -56.8203125 176.29296875 -60.125 176.1875 C-61.76855469 176.14689453 -61.76855469 176.14689453 -63.4453125 176.10546875 C-64.28835938 176.07066406 -65.13140625 176.03585937 -66 176 C-64.58133614 168.64595326 -62.25714498 161.91571631 -59.5625 154.9375 C-59.16740234 153.90044922 -58.77230469 152.86339844 -58.36523438 151.79492188 C-57.59579725 149.7759496 -56.82406852 147.75784884 -56.04980469 145.74072266 C-54.68107524 142.16738388 -53.34062748 138.58396975 -52 135 C-49.57422856 128.58344328 -47.10518551 122.1953626 -44.4375 115.875 C-42.50443704 111.28397546 -40.74006873 106.66065657 -39.08984375 101.9609375 C-37.83785788 98.55948486 -36.4870351 95.20403026 -35.13500977 91.84130859 C-33.04869772 86.6185726 -31.02505174 81.37172496 -29 76.125 C-28.57460938 75.03058594 -28.14921875 73.93617188 -27.7109375 72.80859375 C-25.32910113 66.63481542 -23.09606463 60.44655799 -21.08984375 54.14013672 C-19.85569839 50.58422774 -18.45765235 47.11300716 -17.04818726 43.62359619 C-15.41824736 39.54388232 -13.89146058 35.42727182 -12.36328125 31.30859375 C-11.69735422 29.52275342 -11.03133609 27.73694706 -10.36523438 25.95117188 C-9.33051052 23.17318211 -8.29666551 20.39487265 -7.2644043 17.6159668 C-6.25809116 14.90844339 -5.24843248 12.20218709 -4.23828125 9.49609375 C-3.92788406 8.65767441 -3.61748688 7.81925507 -3.29768372 6.95542908 C-1.11342552 1.11342552 -1.11342552 1.11342552 0 0 Z " fill="#163046" transform="translate(341,106)"/>
<path d="M0 0 C0.86625 0.66 1.7325 1.32 2.625 2 C3.41003906 2.57878906 4.19507813 3.15757812 5.00390625 3.75390625 C13.91172106 11.3872796 19.68323095 22.68406849 20.85546875 34.27978516 C21.91960592 49.16292584 19.89649277 62.63182288 10.57421875 74.78515625 C5.13851889 80.96159277 -0.65863457 85.98509513 -8.375 89 C-9.27476563 89.35578125 -10.17453125 89.7115625 -11.1015625 90.078125 C-21.12764732 92.9017002 -33.23117872 91.99960551 -42.375 87 C-54.88416185 79.03045334 -62.62439103 67.76985015 -65.87109375 53.3359375 C-68.26386243 37.49543786 -65.74901832 23.18563277 -56.375 10 C-42.15166488 -7.47054937 -19.33247441 -11.45628113 0 0 Z " fill="#D8D8D8" transform="translate(1109.375,370)"/>
<path d="M0 0 C3.07574403 1.67722612 5.49000319 3.56508856 8 6 C8.74765625 6.70898438 9.4953125 7.41796875 10.265625 8.1484375 C20.98163882 19.11283575 24.32349423 30.84255919 24.38720703 45.64941406 C24.20331886 57.72818091 20.79930776 68.56265147 13 78 C12.17435547 79.02673828 12.17435547 79.02673828 11.33203125 80.07421875 C4.0451194 88.23120963 -5.17368301 93.14540494 -16.05371094 93.83227539 C-29.68717038 94.07038471 -39.94605647 88.93289973 -49.80859375 79.4765625 C-53.46948173 75.33930229 -56.24735416 70.77021012 -59 66 C-59.66 65.01 -60.32 64.02 -61 63 C-61.22060531 60.13138945 -61.3280446 57.36245394 -61.3359375 54.4921875 C-61.3425943 53.65213165 -61.3492511 52.81207581 -61.35610962 51.94656372 C-61.36623727 50.16622098 -61.3709266 48.38584027 -61.37060547 46.60546875 C-61.37495076 43.90559503 -61.41118952 41.20739391 -61.44921875 38.5078125 C-61.4550928 36.77344305 -61.45905825 35.03906588 -61.4609375 33.3046875 C-61.47530853 32.50747284 -61.48967957 31.71025818 -61.50448608 30.8888855 C-61.4347593 22.15843076 -57.94218451 15.22836167 -52.04296875 8.9140625 C-36.58454825 -5.56897009 -19.18760146 -8.27657408 0 0 Z " fill="#D8D7D8" transform="translate(1409,368)"/>
<path d="M0 0 C9.24 0 18.48 0 28 0 C28 14.52 28 29.04 28 44 C37.57 44 47.14 44 57 44 C57 51.26 57 58.52 57 66 C47.43 66 37.86 66 28 66 C28.08552885 76.08371229 28.17929324 86.16725589 28.28752708 96.25075054 C28.33745666 100.93300607 28.38378704 105.61523941 28.421875 110.29760742 C28.45876992 114.81699318 28.50514139 119.33619175 28.55806351 123.85541725 C28.57658508 125.57893398 28.5917013 127.30249081 28.60334396 129.02606773 C28.62024474 131.44164543 28.64928875 133.8567965 28.68115234 136.2722168 C28.68331253 136.98359802 28.68547272 137.69497925 28.68769836 138.42791748 C28.75393918 142.36301639 29.13314586 145.50509549 31 149 C37.31681354 152.62530168 45.70031085 151.8432539 52.515625 150.1015625 C55.38148824 149.14401104 58.1983987 148.13073638 61 147 C61.84358924 149.7055112 62.67504771 152.41380543 63.5 155.125 C63.73847656 155.88554687 63.97695312 156.64609375 64.22265625 157.4296875 C65.52612223 161.74974618 66.291817 165.43306391 66 170 C49.19148322 177.21337157 33.00929042 181.27025033 15 175 C8.47533779 171.52719592 3.75080158 166.26428975 0.95120239 159.44552612 C-0.22527746 155.18398083 -0.26516918 151.3618405 -0.22705078 146.96533203 C-0.22734283 146.07688095 -0.22763489 145.18842987 -0.22793579 144.27305603 C-0.22654808 141.35120709 -0.21101317 138.42961662 -0.1953125 135.5078125 C-0.19158039 133.47614684 -0.18873435 131.44447938 -0.18673706 129.41281128 C-0.17911624 124.07644647 -0.15948104 118.74019126 -0.1373291 113.40386963 C-0.11683727 107.95415733 -0.10772821 102.50442725 -0.09765625 97.0546875 C-0.07623369 86.36973587 -0.04106416 75.68489421 0 65 C-5.61 65 -11.22 65 -17 65 C-17 58.07 -17 51.14 -17 44 C-11.39 44 -5.78 44 0 44 C0 29.48 0 14.96 0 0 Z " fill="#253D50" transform="translate(1554,86)"/>
<path d="M0 0 C2.70556641 -0.34057617 2.70556641 -0.34057617 6.1015625 -0.29296875 C7.31328125 -0.28330078 8.525 -0.27363281 9.7734375 -0.26367188 C11.04445313 -0.23853516 12.31546875 -0.21339844 13.625 -0.1875 C14.90375 -0.17396484 16.1825 -0.16042969 17.5 -0.14648438 C20.66708282 -0.11103196 23.83333541 -0.06161441 27 0 C29.99296545 6.91816604 32.68360354 13.84313143 35.00830078 21.01318359 C36.66521242 26.00349797 38.56275487 30.90082833 40.4375 35.8125 C43.38694459 43.60284177 46.18977018 51.39867678 48.765625 59.3203125 C50.47445475 64.41435562 52.352012 69.44093509 54.22723389 74.47561646 C56.28805595 80.02507969 58.2767589 85.59548117 60.21875 91.1875 C62.78846548 98.55778812 65.38554547 105.91777757 68.0078125 113.26953125 C68.34533539 114.21632248 68.68285828 115.16311371 69.03060913 116.13859558 C70.40980777 120.00643196 71.78966981 123.87402924 73.17138672 127.7409668 C76.86622058 138.08459972 80.53849403 148.42548857 83.9206543 158.8762207 C85.03896663 162.11277494 86.32409107 165.23462772 87.6875 168.375 C89.77538953 173.22047947 91.04939618 177.81488826 92 183 C86.48825649 185.11750598 80.96448591 187.0427871 75.3125 188.75 C74.57966797 188.98332031 73.84683594 189.21664062 73.09179688 189.45703125 C65.75721889 191.66600244 65.75721889 191.66600244 62 190 C60.8125 187.98828125 60.8125 187.98828125 60 185.3125 C59.51466797 183.80429687 59.51466797 183.80429687 59.01953125 182.265625 C58.68308594 181.18796875 58.34664063 180.1103125 58 179 C57.23820662 176.85094077 56.46690686 174.70523416 55.6875 172.5625 C53.60187693 166.71633809 51.5476238 160.85956626 49.5 155 C48.60735116 152.44912946 47.71443235 149.89835372 46.82128906 147.34765625 C46.3066751 145.87663132 45.79287423 144.40532141 45.28027344 142.93359375 C43.15618086 136.83973168 40.96247979 130.815226 38.4375 124.875 C36.432684 120.14537215 34.73793156 115.38802614 33.15234375 110.50390625 C29.33076025 98.88370151 25.16549661 87.37836264 20.90478516 75.91308594 C18.04936784 68.19768278 15.3056233 60.44330938 12.5625 52.6875 C9.21954183 43.23830608 5.86240762 33.79490191 2.4375 24.375 C2.11531494 23.48772217 1.79312988 22.60044434 1.46118164 21.6862793 C1.16332764 20.8694165 0.86547363 20.05255371 0.55859375 19.2109375 C0.28805176 18.46859863 0.01750977 17.72625977 -0.26123047 16.96142578 C-0.87306997 15.33699797 -1.5443257 13.73509074 -2.23046875 12.140625 C-3.40053961 8.88580859 -2.73760415 6.31921867 -2 3 C-1.34 2.01 -0.68 1.02 0 0 Z " fill="#152F45" transform="translate(350,84)"/>
<path d="M0 0 C44.55 0 89.1 0 135 0 C135 3.63 135 7.26 135 11 C134.20078125 11.08636719 133.4015625 11.17273438 132.578125 11.26171875 C113.32122204 13.72533662 98.42189741 23.89263424 86.57421875 39.1171875 C83.94293441 42.67358902 81.45784699 46.32236113 79 50 C78.60731934 50.58040039 78.21463867 51.16080078 77.81005859 51.75878906 C66.64414994 68.40310234 57.687218 86.72682541 49.3984375 104.9453125 C47.37916329 109.35612936 45.19585021 113.6748405 43 118 C39.04 118 35.08 118 31 118 C32.23314758 109.65253949 33.65716651 101.38759491 35.31640625 93.1171875 C39.31144986 70.86106218 39.33595406 46.74033142 28.1875 26.75 C20.50286456 17.08931545 11.95938155 12.99323026 0 11 C0 7.37 0 3.74 0 0 Z " fill="#142F45" transform="translate(568,84)"/>
<path d="M0 0 C9.26080887 5.56966797 17.95068901 13.19722813 22.1953125 23.3203125 C22.6315603 26.17271408 22.66330749 28.9850696 22.6640625 31.8671875 C22.67548279 33.08405243 22.67548279 33.08405243 22.68713379 34.32550049 C22.69789949 36.03663064 22.70080229 37.74782631 22.69628906 39.45898438 C22.69532035 42.049321 22.73690228 44.63665556 22.78125 47.2265625 C22.85908746 57.81315892 22.05038122 65.43838324 15.08984375 73.87109375 C5.42303799 82.05069863 -4.62360461 86.87650239 -17.42578125 86.62890625 C-30.05638462 85.47535981 -39.09216538 77.98847951 -47.08203125 68.6484375 C-49.70393932 65.10499711 -51.34325042 61.45848696 -52.8046875 57.3203125 C-53.2171875 56.2478125 -53.6296875 55.1753125 -54.0546875 54.0703125 C-56.60209512 41.33327441 -54.44553836 27.1876456 -48.0546875 15.8203125 C-37.26152178 -0.18149538 -18.45834333 -8.94760372 0 0 Z " fill="#D8D8D8" transform="translate(1000.8046875,154.6796875)"/>
<path d="M0 0 C0.99 0.33 1.98 0.66 3 1 C4.02734375 3.625 4.02734375 3.625 4.9375 7 C5.98438115 10.84309617 7.15135187 14.44564905 8.8203125 18.0546875 C11.6473579 24.24732553 13.75173847 30.68452768 15.9375 37.125 C16.38329594 38.42825433 16.82942412 39.73139505 17.27587891 41.03442383 C19.86120525 48.59209252 22.41381051 56.16011368 24.8671875 63.76171875 C25.78239906 66.37796145 26.76342764 68.92551343 27.8046875 71.4921875 C30.46454249 78.07622594 32.85601279 84.75312582 35.25 91.4375 C35.71349257 92.7155126 36.17703395 93.9935075 36.640625 95.27148438 C37.07375 96.47998047 37.506875 97.68847656 37.953125 98.93359375 C38.34661133 100.02728271 38.74009766 101.12097168 39.14550781 102.24780273 C40 105 40 105 40 108 C27.80105307 110.17497724 15.74880535 110.30824255 3.38500977 110.26074219 C0.07224173 110.2500315 -3.23998284 110.26068577 -6.55273438 110.2734375 C-18.19646013 110.27997176 -29.49491642 109.88337156 -41 108 C-40.37178464 104.4084086 -39.41107511 101.18682218 -38.08569336 97.79272461 C-37.69115463 96.77653549 -37.29661591 95.76034637 -36.89012146 94.71336365 C-36.46102982 93.62072708 -36.03193817 92.52809052 -35.58984375 91.40234375 C-35.14411514 90.25826553 -34.69838654 89.11418732 -34.239151 87.93544006 C-32.80909657 84.26795225 -31.37327915 80.60274988 -29.9375 76.9375 C-28.99769013 74.52813391 -28.05823341 72.11863005 -27.11914062 69.70898438 C-19.81803682 50.99809853 -19.81803682 50.99809853 -16.63720703 43.14501953 C-16.09321007 41.80003136 -16.09321007 41.80003136 -15.53822327 40.4278717 C-14.8801955 38.80623152 -14.21837263 37.18612229 -13.55149841 35.56809998 C-11.62829226 30.83311627 -10.06305567 26.07500326 -8.67344666 21.15611267 C-7.7710939 18.26713225 -6.35273031 15.70546062 -5 13 C-3.90420417 9.85215205 -2.87536545 6.68865158 -1.8671875 3.51171875 C-1 1 -1 1 0 0 Z " fill="#D6D6D7" transform="translate(329,174)"/>
<path d="M0 0 C-2.31622459 7.33471121 -5.12573378 14.43464696 -8.01220703 21.55908203 C-15.28498089 39.45735353 -15.28498089 39.45735353 -22.1875 57.5 C-26.91432118 70.2424447 -32.17059563 82.72195051 -38 95 C-50.33277673 93.44711743 -61.59793611 84.51274816 -69.4296875 75.1875 C-75.59095088 66.60464554 -77.88600607 58.47798477 -77 48 C-73.83596415 34.45712044 -63.03649206 23.41741224 -51.84765625 15.875 C-37.0192634 6.90662494 -17.48463044 -0.52983729 0 0 Z " fill="#D8D7D7" transform="translate(263,308)"/>
<path d="M0 0 C0 6.93 0 13.86 0 21 C-1.93875 21.268125 -3.8775 21.53625 -5.875 21.8125 C-21.20259927 24.22041104 -33.04019387 29.58731488 -42.65042114 42.15901184 C-48.30128813 51.08407584 -47.86172459 59.81152695 -47.8046875 70.01171875 C-47.81595541 71.83447515 -47.82984376 73.65721705 -47.84622192 75.47993469 C-47.88206683 80.24260172 -47.88265808 85.00462429 -47.87554932 89.76739502 C-47.87463247 94.6412692 -47.90755078 99.51490692 -47.9375 104.38867188 C-47.99118095 113.92592504 -48.0044335 123.46259663 -48 133 C-55.26 133 -62.52 133 -70 133 C-70 89.44 -70 45.88 -70 1 C-63.07 1 -56.14 1 -49 1 C-48.67 10.24 -48.34 19.48 -48 29 C-46.02 26.03 -44.04 23.06 -42 20 C-32.28884235 6.29013037 -16.61714641 -1.12278016 0 0 Z " fill="#B74355" transform="translate(1010,345)"/>
<path d="M0 0 C8.5790871 6.80274238 13.43411294 16.45572096 15.546875 27.01953125 C15.546875 28.33953125 15.546875 29.65953125 15.546875 31.01953125 C-10.853125 31.01953125 -37.253125 31.01953125 -64.453125 31.01953125 C-64.453125 20.22164453 -59.96661947 10.73609314 -52.453125 3.01953125 C-37.08864927 -10.99387606 -16.99354774 -11.40103839 0 0 Z " fill="#D5D5D6" transform="translate(1336.453125,155.98046875)"/>
<path d="M0 0 C2.22379474 2.22379474 2.78144769 3.71723511 3.84423828 6.65136719 C4.37587082 8.10624542 4.37587082 8.10624542 4.91824341 9.59051514 C5.29842621 10.64861389 5.67860901 11.70671265 6.0703125 12.796875 C6.47023407 13.89606262 6.87015564 14.99525024 7.28219604 16.12774658 C8.5683849 19.66661628 9.84680558 23.20823596 11.125 26.75 C11.96302813 29.06008219 12.8015644 31.36998012 13.640625 33.6796875 C15.29471665 38.23488223 16.94430911 42.79166958 18.59082031 47.34960938 C20.18222875 51.75126792 21.78592737 56.14812094 23.40136719 60.54101562 C23.77566864 61.56124817 24.14997009 62.58148071 24.53561401 63.63262939 C25.24046098 65.55216946 25.947798 67.47079758 26.6579895 69.3883667 C26.9679184 70.23377014 27.27784729 71.07917358 27.59716797 71.95019531 C27.86947235 72.68796204 28.14177673 73.42572876 28.42233276 74.18585205 C29 76 29 76 29 78 C9.86 78 -9.28 78 -29 78 C-25.62486316 66.74954385 -25.62486316 66.74954385 -24.02636719 62.56054688 C-23.66879333 61.61836304 -23.31121948 60.6761792 -22.94281006 59.70544434 C-22.56465149 58.71983521 -22.18649292 57.73422607 -21.796875 56.71875 C-21.3959967 55.66578735 -20.99511841 54.61282471 -20.58209229 53.5279541 C-19.30801629 50.18403783 -18.02902853 46.84202461 -16.75 43.5 C-15.90724259 41.28918045 -15.06479225 39.07824383 -14.22265625 36.8671875 C-9.53050964 24.55906178 -4.79473074 12.26852219 0 0 Z " fill="#D6D6D7" transform="translate(826,114)"/>
</svg>
