<?xml version="1.0" standalone="no"?>
<!DOCTYPE svg PUBLIC "-//W3C//DTD SVG 20010904//EN"
 "http://www.w3.org/TR/2001/REC-SVG-20010904/DTD/svg10.dtd">
<svg version="1.0" xmlns="http://www.w3.org/2000/svg"
 width="576.000000pt" height="576.000000pt" viewBox="0 0 576.000000 576.000000"
 preserveAspectRatio="xMidYMid meet">

<g transform="translate(0.000000,576.000000) scale(0.100000,-0.100000)"
fill="#000000" stroke="none">
<path d="M3865 4799 c-38 -11 -94 -64 -111 -106 -11 -25 -14 -115 -14 -408 l0
-375 -1760 0 c-1739 0 -1760 0 -1780 -20 -11 -11 -22 -30 -25 -42 -3 -13 -4
-506 -3 -1095 l3 -1072 23 -23 23 -23 654 -3 655 -2 0 -260 0 -260 -267 0
c-277 0 -335 -7 -353 -40 -18 -34 -12 -75 16 -101 l26 -24 1083 0 1083 0 26
24 c28 26 34 67 16 101 -18 33 -76 40 -352 40 l-268 0 0 260 0 260 600 0 600
0 0 -267 c0 -240 2 -272 19 -309 25 -55 76 -92 143 -104 36 -7 323 -10 799 -8
721 3 745 4 783 23 22 11 54 37 70 58 l31 39 3 1801 2 1800 -21 44 c-13 27
-37 55 -62 71 l-41 27 -785 2 c-438 1 -799 -3 -816 -8z m505 -793 c0 -663 2
-696 40 -716 38 -20 76 -7 300 105 184 92 233 121 240 141 6 15 10 243 10 570
l0 544 233 -2 232 -3 3 -1767 2 -1768 -765 0 -765 0 0 1763 c0 970 3 1767 7
1770 3 4 109 7 235 7 l228 0 0 -644z m430 126 l0 -517 -125 -63 c-69 -34 -130
-62 -135 -62 -7 0 -10 204 -10 580 l0 580 135 0 135 0 0 -518z m-1060 -1362
l0 -980 -1705 0 -1705 0 0 980 0 980 1705 0 1705 0 0 -980z m-1360 -1400 l0
-260 -345 0 -345 0 0 260 0 260 345 0 345 0 0 -260z"/>
<path d="M4542 2995 c-159 -35 -307 -152 -376 -299 -169 -357 71 -767 464
-793 165 -11 311 46 430 166 101 103 160 241 160 376 -1 363 -326 626 -678
550z m239 -161 c109 -33 194 -109 247 -222 24 -50 27 -69 27 -157 0 -91 -3
-106 -31 -165 -39 -83 -110 -154 -194 -194 -59 -28 -74 -31 -165 -31 -92 0
-106 3 -167 32 -83 39 -150 107 -192 193 -28 59 -31 74 -31 165 0 91 3 106 31
165 87 181 285 270 475 214z"/>
<path d="M4350 1523 c-34 -13 -50 -37 -50 -74 0 -52 35 -79 102 -79 42 0 54 5
80 30 24 25 29 36 23 58 -10 44 -38 64 -92 68 -26 2 -55 1 -63 -3z"/>
<path d="M4875 1521 c-54 -23 -64 -90 -20 -128 37 -32 113 -32 151 0 34 30 37
79 7 109 -24 23 -104 34 -138 19z"/>
<path d="M1163 3525 c-12 -8 -67 -94 -123 -190 -56 -96 -106 -175 -111 -175
-6 0 -84 34 -174 75 -91 41 -176 75 -190 75 -30 0 -75 -40 -75 -67 0 -10 36
-155 81 -323 55 -204 89 -312 102 -327 l20 -23 513 0 513 0 18 23 c10 13 56
162 102 334 77 287 83 312 70 339 -8 16 -27 33 -42 38 -34 12 -55 5 -253 -86
l-140 -65 -104 179 c-57 99 -113 186 -124 194 -26 18 -56 18 -83 -1z m137
-389 c40 -71 82 -138 92 -148 27 -27 56 -22 155 23 48 23 107 49 130 59 l41
19 -24 -87 c-13 -48 -34 -127 -47 -177 l-24 -90 -419 0 -418 0 -48 175 c-26
96 -46 175 -45 176 1 1 58 -25 127 -57 69 -32 135 -58 148 -58 36 -1 70 41
156 192 69 120 80 135 91 120 6 -10 45 -76 85 -147z"/>
<path d="M2286 3519 c-35 -28 -36 -80 -1 -114 20 -21 34 -25 85 -25 51 0 65 4
85 25 16 15 25 36 25 55 0 19 -9 40 -25 55 -33 34 -128 36 -169 4z"/>
<path d="M2605 3515 c-38 -37 -30 -97 16 -120 42 -22 876 -22 918 0 48 24 56
81 16 120 l-24 25 -451 0 -451 0 -24 -25z"/>
<path d="M2315 3109 c-38 -11 -55 -34 -55 -75 0 -23 8 -39 26 -53 26 -21 35
-21 636 -21 l609 0 24 25 c32 31 32 66 1 102 l-24 28 -594 2 c-333 1 -606 -2
-623 -8z"/>
<path d="M2801 2580 c-89 -19 -179 -100 -209 -189 -7 -19 -12 -64 -12 -100 0
-116 61 -209 170 -260 l55 -26 275 0 275 0 57 28 c221 108 222 409 3 525 l-50
27 -260 2 c-143 1 -280 -2 -304 -7z m561 -173 c33 -23 58 -74 58 -121 0 -29
-8 -46 -39 -79 l-40 -42 -248 -3 c-222 -2 -252 -1 -282 15 -51 26 -74 64 -74
118 0 54 23 92 74 118 30 16 60 17 279 15 217 -3 248 -5 272 -21z"/>
<path d="M675 2455 c-45 -44 -24 -115 37 -130 13 -3 243 -4 511 -3 l489 3 24
28 c31 36 31 71 -1 102 l-24 25 -506 0 -506 0 -24 -25z"/>
</g>
</svg>
