<?xml version="1.0" encoding="UTF-8"?>
<svg version="1.1" xmlns="http://www.w3.org/2000/svg" width="64" height="64">
<path d="M0 0 C10.23 0 20.46 0 31 0 C31 6.27 31 12.54 31 19 C20.77 19 10.54 19 0 19 C0 12.73 0 6.46 0 0 Z M23 2 C23 6.95 23 11.9 23 17 C23.66 17 24.32 17 25 17 C25 12.05 25 7.1 25 2 C24.34 2 23.68 2 23 2 Z M17 6 C17 9.63 17 13.26 17 17 C17.66 17 18.32 17 19 17 C19 13.37 19 9.74 19 6 C18.34 6 17.68 6 17 6 Z M11 9 C11 11.64 11 14.28 11 17 C11.66 17 12.32 17 13 17 C13 14.36 13 11.72 13 9 C12.34 9 11.68 9 11 9 Z M5 11 C5 12.98 5 14.96 5 17 C5.66 17 6.32 17 7 17 C7 15.02 7 13.04 7 11 C6.34 11 5.68 11 5 11 Z " fill="#000000" transform="translate(29,10)"/>
<path d="M0 0 C1.57043101 0.01330874 3.14079971 0.03717648 4.7109375 0.0703125 C5.51273438 0.07933594 6.31453125 0.08835937 7.140625 0.09765625 C9.12252273 0.12125027 11.10426731 0.15712185 13.0859375 0.1953125 C14.61860332 3.26064414 14.18870221 6.46285522 14.1484375 9.8203125 C14.14392578 10.52671875 14.13941406 11.233125 14.13476562 11.9609375 C14.12297625 13.70576525 14.10504074 15.4505495 14.0859375 17.1953125 C13.0959375 17.5253125 12.1059375 17.8553125 11.0859375 18.1953125 C11.0859375 14.8953125 11.0859375 11.5953125 11.0859375 8.1953125 C10.4259375 8.1953125 9.7659375 8.1953125 9.0859375 8.1953125 C9.0859375 16.7753125 9.0859375 25.3553125 9.0859375 34.1953125 C7.1059375 34.6903125 7.1059375 34.6903125 5.0859375 35.1953125 C5.0859375 29.9153125 5.0859375 24.6353125 5.0859375 19.1953125 C4.4259375 19.1953125 3.7659375 19.1953125 3.0859375 19.1953125 C3.0859375 24.4753125 3.0859375 29.7553125 3.0859375 35.1953125 C1.7659375 34.8653125 0.4459375 34.5353125 -0.9140625 34.1953125 C-0.9140625 25.6153125 -0.9140625 17.0353125 -0.9140625 8.1953125 C-1.5740625 8.1953125 -2.2340625 8.1953125 -2.9140625 8.1953125 C-2.9140625 11.4953125 -2.9140625 14.7953125 -2.9140625 18.1953125 C-3.9040625 17.8653125 -4.8940625 17.5353125 -5.9140625 17.1953125 C-5.96790098 14.73668849 -6.00765288 12.279237 -6.0390625 9.8203125 C-6.05582031 9.12164062 -6.07257812 8.42296875 -6.08984375 7.703125 C-6.10750517 5.86633764 -6.01709511 4.02929287 -5.9140625 2.1953125 C-3.9140625 0.1953125 -3.9140625 0.1953125 0 0 Z " fill="#000000" transform="translate(9.9140625,23.8046875)"/>
<path d="M0 0 C11.22 0 22.44 0 34 0 C34 0.99 34 1.98 34 3 C29.545 3.495 29.545 3.495 25 4 C25.28875 5.03640625 25.5775 6.0728125 25.875 7.140625 C26.25026547 8.51034396 26.62525079 9.8801397 27 11.25 C27.19078125 11.93191406 27.3815625 12.61382812 27.578125 13.31640625 C28.49957044 16.70600912 29 19.45778976 29 23 C28.01 22.67 27.02 22.34 26 22 C25.23217773 20.25 25.23217773 20.25 24.68359375 18 C24.47669922 17.195625 24.26980469 16.39125 24.05664062 15.5625 C23.85232422 14.716875 23.64800781 13.87125 23.4375 13 C23.02674374 11.33154115 22.60911962 9.66475325 22.18359375 8 C22.00368896 7.2575 21.82378418 6.515 21.63842773 5.75 C21.1499677 3.78873872 21.1499677 3.78873872 19 3 C19 8.28 19 13.56 19 19 C18.01 19 17.02 19 16 19 C16 13.72 16 8.44 16 3 C15.01 3 14.02 3 13 3 C12.89042969 3.60585938 12.78085937 4.21171875 12.66796875 4.8359375 C11.49558943 11.03143795 9.91661553 16.99460467 8 23 C7.01 22.67 6.02 22.34 5 22 C5.64279009 19.20760027 6.28908665 16.41609416 6.9375 13.625 C7.11990234 12.8309375 7.30230469 12.036875 7.49023438 11.21875 C7.66748047 10.45820312 7.84472656 9.69765625 8.02734375 8.9140625 C8.18968506 8.2123291 8.35202637 7.5105957 8.51928711 6.78759766 C9 5 9 5 10 3 C6.7 3 3.4 3 0 3 C0 2.01 0 1.02 0 0 Z " fill="#000000" transform="translate(27,30)"/>
<path d="M0 0 C11.22 0 22.44 0 34 0 C34 0.99 34 1.98 34 3 C22.78 3 11.56 3 0 3 C0 2.01 0 1.02 0 0 Z " fill="#000000" transform="translate(27,6)"/>
<path d="M0 0 C2.9375 0.8125 2.9375 0.8125 4.9375 3.8125 C4.75 6.375 4.75 6.375 3.9375 8.8125 C0.9375 10.8125 0.9375 10.8125 -2.125 10.625 C-5.0625 9.8125 -5.0625 9.8125 -7.0625 6.8125 C-6.875 4.25 -6.875 4.25 -6.0625 1.8125 C-3.0625 -0.1875 -3.0625 -0.1875 0 0 Z " fill="#000000" transform="translate(15.0625,10.1875)"/>
</svg>
