<?xml version="1.0" standalone="no"?>
<!DOCTYPE svg PUBLIC "-//W3C//DTD SVG 20010904//EN"
 "http://www.w3.org/TR/2001/REC-SVG-20010904/DTD/svg10.dtd">
<svg version="1.0" xmlns="http://www.w3.org/2000/svg"
 width="576.000000pt" height="576.000000pt" viewBox="0 0 576.000000 576.000000"
 preserveAspectRatio="xMidYMid meet">

<g transform="translate(0.000000,576.000000) scale(0.100000,-0.100000)"
fill="#000000" stroke="none">
<path d="M987 5430 c-126 -16 -258 -116 -315 -237 l-27 -58 0 -2255 0 -2255
31 -65 c54 -114 154 -196 274 -224 97 -23 2372 -23 2469 -1 130 31 226 109
284 233 l32 67 3 403 3 402 84 0 c113 0 115 2 115 176 l0 131 98 32 c53 17
133 51 177 74 l80 43 95 -92 c52 -51 106 -95 119 -99 20 -6 43 13 187 157 94
94 164 172 164 182 0 10 -44 63 -97 117 l-97 99 51 107 c55 117 66 146 83 211
l11 42 138 0 c121 0 140 2 154 18 15 16 17 48 17 245 0 278 14 257 -176 257
l-132 0 -27 88 c-15 48 -48 129 -73 179 l-46 93 97 99 c55 56 97 107 97 117 0
25 -320 344 -345 344 -10 0 -63 -44 -119 -98 l-101 -98 -80 42 c-44 24 -124
57 -177 75 l-98 32 0 134 c0 169 -3 173 -120 173 l-80 0 0 370 c0 231 -4 389
-11 422 -35 169 -179 299 -351 319 -89 10 -2310 9 -2391 -1z m2469 -137 c64
-34 97 -67 129 -125 25 -45 30 -67 33 -145 l4 -93 -1437 0 -1438 0 5 83 c10
157 83 256 218 298 14 4 570 7 1235 6 l1210 -2 41 -22z m164 -728 l0 -245 -80
0 c-117 0 -120 -4 -120 -174 l0 -134 -86 -28 c-48 -15 -128 -48 -179 -74 l-93
-46 -100 98 c-54 54 -107 98 -118 98 -10 0 -87 -69 -182 -164 -144 -144 -163
-167 -157 -187 4 -13 49 -67 100 -119 l93 -95 -42 -77 c-34 -62 -72 -161 -102
-265 -2 -10 -39 -13 -139 -13 -188 0 -175 19 -175 -260 0 -279 -13 -260 175
-260 100 0 137 -3 139 -12 35 -118 58 -177 96 -253 l47 -90 -92 -95 c-51 -52
-96 -106 -100 -119 -6 -20 13 -43 157 -187 94 -95 172 -164 182 -164 11 0 64
44 120 99 l101 98 80 -43 c44 -24 124 -58 178 -75 l97 -31 0 -132 c0 -174 1
-176 116 -176 l84 0 0 -245 0 -245 -1435 0 -1435 0 0 1930 0 1930 1435 0 1435
0 0 -245z m200 -489 c0 -153 3 -159 112 -186 99 -25 205 -69 288 -120 36 -22
76 -40 89 -40 16 0 52 28 118 92 l93 92 95 -94 c52 -52 95 -99 95 -105 0 -6
-40 -51 -90 -100 -49 -49 -90 -97 -90 -107 0 -10 23 -57 50 -105 56 -97 81
-159 111 -272 29 -108 34 -111 190 -111 l129 0 0 -140 0 -140 -134 0 c-149 0
-159 -4 -171 -62 -21 -105 -97 -289 -154 -373 -12 -16 -21 -39 -21 -50 0 -12
36 -56 90 -110 50 -49 90 -94 90 -100 0 -6 -43 -53 -95 -105 l-95 -94 -93 92
c-63 61 -102 92 -117 92 -12 0 -49 -16 -81 -35 -87 -54 -180 -93 -282 -120
-125 -34 -127 -36 -127 -191 l0 -124 -140 0 -140 0 0 129 c0 146 -3 153 -73
171 -156 41 -238 75 -332 134 -30 20 -65 36 -77 36 -14 0 -55 -33 -115 -92
l-94 -92 -99 99 -100 99 90 92 c103 105 108 120 59 190 -48 70 -97 184 -125
291 -14 54 -33 104 -42 111 -11 8 -57 12 -144 12 l-128 0 0 140 0 140 129 0
c146 0 153 3 171 73 6 23 16 60 22 82 16 63 56 153 104 236 24 42 44 86 44 99
0 15 -30 53 -92 117 l-92 93 99 100 100 100 95 -95 c63 -63 103 -95 117 -95
13 0 48 16 78 36 95 60 181 95 332 134 70 18 73 25 73 171 l0 129 140 0 140 0
0 -124z m-202 -3338 c-3 -70 -10 -104 -26 -135 -30 -57 -85 -111 -141 -137
l-46 -21 -1215 0 -1215 0 -52 24 c-60 27 -117 84 -144 146 -11 24 -22 80 -25
129 l-7 86 1438 0 1437 0 -4 -92z"/>
<path d="M1242 4344 c-28 -19 -29 -57 -2 -84 20 -20 33 -20 950 -20 930 0 930
0 951 21 24 24 20 65 -8 87 -13 9 -217 12 -943 12 -821 0 -928 -2 -948 -16z"/>
<path d="M1242 3774 c-25 -17 -29 -51 -8 -80 14 -18 33 -19 532 -22 570 -3
564 -3 564 57 0 63 16 61 -551 61 -450 0 -517 -2 -537 -16z"/>
<path d="M1237 3202 c-23 -25 -21 -55 4 -78 20 -18 43 -19 338 -22 174 -2 330
0 348 3 40 7 63 29 63 60 0 55 -1 55 -384 55 -329 0 -354 -1 -369 -18z"/>
<path d="M1255 2648 c-40 -22 -47 -64 -17 -91 17 -15 59 -17 404 -17 331 0
387 2 398 15 20 24 15 67 -10 87 -21 17 -50 18 -389 18 -254 -1 -372 -4 -386
-12z"/>
<path d="M1240 2070 c-25 -25 -26 -62 -2 -83 17 -15 67 -17 509 -17 462 0 491
1 506 18 24 26 21 68 -5 86 -20 14 -84 16 -505 16 -470 0 -484 -1 -503 -20z"/>
<path d="M1240 1500 c-11 -11 -20 -29 -20 -40 0 -11 9 -29 20 -40 20 -20 33
-20 950 -20 917 0 930 0 950 20 25 25 25 41 -1 74 l-20 26 -930 0 c-916 0
-929 0 -949 -20z"/>
<path d="M3560 3689 c-314 -48 -572 -274 -666 -584 -24 -79 -27 -106 -27 -220
1 -100 6 -149 22 -210 119 -446 576 -707 1015 -580 107 31 171 62 258 127 159
117 261 268 315 469 25 94 22 288 -6 394 -76 285 -305 513 -585 585 -95 24
-238 32 -326 19z m335 -142 c109 -36 197 -89 276 -168 253 -251 279 -655 60
-929 -106 -133 -250 -222 -415 -257 -86 -18 -245 -12 -326 12 -202 62 -372
213 -453 402 -168 395 53 841 473 953 108 29 274 23 385 -13z"/>
<path d="M3315 3269 c-178 -139 -186 -148 -183 -183 3 -27 21 -45 141 -138 87
-68 147 -108 162 -108 32 0 55 25 55 59 0 24 -16 41 -105 111 -58 45 -105 83
-103 85 143 110 194 151 200 159 12 17 9 61 -4 74 -28 28 -71 12 -163 -59z"/>
<path d="M3886 3324 c-9 -8 -16 -26 -16 -38 0 -29 19 -46 198 -182 12 -9 -4
-26 -84 -89 -54 -43 -102 -83 -106 -89 -23 -34 8 -86 51 -86 25 0 273 189 298
227 11 16 13 30 7 44 -5 10 -70 67 -144 124 -140 108 -171 122 -204 89z"/>
<path d="M3536 3314 c-9 -8 -16 -23 -16 -32 0 -15 201 -403 222 -429 15 -18
63 -16 82 3 9 8 16 25 16 36 0 21 -191 389 -218 421 -19 21 -65 22 -86 1z"/>
<path d="M3283 2714 c-15 -23 -15 -29 -2 -52 8 -15 28 -29 47 -34 18 -5 187
-7 376 -6 322 3 345 4 365 22 25 23 27 44 5 74 l-15 22 -379 0 -380 0 -17 -26z"/>
<path d="M3286 2508 c-22 -31 -20 -45 9 -73 l24 -25 355 0 c250 0 363 3 381
12 33 15 42 51 21 83 l-16 25 -380 0 -379 0 -15 -22z"/>
</g>
</svg>
