<?xml version="1.0" standalone="no"?>
<!DOCTYPE svg PUBLIC "-//W3C//DTD SVG 20010904//EN"
 "http://www.w3.org/TR/2001/REC-SVG-20010904/DTD/svg10.dtd">
<svg version="1.0" xmlns="http://www.w3.org/2000/svg"
 width="576.000000pt" height="576.000000pt" viewBox="0 0 576.000000 576.000000"
 preserveAspectRatio="xMidYMid meet">

<g transform="translate(0.000000,576.000000) scale(0.100000,-0.100000)"
fill="#000000" stroke="none">
<path d="M1526 5385 c-49 -17 -93 -59 -117 -110 -15 -32 -19 -64 -19 -155 l0
-116 -66 -28 -65 -29 -88 86 c-48 48 -100 91 -115 97 -40 15 -123 12 -160 -5
-18 -9 -85 -68 -148 -133 -105 -106 -117 -122 -126 -167 -20 -93 5 -149 116
-258 l69 -69 -25 -64 -25 -64 -106 0 c-127 0 -170 -11 -218 -53 -63 -55 -73
-91 -73 -268 0 -146 1 -158 25 -205 15 -30 42 -61 68 -79 41 -29 46 -30 173
-33 l132 -4 24 -61 25 -62 -78 -81 c-42 -45 -85 -97 -95 -115 -23 -45 -23
-133 1 -179 23 -45 220 -237 262 -256 41 -18 124 -18 166 0 18 7 71 49 117 93
l84 79 63 -25 63 -26 0 -116 c0 -108 2 -121 28 -170 22 -43 38 -59 81 -81 51
-27 59 -28 200 -28 175 0 213 9 267 64 52 52 64 93 64 226 l0 105 59 26 59 26
93 -84 c68 -60 106 -87 139 -97 l45 -13 0 -104 0 -103 -105 -70 -105 -69 -260
-54 c-225 -46 -271 -59 -345 -95 -116 -56 -231 -170 -283 -278 -68 -142 -67
-124 -67 -938 l0 -734 29 -29 c37 -36 79 -38 118 -5 l28 24 5 754 c5 687 7
757 23 797 52 132 147 225 272 269 55 20 475 107 480 100 109 -141 242 -330
268 -384 l36 -71 -45 -579 c-25 -318 -43 -588 -40 -599 3 -11 77 -91 164 -177
141 -141 162 -158 192 -158 30 0 51 17 192 158 87 86 161 166 164 177 3 11
-15 281 -40 599 l-45 579 36 71 c19 39 87 141 151 226 63 85 116 156 117 157
5 7 447 -88 493 -105 59 -23 155 -91 172 -122 12 -23 60 -50 89 -50 11 0 33
12 50 26 67 56 18 152 -127 247 -104 68 -155 84 -424 138 l-251 51 -108 71
-109 72 0 106 0 105 48 23 c166 80 330 253 412 434 33 74 70 206 70 252 0 29
5 33 55 54 78 33 148 99 187 179 l33 67 0 230 c-1 148 -5 251 -13 290 -89 416
-380 736 -736 810 -109 22 -592 22 -702 -1 -150 -31 -306 -121 -406 -234 -29
-33 -56 -60 -60 -60 -5 0 -8 45 -8 101 0 55 -5 121 -12 147 -15 62 -78 125
-140 140 -66 17 -303 15 -352 -3z m324 -329 l5 -159 -41 -28 c-74 -51 -141
-140 -169 -226 -16 -49 -16 -49 -82 -66 -187 -49 -341 -212 -388 -408 -62
-266 94 -543 359 -637 92 -32 242 -36 324 -8 30 10 57 14 61 10 4 -5 16 -31
26 -59 9 -27 33 -79 51 -114 18 -35 31 -67 29 -71 -2 -4 -31 -15 -64 -25 -101
-30 -105 -39 -111 -223 l-5 -157 -135 0 -135 0 -5 157 c-6 183 -10 192 -108
222 -31 10 -87 34 -124 52 -106 53 -113 51 -238 -71 -58 -58 -113 -105 -121
-105 -8 0 -55 41 -104 90 l-90 90 102 103 c102 104 123 131 123 164 0 10 -18
53 -39 96 -22 43 -45 100 -51 127 -6 27 -22 58 -37 71 -23 23 -34 24 -181 29
l-157 5 0 135 0 135 157 5 c180 6 194 12 216 97 8 27 31 83 53 127 59 118 59
118 -84 263 l-102 103 90 90 c49 49 96 90 104 90 8 0 63 -47 121 -105 120
-118 139 -125 214 -81 23 13 75 35 116 50 142 50 140 46 140 240 0 78 3 146 7
150 4 3 66 5 137 4 l131 -3 5 -159z m1340 58 c260 -61 476 -291 562 -599 16
-56 21 -113 25 -285 5 -211 4 -216 -19 -259 -13 -24 -34 -51 -46 -59 -22 -14
-22 -14 -22 33 0 38 -5 52 -29 76 -27 26 -36 29 -98 29 -208 1 -478 39 -671
94 -191 56 -338 126 -471 225 -90 67 -131 53 -186 -63 -43 -92 -143 -190 -244
-241 -82 -41 -101 -64 -101 -122 0 -49 -7 -53 -38 -20 -48 51 -52 78 -52 365
l0 269 30 60 c44 89 111 135 220 152 74 12 80 17 120 87 65 116 200 217 340
255 90 25 580 27 680 3z m-1568 -931 c3 -215 3 -219 31 -279 32 -68 100 -141
162 -172 l40 -20 -59 -17 c-113 -33 -258 7 -346 95 -23 23 -56 72 -73 108 -28
59 -32 77 -32 152 1 110 33 186 111 260 49 46 121 89 151 90 8 0 12 -59 15
-217z m824 -49 c197 -126 565 -229 917 -256 l150 -11 -6 -113 c-9 -183 -68
-326 -190 -460 -166 -182 -418 -266 -659 -220 -151 29 -247 82 -374 206 -144
142 -203 277 -212 491 l-5 126 58 33 c67 38 174 136 216 197 17 24 34 43 39
43 5 0 35 -16 66 -36z m434 -1248 l90 9 0 -80 0 -80 -90 -90 -90 -90 -90 90
-90 90 0 80 0 80 90 -9 c56 -6 124 -6 180 0z m-290 -381 l74 -75 -64 -65 c-35
-36 -67 -65 -70 -65 -3 0 -25 28 -50 62 -25 34 -58 79 -73 99 l-28 38 58 40
c32 22 63 40 68 40 6 1 44 -33 85 -74z m550 33 l59 -41 -27 -37 c-15 -20 -47
-64 -72 -98 -25 -34 -47 -62 -50 -62 -3 0 -35 29 -70 65 l-64 65 74 75 c41 41
78 75 83 75 4 0 35 -19 67 -42z m-267 -316 l78 -79 -37 -75 -37 -75 42 -544
c23 -299 41 -560 41 -579 0 -31 -11 -46 -85 -120 l-85 -85 -89 90 -90 90 45
575 45 575 -36 74 -36 74 78 79 c42 43 80 78 83 78 3 0 41 -35 83 -78z"/>
<path d="M4437 2150 c-72 -23 -96 -55 -195 -259 -51 -108 -95 -197 -96 -198
-2 -2 -90 -17 -196 -33 -106 -17 -207 -37 -224 -44 -70 -29 -126 -121 -126
-206 1 -63 34 -112 183 -266 l146 -151 -35 -213 c-33 -206 -34 -215 -19 -267
29 -99 125 -164 224 -150 23 3 113 45 221 105 l181 99 162 -89 c208 -115 225
-122 290 -115 93 11 169 87 182 182 4 25 -7 118 -29 245 l-34 205 143 145
c154 156 185 202 185 280 0 80 -62 173 -132 199 -15 6 -114 24 -220 41 -106
17 -194 34 -196 38 -2 4 -47 95 -100 202 -84 170 -102 199 -138 223 -44 31
-127 44 -177 27z m178 -377 c53 -115 107 -218 119 -230 18 -19 52 -26 231 -53
226 -33 255 -41 255 -66 0 -9 -74 -93 -165 -185 -159 -163 -165 -170 -165
-210 0 -22 16 -135 35 -251 27 -161 33 -213 24 -224 -6 -8 -15 -14 -20 -14 -4
0 -95 48 -201 107 -142 78 -202 107 -228 107 -26 0 -86 -29 -228 -107 -106
-59 -197 -107 -201 -107 -5 0 -14 6 -20 14 -9 11 -3 63 24 224 19 116 35 228
35 251 0 38 -7 47 -165 209 -91 93 -165 177 -165 186 0 25 29 33 255 66 162
24 215 36 230 50 11 11 65 114 119 230 72 151 104 210 116 210 12 0 44 -58
115 -207z"/>
<path d="M1739 1681 l-29 -29 0 -572 0 -572 29 -29 c40 -39 82 -39 122 0 l29
29 0 572 0 572 -29 29 c-20 20 -39 29 -61 29 -22 0 -41 -9 -61 -29z"/>
</g>
</svg>
