<?xml version="1.0" encoding="UTF-8"?>
<svg version="1.1" xmlns="http://www.w3.org/2000/svg" width="64" height="64">
<path d="M0 0 C3 1 3 1 4.60546875 3.65234375 C5.12753906 4.73644531 5.64960937 5.82054687 6.1875 6.9375 C6.71730469 8.01902344 7.24710938 9.10054687 7.79296875 10.21484375 C9 13 9 13 9 15 C7.68 15 6.36 15 5 15 C5 14.34 5 13.68 5 13 C2.36 12.67 -0.28 12.34 -3 12 C-3.33 12.99 -3.66 13.98 -4 15 C-5.32 15 -6.64 15 -8 15 C-6.51194289 9.19657726 -3.40902445 4.82409121 0 0 Z M0 5 C-0.66 6.65 -1.32 8.3 -2 10 C-0.35 10 1.3 10 3 10 C2.34 8.35 1.68 6.7 1 5 C0.67 5 0.34 5 0 5 Z " fill="#151515" transform="translate(28,26)"/>
<path d="M0 0 C2.31 0 4.62 0 7 0 C7.33 2.64 7.66 5.28 8 8 C10.31 8.33 12.62 8.66 15 9 C15.33 11.31 15.66 13.62 16 16 C15.01 16 14.02 16 13 16 C13 14.35 13 12.7 13 11 C11.88625 11.3403125 11.88625 11.3403125 10.75 11.6875 C8 12 8 12 5.6875 11 C3.22313375 8.07926963 3.72128632 5.6929562 4 2 C2.68 2.33 1.36 2.66 0 3 C0 2.01 0 1.02 0 0 Z " fill="#121212" transform="translate(9,41)"/>
<path d="M0 0 C1.32 0.33 2.64 0.66 4 1 C3.67 1.99 3.34 2.98 3 4 C4.093125 3.9175 5.18625 3.835 6.3125 3.75 C10 4 10 4 11.9375 5.75 C13 8 13 8 13 12 C14.32 12 15.64 12 17 12 C17 12.99 17 13.98 17 15 C14.69 15 12.38 15 10 15 C10 13.02 10 11.04 10 9 C9.01 8.67 8.02 8.34 7 8 C7 7.34 7 6.68 7 6 C5.02 6 3.04 6 1 6 C0.67 4.02 0.34 2.04 0 0 Z " fill="#101010" transform="translate(38,11)"/>
<path d="M0 0 C0.66 0 1.32 0 2 0 C2 1.98 2 3.96 2 6 C0.6078125 6.2475 0.6078125 6.2475 -0.8125 6.5 C-4.39156248 8.1842647 -4.58971722 8.6106519 -5.875 12.125 C-6.27279427 13.40982976 -6.65532565 14.69991255 -7 16 C-9.31 15.34 -11.62 14.68 -14 14 C-13.67 13.34 -13.34 12.68 -13 12 C-11.68 12 -10.36 12 -9 12 C-9.061875 11.236875 -9.12375 10.47375 -9.1875 9.6875 C-9 7 -9 7 -7.875 5.1875 C-5.22464043 3.50893894 -3.06753576 3.79549762 0 4 C0 2.68 0 1.36 0 0 Z " fill="#151515" transform="translate(22,11)"/>
<path d="M0 0 C2.31 0 4.62 0 7 0 C7 0.66 7 1.32 7 2 C5.68 2 4.36 2 3 2 C2.87625 3.11375 2.7525 4.2275 2.625 5.375 C2 9 2 9 0 11 C-3.625 11.125 -3.625 11.125 -7 11 C-7 12.65 -7 14.3 -7 16 C-7.66 16 -8.32 16 -9 16 C-9 13.69 -9 11.38 -9 9 C-6.03 8.34 -3.06 7.68 0 7 C0 4.69 0 2.38 0 0 Z " fill="#050505" transform="translate(48,41)"/>
<path d="M0 0 C1.32 0.33 2.64 0.66 4 1 C4.02694851 2.95825873 4.04637218 4.91662226 4.0625 6.875 C4.07410156 7.96554688 4.08570313 9.05609375 4.09765625 10.1796875 C4 13 4 13 3 15 C2.01 15 1.02 15 0 15 C0 10.05 0 5.1 0 0 Z " fill="#2D2D2D" transform="translate(39,26)"/>
<path d="M0 0 C0.99 0 1.98 0 3 0 C3 3.3 3 6.6 3 10 C2.01 10 1.02 10 0 10 C-0.33 9.34 -0.66 8.68 -1 8 C-3.32156597 7.59270772 -5.6568787 7.25561323 -8 7 C-8 6.01 -8 5.02 -8 4 C-4.535 3.505 -4.535 3.505 -1 3 C-0.67 2.01 -0.34 1.02 0 0 Z " fill="#151515" transform="translate(13,28)"/>
<path d="M0 0 C0.99 0 1.98 0 3 0 C3 0.99 3 1.98 3 3 C5.31 3 7.62 3 10 3 C10 3.99 10 4.98 10 6 C7.69 6 5.38 6 3 6 C3 6.99 3 7.98 3 9 C2.01 9 1.02 9 0 9 C0 6.03 0 3.06 0 0 Z " fill="#000000" transform="translate(48,29)"/>
<path d="M0 0 C0 0.66 0 1.32 0 2 C-0.99 2 -1.98 2 -3 2 C-3 4.97 -3 7.94 -3 11 C-3.99 11 -4.98 11 -6 11 C-6 8.03 -6 5.06 -6 2 C-6.99 2 -7.98 2 -9 2 C-9 1.34 -9 0.68 -9 0 C-2.25 -1.125 -2.25 -1.125 0 0 Z " fill="#040404" transform="translate(36,50)"/>
<path d="M0 0 C0.99 0.33 1.98 0.66 3 1 C3 3.64 3 6.28 3 9 C3.99 9 4.98 9 6 9 C6 9.66 6 10.32 6 11 C3.03 11 0.06 11 -3 11 C-3 10.34 -3 9.68 -3 9 C-2.01 9 -1.02 9 0 9 C0 6.03 0 3.06 0 0 Z " fill="#040404" transform="translate(30,6)"/>
<path d="M0 0 C0.33 0 0.66 0 1 0 C1 2.64 1 5.28 1 8 C-1 9 -1 9 -4.125 8.0625 C-5.07375 7.711875 -6.0225 7.36125 -7 7 C-6.67 6.34 -6.34 5.68 -6 5 C-4.68 5 -3.36 5 -2 5 C-1.855625 4.360625 -1.71125 3.72125 -1.5625 3.0625 C-1 1 -1 1 0 0 Z " fill="#0B0B0B" transform="translate(15,18)"/>
</svg>
