<?xml version="1.0" standalone="no"?>
<!DOCTYPE svg PUBLIC "-//W3C//DTD SVG 20010904//EN"
 "http://www.w3.org/TR/2001/REC-SVG-20010904/DTD/svg10.dtd">
<svg version="1.0" xmlns="http://www.w3.org/2000/svg"
 width="576.000000pt" height="576.000000pt" viewBox="0 0 576.000000 576.000000"
 preserveAspectRatio="xMidYMid meet">

<g transform="translate(0.000000,576.000000) scale(0.100000,-0.100000)"
fill="#000000" stroke="none">
<path d="M1617 5495 c-90 -18 -221 -83 -285 -140 -52 -47 -65 -78 -40 -103 21
-21 48 -13 106 32 119 92 241 132 377 123 122 -9 232 -55 347 -148 51 -41 109
2 74 56 -23 35 -136 112 -207 141 -74 30 -192 54 -257 53 -26 0 -78 -7 -115
-14z"/>
<path d="M1615 5296 c-84 -27 -173 -85 -196 -128 -8 -15 -6 -25 6 -44 21 -32
47 -30 87 5 137 119 323 115 479 -10 18 -14 34 -19 48 -14 24 7 38 51 24 74
-18 28 -126 96 -182 114 -63 20 -206 22 -266 3z"/>
<path d="M1670 5085 c-79 -25 -123 -88 -88 -123 18 -18 46 -15 79 9 49 35 100
36 154 4 55 -32 91 -28 101 11 18 71 -138 134 -246 99z"/>
<path d="M1673 4770 c-97 -20 -187 -89 -230 -178 l-28 -57 -3 -312 -3 -312
-52 -3 c-46 -3 -53 -6 -61 -31 -8 -22 -6 -31 7 -45 15 -14 41 -18 152 -20
l135 -4 0 -282 c0 -261 1 -284 18 -299 24 -22 45 -21 65 1 15 16 17 52 17 300
l0 282 50 0 50 0 0 -510 0 -510 -55 0 c-45 0 -56 4 -65 21 -15 28 -69 59 -103
59 -36 0 -81 -23 -101 -52 -20 -28 -21 -90 -1 -127 14 -28 68 -61 100 -61 30
0 87 32 97 56 10 20 18 22 105 26 119 4 123 8 123 130 l0 88 31 0 c24 0 30 -4
25 -15 -25 -65 -41 -205 -41 -362 l0 -173 -60 0 c-34 0 -66 -5 -73 -12 -8 -8
-12 -47 -12 -110 l0 -98 -63 0 c-58 0 -65 2 -77 26 -19 34 -59 54 -111 54 -33
0 -47 -6 -75 -34 -29 -29 -34 -41 -34 -81 0 -38 5 -52 29 -75 54 -55 132 -52
178 5 l28 35 85 0 c54 0 91 5 98 12 8 8 12 47 12 110 l0 98 44 0 44 0 22 -92
c28 -118 88 -273 140 -362 22 -37 40 -73 40 -80 0 -6 -53 -64 -118 -129 -116
-116 -120 -118 -154 -112 -93 18 -170 -92 -122 -174 20 -33 68 -61 107 -61 65
0 126 84 107 149 -8 28 -3 34 111 147 l120 117 22 -30 c12 -16 44 -55 71 -87
l49 -57 -113 -114 -113 -114 -53 2 c-64 2 -103 -22 -122 -78 -16 -49 -2 -95
39 -130 78 -65 200 6 186 109 l-6 42 118 118 118 118 80 -65 81 -65 -107 -104
c-105 -104 -106 -105 -147 -101 -98 11 -164 -81 -119 -167 8 -16 25 -36 37
-44 28 -20 90 -21 127 -1 35 18 62 80 55 127 -5 31 1 39 105 143 l110 109 93
-47 c184 -93 371 -143 577 -153 104 -5 122 -9 176 -37 49 -25 75 -32 143 -35
l82 -5 0 -59 c0 -69 11 -95 46 -108 26 -10 61 1 76 24 4 6 8 63 8 127 0 148 4
145 -153 151 -131 6 -151 14 -194 78 -21 30 -23 45 -23 150 0 104 -2 120 -21
144 -20 25 -23 26 -138 26 -130 0 -151 -9 -151 -63 0 -47 31 -67 104 -67 l63
0 6 -90 c4 -50 14 -106 22 -126 8 -20 15 -38 15 -39 0 -1 -21 2 -47 6 -55 11
-130 56 -174 107 -50 57 -129 183 -122 195 3 5 -1 15 -10 22 -34 25 -164 412
-144 431 11 11 187 33 322 40 l135 7 0 -32 0 -31 -139 0 c-125 0 -141 -2 -165
-21 -31 -24 -34 -57 -7 -90 18 -23 26 -24 164 -27 l145 -4 5 -44 c2 -25 13
-54 22 -64 24 -26 67 -25 91 1 16 18 19 40 22 166 5 231 9 226 -172 218 -130
-6 -265 -18 -381 -34 -33 -5 -61 -8 -62 -7 -6 5 -33 248 -39 354 l-7 122 278
0 c260 0 277 -1 270 -17 -4 -10 -12 -55 -18 -100 l-11 -83 -66 0 c-74 0 -100
-16 -100 -61 0 -55 34 -69 160 -69 94 0 103 2 125 25 23 22 25 31 25 126 0 90
3 107 23 136 37 56 87 73 209 73 139 0 138 -1 138 151 0 63 -4 119 -8 125 -15
23 -50 34 -76 24 -35 -13 -46 -39 -46 -109 l0 -61 -62 0 c-79 0 -131 -14 -186
-51 l-43 -29 -306 0 -306 0 7 126 c6 110 32 344 40 351 1 2 50 -5 107 -14 82
-13 171 -17 414 -17 285 -1 359 4 501 30 l31 6 12 -94 c7 -51 16 -142 21 -203
7 -94 6 -113 -7 -127 -21 -23 -20 -64 2 -88 17 -18 32 -20 181 -20 l163 0 20
26 c27 34 26 50 -4 79 -18 19 -35 25 -70 25 l-45 0 0 145 c0 89 -4 154 -12
170 -21 46 -101 46 -118 -1 -6 -14 -10 -90 -10 -170 0 -83 -4 -144 -9 -144 -6
0 -12 19 -15 43 -9 81 -29 302 -30 336 l-1 34 90 24 c145 38 264 80 360 128
49 24 92 41 96 37 13 -14 76 -138 104 -204 15 -38 31 -68 35 -68 5 0 10 -19
13 -42 2 -24 14 -89 26 -146 11 -56 21 -114 21 -129 0 -23 -3 -25 -31 -19 -17
3 -58 6 -90 6 l-59 0 0 68 c0 73 -4 83 -37 101 -27 14 -67 0 -82 -28 -6 -11
-11 -67 -11 -125 0 -143 3 -146 143 -146 119 0 170 -18 208 -71 21 -30 25 -48
29 -146 6 -141 8 -142 135 -143 100 0 136 12 145 50 7 26 -4 59 -24 72 -6 4
-37 8 -68 8 l-58 0 0 60 c0 80 -29 154 -85 212 -40 42 -45 53 -45 93 0 71 -36
237 -75 348 -20 56 -39 111 -41 122 -4 15 14 38 77 95 81 73 84 75 135 75 61
0 96 25 114 81 31 92 -63 178 -151 141 -57 -24 -74 -51 -74 -118 0 -55 -2 -60
-45 -104 -63 -65 -102 -93 -108 -76 -2 7 -29 50 -59 94 l-54 81 63 63 c61 62
64 63 104 57 51 -7 97 14 119 56 31 60 10 137 -45 165 -87 45 -179 -21 -167
-121 4 -41 2 -44 -57 -103 l-61 -60 -71 73 -71 74 38 38 c35 34 44 38 83 35
57 -3 99 19 120 64 27 57 4 129 -50 153 -90 42 -184 -26 -171 -123 6 -38 3
-45 -31 -78 -21 -21 -41 -37 -44 -37 -3 0 -55 33 -114 73 -181 120 -398 199
-624 227 -87 10 -165 12 -142 3 6 -2 12 -16 12 -29 0 -13 -6 -24 -12 -25 -7 0
13 -9 44 -19 138 -43 258 -188 352 -427 35 -88 101 -321 94 -329 -2 -2 -53
-11 -114 -21 -150 -24 -651 -25 -797 -1 -54 9 -101 19 -104 22 -14 13 69 286
122 402 42 93 110 197 163 251 47 48 137 103 169 103 41 0 53 11 53 48 l0 35
-91 -7 c-309 -23 -579 -129 -814 -319 -175 -142 -345 -372 -421 -571 l-29 -76
-42 0 -43 0 0 400 0 400 119 0 c127 0 176 11 184 40 9 36 -20 60 -73 60 l-49
0 -3 313 c-3 303 -4 313 -26 358 -70 141 -223 219 -369 189z m1419 -887 c-21
-8 -128 -147 -166 -216 -51 -91 -111 -249 -147 -386 -24 -91 -36 -121 -48
-121 -90 0 -470 138 -496 180 -7 12 58 93 150 186 156 157 390 288 615 344 72
18 121 25 92 13z m638 -35 c246 -77 484 -235 636 -421 35 -44 64 -82 64 -87 0
-12 -174 -89 -283 -125 -104 -34 -224 -61 -232 -53 -3 2 -18 56 -34 119 -65
245 -159 436 -275 557 l-51 53 40 -6 c22 -4 83 -21 135 -37z m724 -19 c24 -34
3 -69 -42 -69 -14 0 -26 9 -33 24 -24 53 41 92 75 45z m228 -146 c44 -39 2
-101 -48 -68 -28 18 -31 46 -8 69 20 20 33 20 56 -1z m190 -215 c24 -20 28
-44 12 -67 -18 -25 -41 -27 -66 -4 -22 20 -23 41 -1 65 19 21 33 23 55 6z
m-2582 -240 c103 -49 217 -89 350 -123 100 -25 92 0 67 -233 -9 -84 -17 -181
-17 -217 l0 -65 -360 0 -360 0 0 26 c0 110 58 351 117 484 35 79 93 182 101
178 4 -2 50 -25 102 -50z m-687 -449 c5 -9 7 -28 3 -42 -12 -48 -86 -32 -86
18 0 12 6 27 12 33 17 17 58 11 71 -9z m1091 -395 c3 -70 13 -178 22 -242 8
-63 11 -118 7 -122 -4 -4 -39 -15 -78 -24 -121 -29 -256 -76 -362 -126 l-103
-49 -36 65 c-79 141 -135 311 -159 479 -8 55 -15 110 -15 123 l0 22 358 0 359
0 7 -126z m-1146 -226 c7 -7 12 -21 12 -33 0 -12 -5 -26 -12 -33 -7 -7 -21
-12 -33 -12 -12 0 -26 5 -33 12 -7 7 -12 21 -12 33 0 12 5 26 12 33 7 7 21 12
33 12 12 0 26 -5 33 -12z m1286 -521 c63 -167 191 -377 248 -408 38 -21 10
-19 -83 5 -243 62 -455 183 -640 366 -56 55 -129 144 -129 157 0 13 174 94
260 122 36 11 108 32 160 45 l95 24 31 -122 c18 -66 44 -151 58 -189z m-983
-177 c29 -16 26 -67 -6 -82 -21 -9 -28 -8 -45 7 -24 22 -25 42 -3 67 19 21 27
22 54 8z m201 -227 c22 -20 23 -41 1 -65 -45 -50 -102 15 -60 70 13 17 37 15
59 -5z m236 -155 c7 -7 12 -21 12 -33 0 -44 -60 -63 -80 -26 -14 27 -13 37 6
55 18 19 45 21 62 4z"/>
<path d="M3908 2183 c-28 -33 -288 -556 -288 -580 0 -44 60 -79 97 -55 6 4 26
33 45 65 l33 58 157 2 157 2 18 -40 c26 -58 61 -95 89 -95 30 0 64 33 64 63 0
21 -248 555 -271 583 -17 20 -83 18 -101 -3z m93 -277 c21 -46 39 -89 39 -95
0 -7 -31 -11 -90 -11 -49 0 -90 2 -90 5 0 11 90 185 96 185 3 0 23 -38 45 -84z"/>
<path d="M4416 2184 c-9 -8 -18 -25 -21 -37 -3 -12 -5 -144 -3 -294 3 -250 4
-273 22 -292 24 -27 68 -27 92 0 18 20 19 40 19 309 0 269 -1 289 -19 309 -23
25 -68 28 -90 5z"/>
<path d="M4767 2062 c-14 -16 -17 -44 -17 -185 0 -154 2 -169 20 -187 47 -47
110 -10 110 64 l0 44 144 4 c125 3 147 6 165 22 12 11 21 31 21 45 -1 60 -30
71 -194 71 l-136 0 0 48 c0 62 -21 92 -64 92 -19 0 -40 -8 -49 -18z"/>
<path d="M4770 1560 c-18 -18 -20 -33 -20 -133 0 -97 -3 -119 -22 -157 -36
-70 -71 -85 -206 -87 -152 -2 -152 -1 -152 -145 0 -60 5 -118 11 -129 15 -28
55 -42 82 -28 33 18 37 28 37 100 l0 66 83 5 c98 5 155 29 216 90 56 57 81
127 81 228 l0 80 54 0 c64 0 99 22 99 63 0 55 -25 67 -140 67 -90 0 -106 -3
-123 -20z"/>
<path d="M3894 1172 c-23 -15 -34 -50 -24 -76 11 -31 39 -46 84 -46 l34 0 4
-136 c3 -129 4 -137 27 -155 31 -26 57 -24 86 6 24 23 25 29 25 155 l0 130 45
0 c35 0 52 6 70 25 30 29 32 54 5 83 -20 21 -29 22 -183 22 -89 0 -167 -4
-173 -8z"/>
</g>
</svg>
