<?xml version="1.0" encoding="UTF-8"?>
<svg version="1.1" xmlns="http://www.w3.org/2000/svg" width="64" height="64">
<path d="M0 0 C1.32 0 2.64 0 4 0 C4 0.66 4 1.32 4 2 C5.32 1.67 6.64 1.34 8 1 C8.268125 1.804375 8.53625 2.60875 8.8125 3.4375 C9.204375 4.283125 9.59625 5.12875 10 6 C10.99 6.33 11.98 6.66 13 7 C13.33 5.68 13.66 4.36 14 3 C16.58577227 3.06013424 19.1658681 3.14717122 21.75 3.25 C22.47960937 3.26417969 23.20921875 3.27835937 23.9609375 3.29296875 C27.34107918 3.44661155 29.63902062 3.76349627 32.4921875 5.6328125 C34.4956151 8.77809003 34.4670084 10.919571 34.375 14.625 C34.36210938 15.77226562 34.34921875 16.91953125 34.3359375 18.1015625 C34 21 34 21 32 23 C29.31160615 23.26991906 26.70858064 23.08737357 24 23 C23.67 24.32 23.34 25.64 23 27 C16.4 27 9.8 27 3 27 C3.33 25.68 3.66 24.36 4 23 C1.69 23.66 -0.62 24.32 -3 25 C-3 27.97 -3 30.94 -3 34 C-2.34 34.33 -1.68 34.66 -1 35 C-0.67 33.68 -0.34 32.36 0 31 C6.27 31 12.54 31 19 31 C19.33 32.32 19.66 33.64 20 35 C20.66 35 21.32 35 22 35 C22 34.34 22 33.68 22 33 C25.02419525 33.58803797 28.01758453 34.22678118 31 35 C31 34.34 31 33.68 31 33 C30.01 32.67 29.02 32.34 28 32 C29.375 30.5 29.375 30.5 31 29 C31.66 29 32.32 29 33 29 C33.33 28.34 33.66 27.68 34 27 C34 27.66 34 28.32 34 29 C34.66 29 35.32 29 36 29 C36 28.34 36 27.68 36 27 C36.66 27 37.32 27 38 27 C38 27.66 38 28.32 38 29 C38.66 29 39.32 29 40 29 C40.33 28.34 40.66 27.68 41 27 C41 27.66 41 28.32 41 29 C43.475 29.99 43.475 29.99 46 31 C45.01 31.33 44.02 31.66 43 32 C43 32.99 43 33.98 43 35 C44.11375 34.505 44.11375 34.505 45.25 34 C48 33 48 33 52 33 C51.67 34.65 51.34 36.3 51 38 C48.33333333 37.33333333 45.66666667 36.66666667 43 36 C43 37.98 43 39.96 43 42 C42.01 42.33 41.02 42.66 40 43 C39.01 42.505 39.01 42.505 38 42 C38 42.99 38 43.98 38 45 C38.62648437 44.97679687 39.25296875 44.95359375 39.8984375 44.9296875 C40.71570312 44.91164062 41.53296875 44.89359375 42.375 44.875 C43.18710937 44.85179687 43.99921875 44.82859375 44.8359375 44.8046875 C47 45 47 45 49 47 C49 47.99 49 48.98 49 50 C49.99 50 50.98 50 52 50 C52 52.31 52 54.62 52 57 C45.84765625 57.09765625 45.84765625 57.09765625 44 57 C43 56 43 56 42.9375 53.4375 C42.958125 52.633125 42.97875 51.82875 43 51 C44.98 50.505 44.98 50.505 47 50 C47 49.01 47 48.02 47 47 C44.03 47 41.06 47 38 47 C38 47.99 38 48.98 38 50 C38.99 50 39.98 50 41 50 C41 52.31 41 54.62 41 57 C38.36 57 35.72 57 33 57 C33 54.69 33 52.38 33 50 C33.99 50 34.98 50 36 50 C36 49.01 36 48.02 36 47 C33.03 47 30.06 47 27 47 C27 47.99 27 48.98 27 50 C28.32 50.33 29.64 50.66 31 51 C31.042721 52.66611905 31.04063832 54.33382885 31 56 C30 57 30 57 28.15234375 57.09765625 C26.1015625 57.06510417 24.05078125 57.03255208 22 57 C22 54.69 22 52.38 22 50 C22.99 50 23.98 50 25 50 C25.144375 49.360625 25.28875 48.72125 25.4375 48.0625 C26 46 26 46 27 45 C28.51928038 44.92820036 30.04167482 44.91607993 31.5625 44.9375 C32.38878906 44.94652344 33.21507812 44.95554688 34.06640625 44.96484375 C34.70449219 44.97644531 35.34257813 44.98804688 36 45 C36 44.01 36 43.02 36 42 C35.01 42.33 34.02 42.66 33 43 C32.01 42.505 32.01 42.505 31 42 C31 40.02 31 38.04 31 36 C29.35 36 27.7 36 26 36 C26 36.66 26 37.32 26 38 C23.83125748 37.49396008 22.00032373 37.00016187 20 36 C19.67 37.32 19.34 38.64 19 40 C12.73 40 6.46 40 0 40 C-0.33 38.68 -0.66 37.36 -1 36 C-2.65 35.67 -4.3 35.34 -6 35 C-6.05391993 33.20866022 -6.09275571 31.41686101 -6.125 29.625 C-6.14820313 28.62726562 -6.17140625 27.62953125 -6.1953125 26.6015625 C-6 24 -6 24 -4 22 C-1.34462628 21.43479997 1.29144713 21.26211802 4 21 C4.33 20.01 4.66 19.02 5 18 C11.6 18 18.2 18 25 18 C25 19.32 25 20.64 25 22 C27.31 21.67 29.62 21.34 32 21 C31.505 16.545 31.505 16.545 31 12 C30.67 12.33 30.34 12.66 30 13 C27.36070903 13.15351581 24.76560041 13.23163061 22.125 13.25 C21.02478516 13.2809375 21.02478516 13.2809375 19.90234375 13.3125 C14.46644942 13.35210579 14.46644942 13.35210579 11.9921875 11.484375 C11.66476563 10.99453125 11.33734375 10.5046875 11 10 C10.01 10.495 10.01 10.495 9 11 C8.34786708 13.02463255 8.34786708 13.02463255 8 15 C6.68 14.67 5.36 14.34 4 14 C4 14.66 4 15.32 4 16 C0.625 15.6875 0.625 15.6875 -3 15 C-3.66 14.01 -4.32 13.02 -5 12 C-4.67 11.34 -4.34 10.68 -4 10 C-4.66 10 -5.32 10 -6 10 C-6 8.68 -6 7.36 -6 6 C-5.34 6 -4.68 6 -4 6 C-4.33 5.01 -4.66 4.02 -5 3 C-4.01 2.34 -3.02 1.68 -2 1 C-1.34 1.33 -0.68 1.66 0 2 C0 1.34 0 0.68 0 0 Z M2 2 C3 4 3 4 3 4 Z M6 3 C5.855625 4.11375 5.71125 5.2275 5.5625 6.375 C5 10 5 10 4 12 C4.99 12.33 5.98 12.66 7 13 C7.95024979 9.30458414 7.95024979 6.69541586 7 3 C6.67 3 6.34 3 6 3 Z M-2 4 C-1.67 4.99 -1.34 5.98 -1 7 C-0.34 6.01 0.32 5.02 1 4 C0.01 4 -0.98 4 -2 4 Z M14 6 C14 7.65 14 9.3 14 11 C18.95 11 23.9 11 29 11 C29 9.02 29 7.04 29 5 C26.68756208 4.97314588 24.3750373 4.95367159 22.0625 4.9375 C20.13083984 4.92009766 20.13083984 4.92009766 18.16015625 4.90234375 C15.13701597 4.63467451 15.13701597 4.63467451 14 6 Z M1 6 C1 7.32 1 8.64 1 10 C1.99 10 2.98 10 4 10 C4 8.68 4 7.36 4 6 C3.01 6 2.02 6 1 6 Z M-3 7 C-2 9 -2 9 -2 9 Z M-2 9 C-2 9.99 -2 10.98 -2 12 C-1.34 11.67 -0.68 11.34 0 11 C-0.66 10.34 -1.32 9.68 -2 9 Z M1 12 C1.99 13.485 1.99 13.485 3 15 C3 14.01 3 13.02 3 12 C2.34 12 1.68 12 1 12 Z M7 19 C6.67 21.31 6.34 23.62 6 26 C8.45898655 26.08076963 10.91533742 26.14037143 13.375 26.1875 C14.42300781 26.22520508 14.42300781 26.22520508 15.4921875 26.26367188 C17.76747677 26.32978561 17.76747677 26.32978561 21 26 C23.36980013 23.04622502 23.36980013 23.04622502 23 19 C17.72 19 12.44 19 7 19 Z M1 33 C1 34.65 1 36.3 1 38 C6.61 38 12.22 38 18 38 C18 36.35 18 34.7 18 33 C16.24440058 31.24440058 13.96417558 31.86778081 11.62890625 31.86328125 C10.92636719 31.86714844 10.22382813 31.87101562 9.5 31.875 C8.79746094 31.87113281 8.09492188 31.86726563 7.37109375 31.86328125 C3.89571192 31.55609069 3.89571192 31.55609069 1 33 Z M34 33 C34 34.65 34 36.3 34 38 C35.65 38 37.3 38 39 38 C39 36.35 39 34.7 39 33 C37.35 33 35.7 33 34 33 Z M24 34 C24 37 24 37 24 37 Z M49 34 C48.67 34.99 48.34 35.98 48 37 C48.99 36.67 49.98 36.34 51 36 C50.34 35.34 49.68 34.68 49 34 Z M23 51 C23 52.32 23 53.64 23 55 C24.98 55 26.96 55 29 55 C29 53.68 29 52.36 29 51 C27.02 51 25.04 51 23 51 Z M34 51 C34 52.32 34 53.64 34 55 C35.98 55 37.96 55 40 55 C40 53.68 40 52.36 40 51 C38.02 51 36.04 51 34 51 Z M45 51 C45.33 52.65 45.66 54.3 46 56 C47.65 56 49.3 56 51 56 C51 54.35 51 52.7 51 51 C49.02 51 47.04 51 45 51 Z " fill="#232323" transform="translate(9,2)"/>
<path d="M0 0 C1.32 0 2.64 0 4 0 C4 0.66 4 1.32 4 2 C5.32 1.67 6.64 1.34 8 1 C8.268125 1.804375 8.53625 2.60875 8.8125 3.4375 C9.204375 4.283125 9.59625 5.12875 10 6 C10.99 6.33 11.98 6.66 13 7 C13.33 5.68 13.66 4.36 14 3 C16.58675725 3.03308643 19.16497438 3.10028893 21.75 3.1875 C22.47960937 3.19330078 23.20921875 3.19910156 23.9609375 3.20507812 C27.7144333 3.35863023 29.65808195 3.70451526 32.53125 6.1875 C34.2614155 9.50058287 34.27977122 11.14824905 33.75 14.8125 C33.62109375 15.78832031 33.4921875 16.76414062 33.359375 17.76953125 C33.24078125 18.50558594 33.1221875 19.24164062 33 20 C32.67 20 32.34 20 32 20 C31.505 16.04 31.505 16.04 31 12 C30.67 12.33 30.34 12.66 30 13 C27.36070903 13.15351581 24.76560041 13.23163061 22.125 13.25 C21.02478516 13.2809375 21.02478516 13.2809375 19.90234375 13.3125 C14.46644942 13.35210579 14.46644942 13.35210579 11.9921875 11.484375 C11.66476563 10.99453125 11.33734375 10.5046875 11 10 C10.01 10.495 10.01 10.495 9 11 C8.34786708 13.02463255 8.34786708 13.02463255 8 15 C6.68 14.67 5.36 14.34 4 14 C4 14.66 4 15.32 4 16 C0.625 15.6875 0.625 15.6875 -3 15 C-3.66 14.01 -4.32 13.02 -5 12 C-4.67 11.34 -4.34 10.68 -4 10 C-4.66 10 -5.32 10 -6 10 C-6 8.68 -6 7.36 -6 6 C-5.34 6 -4.68 6 -4 6 C-4.33 5.01 -4.66 4.02 -5 3 C-4.01 2.34 -3.02 1.68 -2 1 C-1.34 1.33 -0.68 1.66 0 2 C0 1.34 0 0.68 0 0 Z M2 2 C3 4 3 4 3 4 Z M6 3 C5.855625 4.11375 5.71125 5.2275 5.5625 6.375 C5 10 5 10 4 12 C4.99 12.33 5.98 12.66 7 13 C7.95024979 9.30458414 7.95024979 6.69541586 7 3 C6.67 3 6.34 3 6 3 Z M-2 4 C-1.67 4.99 -1.34 5.98 -1 7 C-0.34 6.01 0.32 5.02 1 4 C0.01 4 -0.98 4 -2 4 Z M14 6 C14 7.65 14 9.3 14 11 C18.95 11 23.9 11 29 11 C29 9.02 29 7.04 29 5 C26.68756208 4.97314588 24.3750373 4.95367159 22.0625 4.9375 C20.13083984 4.92009766 20.13083984 4.92009766 18.16015625 4.90234375 C15.13701597 4.63467451 15.13701597 4.63467451 14 6 Z M1 6 C1 7.32 1 8.64 1 10 C1.99 10 2.98 10 4 10 C4 8.68 4 7.36 4 6 C3.01 6 2.02 6 1 6 Z M-3 7 C-2 9 -2 9 -2 9 Z M-2 9 C-2 9.99 -2 10.98 -2 12 C-1.34 11.67 -0.68 11.34 0 11 C-0.66 10.34 -1.32 9.68 -2 9 Z M1 12 C1.99 13.485 1.99 13.485 3 15 C3 14.01 3 13.02 3 12 C2.34 12 1.68 12 1 12 Z " fill="#2F2F2F" transform="translate(9,2)"/>
<path d="M0 0 C1.20462891 -0.02126953 1.20462891 -0.02126953 2.43359375 -0.04296875 C4.5625 0.1875 4.5625 0.1875 6.5625 2.1875 C6.5625 3.1775 6.5625 4.1675 6.5625 5.1875 C7.5525 5.1875 8.5425 5.1875 9.5625 5.1875 C9.5625 7.4975 9.5625 9.8075 9.5625 12.1875 C3.41015625 12.28515625 3.41015625 12.28515625 1.5625 12.1875 C0.5625 11.1875 0.5625 11.1875 0.5 8.625 C0.520625 7.820625 0.54125 7.01625 0.5625 6.1875 C1.8825 5.8575 3.2025 5.5275 4.5625 5.1875 C4.5625 4.1975 4.5625 3.2075 4.5625 2.1875 C1.5925 2.1875 -1.3775 2.1875 -4.4375 2.1875 C-4.4375 3.1775 -4.4375 4.1675 -4.4375 5.1875 C-3.4475 5.1875 -2.4575 5.1875 -1.4375 5.1875 C-1.4375 7.4975 -1.4375 9.8075 -1.4375 12.1875 C-4.0775 12.1875 -6.7175 12.1875 -9.4375 12.1875 C-9.4375 9.8775 -9.4375 7.5675 -9.4375 5.1875 C-8.4475 5.1875 -7.4575 5.1875 -6.4375 5.1875 C-6.2209375 4.2284375 -6.2209375 4.2284375 -6 3.25 C-4.99958876 -0.41817454 -3.54290385 0.02834323 0 0 Z M-8.4375 6.1875 C-8.4375 7.5075 -8.4375 8.8275 -8.4375 10.1875 C-6.4575 10.1875 -4.4775 10.1875 -2.4375 10.1875 C-2.4375 8.8675 -2.4375 7.5475 -2.4375 6.1875 C-4.4175 6.1875 -6.3975 6.1875 -8.4375 6.1875 Z M2.5625 6.1875 C2.8925 7.8375 3.2225 9.4875 3.5625 11.1875 C5.2125 11.1875 6.8625 11.1875 8.5625 11.1875 C8.5625 9.5375 8.5625 7.8875 8.5625 6.1875 C6.5825 6.1875 4.6025 6.1875 2.5625 6.1875 Z " fill="#363636" transform="translate(51.4375,46.8125)"/>
<path d="M0 0 C0.33 1.32 0.66 2.64 1 4 C-2.21451269 5.60725635 -5.43612536 5.05748185 -9 5 C-9 5.99 -9 6.98 -9 8 C-7.68 8.33 -6.36 8.66 -5 9 C-4.957279 10.66611905 -4.95936168 12.33382885 -5 14 C-6 15 -6 15 -7.84765625 15.09765625 C-9.8984375 15.06510417 -11.94921875 15.03255208 -14 15 C-14 12.69 -14 10.38 -14 8 C-13.01 8 -12.02 8 -11 8 C-10.7834375 7.0409375 -10.7834375 7.0409375 -10.5625 6.0625 C-10 4 -10 4 -9 3 C-7.48071962 2.92820036 -5.95832518 2.91607993 -4.4375 2.9375 C-3.61121094 2.94652344 -2.78492188 2.95554688 -1.93359375 2.96484375 C-1.29550781 2.97644531 -0.65742187 2.98804688 0 3 C0 2.01 0 1.02 0 0 Z M-13 9 C-13 10.32 -13 11.64 -13 13 C-11.02 13 -9.04 13 -7 13 C-7 11.68 -7 10.36 -7 9 C-8.98 9 -10.96 9 -13 9 Z " fill="#3D3D3D" transform="translate(45,44)"/>
<path d="M0 0 C2.0625 1.3125 2.0625 1.3125 4 4 C4.05898893 7.72702755 3.58315738 11.32357303 3 15 C2.67 15 2.34 15 2 15 C1.67 12.36 1.34 9.72 1 7 C0.67 7.33 0.34 7.66 0 8 C-2.69654854 8.07319621 -5.36691458 8.09242537 -8.0625 8.0625 C-9.20041992 8.05573242 -9.20041992 8.05573242 -10.36132812 8.04882812 C-12.24091871 8.0370068 -14.12046899 8.01907078 -16 8 C-16.33 6.35 -16.66 4.7 -17 3 C-16.67 3.99 -16.34 4.98 -16 6 C-11.05 6 -6.1 6 -1 6 C-0.67 4.02 -0.34 2.04 0 0 Z " fill="#373737" transform="translate(39,7)"/>
<path d="M0 0 C0.99 0.66 1.98 1.32 3 2 C2 5 1 8 0 11 C0 10.34 0 9.68 0 9 C-0.99 9 -1.98 9 -3 9 C-3 7.68 -3 6.36 -3 5 C-2.34 5 -1.68 5 -1 5 C-1.33 4.01 -1.66 3.02 -2 2 C-1.34 1.34 -0.68 0.68 0 0 Z " fill="#373737" transform="translate(6,3)"/>
<path d="M0 0 C1.65 0.33 3.3 0.66 5 1 C4.67 2.65 4.34 4.3 4 6 C3.67 5.01 3.34 4.02 3 3 C2.01 3.33 1.02 3.66 0 4 C-0.73323796 6.01508358 -0.73323796 6.01508358 -1 8 C-1.66 6.68 -2.32 5.36 -3 4 C-2.01 2.68 -1.02 1.36 0 0 Z " fill="#606060" transform="translate(10,5)"/>
<path d="M0 0 C2.0625 1.3125 2.0625 1.3125 4 4 C4.05898893 7.72702755 3.58315738 11.32357303 3 15 C2.67 15 2.34 15 2 15 C1.8046875 13.01432292 1.609375 11.02864583 1.4140625 9.04296875 C1.07334609 6.70011858 1.07334609 6.70011858 -1 4 C-0.625 1.8125 -0.625 1.8125 0 0 Z " fill="#848484" transform="translate(39,7)"/>
<path d="M0 0 C1.65 0.33 3.3 0.66 5 1 C5 2.65 5 4.3 5 6 C2.13822943 7.43088528 0.06624227 6.59991697 -3 6 C-3 5.67 -3 5.34 -3 5 C-1.02 5 0.96 5 3 5 C3 3.68 3 2.36 3 1 C2.01 0.67 1.02 0.34 0 0 Z " fill="#5B5B5B" transform="translate(35,52)"/>
<path d="M0 0 C1.32 0 2.64 0 4 0 C4 0.66 4 1.32 4 2 C4.99 2.33 5.98 2.66 7 3 C5.68 3 4.36 3 3 3 C1.65835921 3.2981424 0.32148827 3.62243192 -1 4 C-0.67 2.68 -0.34 1.36 0 0 Z " fill="#1C1C1C" transform="translate(9,2)"/>
<path d="M0 0 C4.62 0 9.24 0 14 0 C14 0.33 14 0.66 14 1 C9.38 1 4.76 1 0 1 C0 0.67 0 0.34 0 0 Z " fill="#1F1F1F" transform="translate(16,24)"/>
<path d="M0 0 C2.31 0 4.62 0 7 0 C7 0.66 7 1.32 7 2 C4.69 2 2.38 2 0 2 C0 1.34 0 0.68 0 0 Z " fill="#4A4A4A" transform="translate(24,9)"/>
<path d="M0 0 C1.65 0 3.3 0 5 0 C5 0.66 5 1.32 5 2 C3.35 2 1.7 2 0 2 C0 1.34 0 0.68 0 0 Z " fill="#4A4A4A" transform="translate(32,9)"/>
<path d="M0 0 C2.64 0 5.28 0 8 0 C8 0.33 8 0.66 8 1 C5.36 1 2.72 1 0 1 C0 0.67 0 0.34 0 0 Z " fill="#171717" transform="translate(11,37)"/>
<path d="M0 0 C1.98 0 3.96 0 6 0 C6 0.33 6 0.66 6 1 C4.02 1 2.04 1 0 1 C0 0.67 0 0.34 0 0 Z " fill="#1F1F1F" transform="translate(20,37)"/>
</svg>
