<?xml version="1.0" standalone="no"?>
<!DOCTYPE svg PUBLIC "-//W3C//DTD SVG 20010904//EN"
 "http://www.w3.org/TR/2001/REC-SVG-20010904/DTD/svg10.dtd">
<svg version="1.0" xmlns="http://www.w3.org/2000/svg"
 width="576.000000pt" height="576.000000pt" viewBox="0 0 576.000000 576.000000"
 preserveAspectRatio="xMidYMid meet">

<g transform="translate(0.000000,576.000000) scale(0.100000,-0.100000)"
fill="#000000" stroke="none">
<path d="M1270 5565 c-8 -2 -49 -9 -90 -15 -282 -46 -566 -221 -746 -459 -164
-218 -244 -457 -244 -726 0 -341 125 -642 363 -872 191 -185 416 -299 657
-333 47 -7 104 -15 126 -19 l42 -6 -132 -222 -131 -222 -335 -182 c-184 -100
-347 -191 -362 -201 -16 -11 -28 -29 -28 -41 0 -12 24 -66 54 -119 38 -69 51
-100 42 -106 -6 -5 -54 -33 -106 -62 -157 -88 -195 -137 -188 -244 4 -52 14
-78 72 -183 95 -173 134 -206 241 -207 56 -1 68 4 171 61 60 34 116 63 123 65
6 2 36 -39 65 -92 69 -124 81 -130 165 -84 35 19 65 33 68 30 2 -2 143 -258
313 -568 296 -542 309 -563 338 -566 24 -2 76 22 224 104 209 115 228 128 228
155 0 10 -56 120 -125 246 l-124 228 37 19 c79 39 112 90 112 172 0 66 -37
126 -93 153 -57 27 -100 26 -165 -4 -30 -14 -57 -23 -62 -20 -4 2 -42 69 -85
147 -43 79 -86 157 -96 174 l-19 31 50 27 51 28 284 -8 285 -7 0 -81 c0 -112
22 -204 72 -305 57 -117 188 -250 298 -303 113 -55 188 -72 315 -72 192 0 343
62 481 199 142 141 211 319 201 515 l-5 95 133 73 c88 48 135 79 138 93 6 22
-8 50 -227 448 l-145 264 50 56 c63 70 110 148 145 243 22 60 28 95 32 193 5
144 -8 209 -70 335 -33 69 -58 102 -127 170 -98 98 -180 146 -306 181 -68 18
-95 21 -199 15 -67 -3 -132 -7 -146 -8 -22 -3 -35 17 -149 222 l-125 225 -2
140 c-3 227 -44 399 -141 587 -173 334 -502 572 -873 633 -81 13 -283 19 -330
10z m370 -125 c444 -96 787 -464 855 -917 19 -126 19 -127 -5 -103 -11 11 -27
20 -36 20 -9 0 -70 -29 -135 -65 -65 -36 -120 -65 -123 -65 -4 0 -6 29 -6 65
0 291 -191 581 -464 705 -113 51 -178 64 -331 64 -131 0 -146 -2 -235 -33
-121 -41 -213 -96 -301 -178 -118 -111 -192 -241 -231 -402 -26 -110 -21 -277
12 -391 69 -240 250 -437 484 -525 143 -54 326 -62 483 -21 l54 14 -14 -21
c-8 -12 -56 -94 -107 -181 l-94 -159 -116 6 c-393 21 -742 254 -920 612 -214
432 -133 932 207 1274 148 149 315 243 523 297 146 37 340 39 500 4z m202
-768 c63 -63 88 -95 88 -113 0 -18 -73 -97 -314 -338 -273 -273 -317 -313
-337 -308 -32 8 -409 388 -409 412 0 24 180 205 205 205 10 0 61 -43 114 -95
l96 -94 211 209 c156 156 216 210 234 210 17 0 50 -27 112 -88z m1213 -1499
c341 -626 638 -1171 661 -1213 l41 -76 -87 -47 -87 -47 -36 73 c-65 131 -173
240 -302 305 -39 19 -60 56 -573 993 -293 536 -533 979 -533 984 1 10 266 162
286 164 6 0 289 -511 630 -1136z m-782 497 c112 -206 333 -611 491 -899 157
-288 286 -527 286 -530 0 -3 -60 -6 -133 -7 -116 0 -141 -4 -205 -27 -189 -67
-343 -213 -413 -390 l-28 -72 -198 3 c-109 1 -238 5 -288 8 l-90 6 -242 444
-242 444 422 705 c231 388 424 701 428 697 4 -4 99 -176 212 -382z m-1623
-1898 c52 -97 95 -183 95 -191 0 -22 -203 -131 -244 -131 -48 0 -93 52 -160
182 -76 150 -72 162 99 262 52 30 100 55 105 55 6 0 53 -79 105 -177z m2375
-49 c127 -73 155 -102 155 -163 0 -61 -29 -92 -152 -164 -123 -71 -162 -80
-218 -51 -51 27 -60 58 -60 217 0 158 5 173 64 209 52 31 82 24 211 -48z
m-1359 -500 c98 -181 229 -422 291 -537 63 -115 110 -213 106 -217 -10 -9
-287 -159 -289 -156 -21 26 -584 1072 -578 1074 6 3 239 132 291 162 1 1 81
-146 179 -326z"/>
<path d="M1515 4420 c-126 -126 -217 -210 -229 -210 -10 0 -62 42 -115 95
l-97 95 -37 -38 -37 -38 143 -142 142 -142 260 260 259 260 -34 35 c-19 19
-36 35 -40 35 -3 0 -100 -94 -215 -210z"/>
<path d="M2857 1673 c-4 -3 -7 -57 -7 -120 0 -86 3 -115 14 -119 20 -8 206
105 206 124 0 11 -34 36 -93 70 -94 52 -108 58 -120 45z"/>
<path d="M3901 5246 c-19 -23 -21 -947 -2 -969 12 -15 37 -17 182 -17 l169 0
0 -77 c0 -91 14 -127 52 -131 17 -2 95 32 237 102 l211 106 400 0 400 0 15 24
c14 20 15 81 13 483 -2 372 -6 463 -17 476 -12 16 -83 17 -831 17 -697 0 -819
-2 -829 -14z m1397 -318 c17 -17 15 -54 -4 -72 -14 -14 -79 -16 -564 -16 -485
0 -550 2 -564 16 -19 18 -21 55 -4 72 17 17 1119 17 1136 0z m-4 -264 c19 -18
21 -55 4 -72 -17 -17 -1119 -17 -1136 0 -17 17 -15 54 4 72 14 14 79 16 564
16 485 0 550 -2 564 -16z"/>
<path d="M2965 4464 c-13 -13 -15 -40 -13 -177 l3 -162 27 -9 c21 -8 32 -6 46
7 17 15 20 39 26 168 7 135 6 153 -10 170 -21 23 -57 25 -79 3z"/>
<path d="M3648 4313 c-9 -10 -47 -71 -86 -136 -77 -128 -81 -153 -27 -172 35
-12 49 3 140 156 59 96 67 115 59 138 -12 33 -62 41 -86 14z"/>
<path d="M4061 3793 c-68 -37 -130 -78 -138 -90 -14 -21 -14 -26 1 -48 10 -15
26 -25 40 -25 32 0 265 129 284 157 13 21 13 26 -2 48 -10 14 -26 25 -39 25
-12 0 -78 -30 -146 -67z"/>
<path d="M4106 3185 c-20 -20 -21 -45 -2 -71 13 -17 30 -19 164 -22 93 -3 157
0 170 7 28 15 33 47 12 74 -17 21 -27 22 -173 25 -132 3 -157 1 -171 -13z"/>
<path d="M3996 2634 c-19 -19 -20 -45 -3 -66 19 -25 250 -158 274 -158 28 0
45 23 41 57 -3 23 -22 39 -128 105 -129 80 -157 89 -184 62z"/>
</g>
</svg>
