<?xml version="1.0" encoding="UTF-8"?>
<svg version="1.1" xmlns="http://www.w3.org/2000/svg" width="64" height="64">
<path d="M0 0 C8.064375 -0.020625 16.12875 -0.04125 24.4375 -0.0625 C26.98654053 -0.071604 29.53558105 -0.08070801 32.16186523 -0.09008789 C34.16910754 -0.09300688 36.17635043 -0.09555548 38.18359375 -0.09765625 C39.76291687 -0.1053302 39.76291687 -0.1053302 41.37414551 -0.11315918 C42.36885864 -0.11328003 43.36357178 -0.11340088 44.38842773 -0.11352539 C45.25668686 -0.115746 46.12494598 -0.11796661 47.01951599 -0.12025452 C49 0 49 0 50 1 C50.07258946 3.18639453 50.08373783 5.37500389 50.0625 7.5625 C50.05347656 8.76003906 50.04445312 9.95757812 50.03515625 11.19140625 C50.02355469 12.11824219 50.01195312 13.04507812 50 14 C50.99 14.33 51.98 14.66 53 15 C54.64820195 17.60242414 55 18.86248779 55 22 C53.35 22.66 51.7 23.32 50 24 C50 32.91 50 41.82 50 51 C33.5 51 17 51 0 51 C0 34.17 0 17.34 0 0 Z M2 3 C2 4.32 2 5.64 2 7 C2.66 6.67 3.32 6.34 4 6 C3.67 5.34 3.34 4.68 3 4 C5 6 5 6 5 7 C6.98 7 8.96 7 11 7 C11 6.34 11 5.68 11 5 C11.66 4.67 12.32 4.34 13 4 C12.67 4.99 12.34 5.98 12 7 C23.88 7 35.76 7 48 7 C48 5.68 48 4.36 48 3 C32.82 3 17.64 3 2 3 Z M2 10 C2 22.87 2 35.74 2 49 C17.18 49 32.36 49 48 49 C48 41.41 48 33.82 48 26 C40.72004118 29.52256072 33.69358632 33.141125 26.77392578 37.32763672 C12.82531624 45.74218177 12.82531624 45.74218177 4 46 C8.72802309 40.01117075 13.58407427 35.63906196 20.2734375 31.90625 C21.2634375 31.35066406 22.2534375 30.79507813 23.2734375 30.22265625 C24.29695313 29.65417969 25.32046875 29.08570312 26.375 28.5 C28.40368668 27.36465631 30.43233347 26.22924135 32.4609375 25.09375 C33.41323242 24.56265625 34.36552734 24.0315625 35.34667969 23.484375 C38.57681302 21.6773074 41.79089662 19.84410448 45 18 C45 17.34 45 16.68 45 16 C40.76570244 17.31061591 36.92592596 18.94356259 33 21 C33 20.34 33 19.68 33 19 C33.66 18.7525 34.32 18.505 35 18.25 C38.76360907 16.68182955 42.3711424 14.85494954 46 13 C46.495 14.485 46.495 14.485 47 16 C47.33 16 47.66 16 48 16 C48 14.02 48 12.04 48 10 C32.82 10 17.64 10 2 10 Z M50 17 C50 18.32 50 19.64 50 21 C50.66 21 51.32 21 52 21 C51.67 19.68 51.34 18.36 51 17 C50.67 17 50.34 17 50 17 Z M40.3125 22.5 C39.37857422 23.19609375 39.37857422 23.19609375 38.42578125 23.90625 C37.95527344 24.2671875 37.48476563 24.628125 37 25 C37.33 25.99 37.66 26.98 38 28 C41.59391114 26.66511872 44.75490696 25.03977277 48 23 C47.67 22.01 47.34 21.02 47 20 C43.60406522 20 42.93380119 20.52165948 40.3125 22.5 Z M29.30859375 28.625 C27.89223633 29.43710937 27.89223633 29.43710937 26.44726562 30.265625 C25.45404297 30.83796875 24.46082031 31.4103125 23.4375 32 C21.94186523 32.85851563 21.94186523 32.85851563 20.41601562 33.734375 C17.94290588 35.15434232 15.47096296 36.57630125 13 38 C13.33 39.32 13.66 40.64 14 42 C18.97357688 40.2657267 23.31498953 37.56672043 27.8125 34.875 C28.99489258 34.17310547 28.99489258 34.17310547 30.20117188 33.45703125 C32.13602454 32.30784603 34.06887228 31.15542997 36 30 C35.67 28.68 35.34 27.36 35 26 C32.97369382 26 31.000738 27.65227037 29.30859375 28.625 Z " fill="#454545" transform="translate(6,7)"/>
<path d="M0 0 C0.33 0 0.66 0 1 0 C1 1.98 1 3.96 1 6 C16.84 6 32.68 6 49 6 C49 8.31 49 10.62 49 13 C49.66 13.33 50.32 13.66 51 14 C50.01 14.33 49.02 14.66 48 15 C48 12.69 48 10.38 48 8 C32.82 8 17.64 8 2 8 C2 20.87 2 33.74 2 47 C17.18 47 32.36 47 48 47 C48 38.75 48 30.5 48 22 C48.33 22 48.66 22 49 22 C49 30.58 49 39.16 49 48 C32.83 48 16.66 48 0 48 C0 32.16 0 16.32 0 0 Z " fill="#1B1B1B" transform="translate(6,9)"/>
<path d="M0 0 C6.96003447 -0.02526838 13.9200572 -0.04283222 20.88012695 -0.05493164 C23.24992312 -0.05997341 25.61971615 -0.06680665 27.98950195 -0.07543945 C31.38754039 -0.0875119 34.78553785 -0.09322971 38.18359375 -0.09765625 C39.25024765 -0.10281754 40.31690155 -0.10797882 41.4158783 -0.11329651 C42.88729027 -0.11340981 42.88729027 -0.11340981 44.38842773 -0.11352539 C45.25668686 -0.115746 46.12494598 -0.11796661 47.01951599 -0.12025452 C49 0 49 0 50 1 C50.07271741 3.35313555 50.08370868 5.70833668 50.0625 8.0625 C50.05347656 9.35285156 50.04445312 10.64320312 50.03515625 11.97265625 C50.02355469 12.97167969 50.01195312 13.97070312 50 15 C49.67 15 49.34 15 49 15 C49 12.69 49 10.38 49 8 C33.16 8 17.32 8 1 8 C0.67 5.36 0.34 2.72 0 0 Z M2 3 C2 4.32 2 5.64 2 7 C2.66 6.67 3.32 6.34 4 6 C3.67 5.34 3.34 4.68 3 4 C5 6 5 6 5 7 C6.98 7 8.96 7 11 7 C11 6.34 11 5.68 11 5 C11.66 4.67 12.32 4.34 13 4 C12.67 4.99 12.34 5.98 12 7 C23.88 7 35.76 7 48 7 C48 5.68 48 4.36 48 3 C32.82 3 17.64 3 2 3 Z " fill="#5F5F5F" transform="translate(6,7)"/>
<path d="M0 0 C-3.84348411 3.25048942 -7.82398529 5.78782869 -12.1875 8.25 C-13.13012695 8.79527344 -13.13012695 8.79527344 -14.09179688 9.3515625 C-18.74647556 12 -18.74647556 12 -21 12 C-21.33 12.66 -21.66 13.32 -22 14 C-22.99 13.34 -23.98 12.68 -25 12 C-20.68086839 9.30972173 -16.34850506 6.6425434 -12 4 C-11.08863281 3.44570313 -10.17726563 2.89140625 -9.23828125 2.3203125 C-8.45839844 1.86398438 -7.67851563 1.40765625 -6.875 0.9375 C-6.19179688 0.53402344 -5.50859375 0.13054688 -4.8046875 -0.28515625 C-3 -1 -3 -1 0 0 Z " fill="#4D4D4D" transform="translate(40,33)"/>
<path d="M0 0 C0.99 0.33 1.98 0.66 3 1 C4.33106622 1.34227417 5.66400079 1.67751743 7 2 C7.33 1.34 7.66 0.68 8 0 C8.66 0 9.32 0 10 0 C10 0.66 10 1.32 10 2 C21.55 2.33 33.1 2.66 45 3 C45 3.33 45 3.66 45 4 C29.82 4 14.64 4 -1 4 C-0.67 2.68 -0.34 1.36 0 0 Z " fill="#DFDFDF" transform="translate(9,11)"/>
<path d="M0 0 C2 2 2 2 2 5 C2.66 5 3.32 5 4 5 C4 5.66 4 6.32 4 7 C0.37 7.66 -3.26 8.32 -7 9 C-7.33 8.34 -7.66 7.68 -8 7 C-5.36 4.69 -2.72 2.38 0 0 Z " fill="#393939" transform="translate(17,45)"/>
<path d="M0 0 C-2.17642432 1.69277447 -4.24918298 3.13328392 -6.6875 4.4375 C-9.16029639 5.78169801 -9.16029639 5.78169801 -9.8125 8.1875 C-9.874375 8.785625 -9.93625 9.38375 -10 10 C-11.32 9.01 -12.64 8.02 -14 7 C-12.78904348 3.36713045 -11.20640617 2.56993248 -7.921875 0.78515625 C-5.22544616 -0.31643358 -2.86858211 -0.27986167 0 0 Z " fill="#424242" transform="translate(53,26)"/>
<path d="M0 0 C-2.79854744 3.29240875 -6.20673275 5.03562946 -10 7 C-10.99 7 -11.98 7 -13 7 C-13 6.34 -13 5.68 -13 5 C-10.91796875 3.45703125 -10.91796875 3.45703125 -8.1875 1.8125 C-7.29417969 1.26207031 -6.40085937 0.71164063 -5.48046875 0.14453125 C-3 -1 -3 -1 0 0 Z " fill="#505050" transform="translate(52,21)"/>
<path d="M0 0 C1.32 0.66 2.64 1.32 4 2 C2.59248779 2.86916887 1.1735479 3.71985149 -0.25 4.5625 C-1.03890625 5.03816406 -1.8278125 5.51382813 -2.640625 6.00390625 C-5.30844625 7.13022151 -6.34501768 7.0169313 -9 6 C-7.60147088 3.20294175 -5.86348142 3.09085007 -3 2 C-2.01 1.34 -1.02 0.68 0 0 Z " fill="#4F4F4F" transform="translate(28,44)"/>
<path d="M0 0 C0.99 0.33 1.98 0.66 3 1 C4.33106622 1.34227417 5.66400079 1.67751743 7 2 C7.33 1.34 7.66 0.68 8 0 C8.66 0 9.32 0 10 0 C9.67 1.32 9.34 2.64 9 4 C5.7 4 2.4 4 -1 4 C-0.67 2.68 -0.34 1.36 0 0 Z " fill="#B9B9B9" transform="translate(9,11)"/>
<path d="M0 0 C2.46800047 1.15173355 4.04783565 2.04783565 6 4 C5.01 4.99 4.02 5.98 3 7 C3 6.34 3 5.68 3 5 C1.68 4.67 0.36 4.34 -1 4 C-0.34 4 0.32 4 1 4 C0.67 2.68 0.34 1.36 0 0 Z " fill="#333333" transform="translate(50,21)"/>
<path d="M0 0 C3 1 3 1 4.25 2.875 C5 5 5 5 4 8 C2 7 2 7 0.875 4 C0 1 0 1 0 0 Z " fill="#484848" transform="translate(56,21)"/>
<path d="M0 0 C0.66 0 1.32 0 2 0 C2 0.66 2 1.32 2 2 C1.34 2 0.68 2 0 2 C0 1.34 0 0.68 0 0 Z " fill="#6A6A6A" transform="translate(13,11)"/>
</svg>
