<?xml version="1.0" standalone="no"?>
<!DOCTYPE svg PUBLIC "-//W3C//DTD SVG 20010904//EN"
 "http://www.w3.org/TR/2001/REC-SVG-20010904/DTD/svg10.dtd">
<svg version="1.0" xmlns="http://www.w3.org/2000/svg"
 width="576.000000pt" height="576.000000pt" viewBox="0 0 576.000000 576.000000"
 preserveAspectRatio="xMidYMid meet">

<g transform="translate(0.000000,576.000000) scale(0.100000,-0.100000)"
fill="#000000" stroke="none">
<path d="M972 5554 c-48 -33 -52 -57 -52 -309 l0 -235 1960 0 1961 0 -3 251
-3 251 -33 29 -32 29 -1888 0 c-1694 0 -1890 -2 -1910 -16z m372 -246 c21 -34
-4 -53 -72 -56 -53 -3 -62 0 -72 18 -8 14 -8 26 0 40 10 18 19 21 72 18 45 -2
64 -8 72 -20z m340 0 c19 -32 -4 -53 -63 -56 -55 -3 -81 9 -81 37 0 31 23 42
79 39 38 -2 57 -8 65 -20z m346 2 c8 -14 8 -26 0 -40 -9 -16 -21 -20 -68 -20
-59 0 -82 11 -82 40 0 29 23 40 82 40 47 0 59 -4 68 -20z m2530 0 c8 -14 8
-26 0 -40 -11 -20 -21 -20 -1003 -20 -1031 0 -1017 -1 -1017 40 0 41 -14 40
1017 40 982 0 992 0 1003 -20z"/>
<path d="M920 3165 l0 -1755 1960 0 1960 0 0 1755 0 1755 -1960 0 -1960 0 0
-1755z m1224 1354 c54 -37 79 -89 74 -157 -2 -32 -12 -69 -22 -85 -10 -15
-141 -122 -290 -238 -149 -116 -272 -214 -274 -219 -2 -4 116 -100 261 -213
267 -208 312 -249 323 -293 11 -42 -2 -124 -23 -152 -46 -62 -122 -91 -191
-72 -27 7 -158 102 -418 305 -208 163 -387 307 -398 321 -47 64 -40 159 17
219 47 50 714 565 767 593 56 29 123 26 174 -9z m1123 10 c70 -34 109 -107 97
-182 -5 -34 -585 -1094 -651 -1189 -67 -99 -233 -94 -289 8 -30 55 -36 89 -24
133 10 39 629 1162 658 1195 50 55 137 70 209 35z m504 9 c38 -12 766 -574
799 -615 43 -55 48 -133 11 -196 -23 -40 -764 -617 -815 -634 -69 -24 -145 0
-192 63 -35 45 -45 134 -21 180 22 42 44 60 329 282 l258 200 -279 216 c-153
119 -287 228 -296 243 -20 30 -31 108 -21 148 4 14 23 43 42 65 50 55 115 72
185 48z m189 -1828 c8 -14 8 -26 0 -40 -11 -20 -19 -20 -1083 -18 l-1072 3 -3
23 c-8 55 -81 52 1077 52 1060 0 1070 0 1081 -20z m504 -432 c13 -19 14 -25 2
-43 -13 -20 -14 -20 -1581 -23 -1151 -1 -1571 1 -1581 9 -17 14 -18 51 -2 67
9 9 374 12 1579 12 l1568 0 15 -22z m-204 -433 c10 -12 10 -21 2 -40 l-12 -25
-1364 0 c-1227 0 -1366 2 -1380 16 -19 19 -20 36 -4 52 9 9 329 12 1379 12
1214 0 1368 -2 1379 -15z"/>
<path d="M1973 4433 c-270 -205 -715 -557 -723 -573 -15 -28 -12 -61 8 -92 9
-15 183 -156 386 -313 409 -316 407 -315 467 -256 35 35 38 77 9 113 -10 14
-149 126 -307 248 -158 123 -291 228 -295 234 -4 6 -8 18 -8 27 0 9 130 117
306 254 168 131 309 246 315 256 31 58 -22 139 -91 139 -10 0 -40 -17 -67 -37z"/>
<path d="M3155 4460 c-12 -4 -26 -14 -32 -21 -6 -8 -153 -269 -327 -582 -222
-399 -316 -576 -316 -598 0 -69 93 -114 147 -71 34 27 653 1150 653 1184 0 40
-15 65 -50 83 -32 17 -45 18 -75 5z"/>
<path d="M3680 4459 c-38 -14 -63 -63 -56 -105 6 -31 38 -58 316 -275 208
-161 310 -247 310 -259 0 -26 3 -23 -315 -269 -156 -121 -291 -231 -299 -243
-25 -35 -20 -76 13 -109 60 -60 59 -60 463 252 200 154 373 292 386 305 31 36
29 86 -5 123 -16 16 -152 126 -303 243 -493 384 -454 358 -510 337z"/>
<path d="M553 4444 c-18 -9 -43 -33 -55 -53 l-23 -36 0 -1747 0 -1747 21 -28
c11 -15 36 -38 54 -50 l33 -23 855 0 c679 0 853 -3 850 -12 -3 -7 -38 -118
-78 -245 l-73 -233 -74 0 c-69 0 -74 -2 -85 -25 -10 -21 -9 -29 6 -43 15 -16
80 -17 884 -19 911 -3 912 -3 920 40 7 35 -17 47 -92 47 l-72 0 -73 231 c-40
127 -75 237 -78 245 -4 12 123 14 849 14 l855 0 33 22 c18 13 41 34 51 48 17
24 18 121 21 1775 l3 1750 -23 36 c-35 58 -71 69 -216 69 l-126 0 0 -39 0 -39
126 -4 c111 -3 127 -5 140 -22 12 -17 14 -242 14 -1528 l0 -1508 -2320 0
-2320 0 0 1508 c0 1286 2 1511 14 1528 13 17 29 19 140 22 l126 4 0 39 0 39
-127 0 c-97 0 -136 -4 -160 -16z m2122 -3386 c49 -22 44 -104 -8 -122 -22 -8
-32 -6 -55 11 -39 29 -42 74 -6 102 31 24 35 25 69 9z m258 -20 c9 -11 17 -29
17 -40 0 -25 -44 -68 -70 -68 -25 0 -70 42 -70 65 0 66 79 93 123 43z m221 11
c36 -28 33 -73 -6 -102 -23 -17 -33 -19 -55 -11 -50 17 -57 99 -11 122 33 16
42 14 72 -9z m296 -521 c40 -128 75 -239 77 -245 4 -10 -129 -13 -647 -13
-539 0 -651 2 -647 13 3 8 38 118 78 245 l73 232 496 0 497 0 73 -232z"/>
</g>
</svg>
