<?xml version="1.0" standalone="no"?>
<!DOCTYPE svg PUBLIC "-//W3C//DTD SVG 20010904//EN"
 "http://www.w3.org/TR/2001/REC-SVG-20010904/DTD/svg10.dtd">
<svg version="1.0" xmlns="http://www.w3.org/2000/svg"
 width="576.000000pt" height="576.000000pt" viewBox="0 0 576.000000 576.000000"
 preserveAspectRatio="xMidYMid meet">

<g transform="translate(0.000000,576.000000) scale(0.100000,-0.100000)"
fill="#000000" stroke="none">
<path d="M2630 4783 c-341 -37 -655 -221 -840 -493 -90 -132 -190 -389 -190
-489 0 -69 5 -67 -168 -67 -188 0 -262 -17 -419 -94 -257 -127 -433 -346 -500
-621 -28 -114 -25 -337 5 -448 92 -337 351 -594 679 -672 80 -19 109 -21 318
-16 255 5 296 12 396 73 94 57 162 145 193 253 13 45 16 111 16 368 0 173 4
312 8 309 5 -3 50 -71 102 -151 51 -80 101 -150 111 -155 34 -19 79 -11 104
16 47 51 41 65 -166 376 -206 308 -219 323 -278 298 -41 -17 -411 -571 -411
-616 0 -61 74 -104 129 -75 9 5 62 77 117 160 54 83 102 151 107 151 11 0 8
-563 -4 -620 -16 -75 -64 -139 -129 -175 l-55 -30 -255 0 -255 0 -78 34 c-150
65 -262 157 -347 288 -196 300 -155 693 99 943 186 183 428 255 688 205 128
-25 163 4 163 137 1 352 241 713 564 847 148 62 214 74 391 75 138 0 172 -3
245 -23 357 -98 623 -375 695 -726 26 -125 25 -349 -3 -450 -49 -180 -166
-366 -311 -494 -79 -71 -91 -97 -68 -147 19 -39 65 -56 111 -41 42 14 211 187
274 280 74 107 129 232 162 362 l28 110 63 27 c136 57 333 73 464 38 552 -149
753 -782 389 -1226 -80 -97 -225 -187 -368 -228 l-88 -26 -862 0 c-475 0 -898
-4 -943 -10 -142 -16 -265 -96 -333 -215 -51 -90 -53 -109 -59 -458 l-6 -328
-85 137 c-46 75 -93 142 -104 150 -57 39 -136 -7 -136 -79 0 -12 84 -148 188
-302 201 -302 214 -315 270 -285 31 17 387 539 397 582 14 60 -52 120 -112
101 -21 -7 -53 -46 -128 -157 l-100 -148 -3 302 c-1 187 2 317 8 340 17 61 69
121 135 155 l59 30 925 5 926 6 80 22 c321 93 576 347 667 667 20 70 23 102
23 250 -1 159 -3 175 -29 255 -53 160 -119 271 -226 379 -120 121 -275 210
-452 258 -49 14 -99 18 -223 17 -139 -1 -170 -4 -241 -26 l-81 -24 -11 100
c-45 406 -280 735 -647 907 -169 79 -408 121 -585 102z"/>
</g>
</svg>
